<?xml version="1.0" standalone="no"?>
<!DOCTYPE svg PUBLIC "-//W3C//DTD SVG 1.1//EN" "http://www.w3.org/Graphics/SVG/1.1/DTD/svg11.dtd" >
<svg>
<metadata>
Created by FontForge 20090914 at Sun Jul 10 17:34:14 2022
 By www-data
Copyright (c) Olivier Gourvat - Mostardesign Studio, 2012. All rights reserved.
</metadata>
<defs>
<font id="SofiaProBold" horiz-adv-x="568" >
  <font-face 
    font-family="Sofia Pro Bold"
    font-weight="400"
    font-stretch="normal"
    units-per-em="1000"
    panose-1="2 11 0 0 0 0 0 0 0 0"
    ascent="750"
    descent="-250"
    x-height="466.999"
    cap-height="689"
    bbox="-180 -287.001 1157 1113"
    underline-thickness="50"
    underline-position="-200"
    unicode-range="U+0020-U+FB04"
  />
<missing-glyph horiz-adv-x="635" 
d="M80 0v665h475v-665h-475zM185 431l62 0.000976562c0 24.667 7 44.667 21 60s31.667 23 53 23s40 -6.83301 56 -20.5s24 -31.167 24 -52.5c0 -20 -8 -36.667 -24 -50c-10 -11.333 -21 -18.333 -33 -21c-30 -8.66699 -53 -21.334 -69 -38.001s-24 -40.667 -24 -72v-38h62
v38c0 14.667 4.16699 25.5 12.5 32.5s20.833 12.833 37.5 17.5c28.667 8.66699 52.334 24.667 71.001 48s28 51 28 83c0 40 -13.833 72.5 -41.5 97.5s-60.834 37.5 -99.501 37.5c-38 0 -70.167 -13.333 -96.5 -40s-39.5 -61.667 -39.5 -105zM237 131.001
c0 -12 4.5 -22.167 13.5 -30.5s19.833 -12.5 32.5 -12.5c12 0 22.5 4.16699 31.5 12.5s13.5 18.5 13.5 30.5s-4.5 22.167 -13.5 30.5s-19.5 12.5 -31.5 12.5c-12.667 0 -23.5 -4.16699 -32.5 -12.5s-13.5 -18.5 -13.5 -30.5z" />
    <glyph glyph-name="f_f" unicode="ff" horiz-adv-x="761" 
d="M767 721v-132.998h-51c-47.333 0 -71 -29.667 -71 -89v-32h94v-110h-94v-357h-140v357h-254v-357h-140v357h-88v110h88v32c0 71.333 18.333 126.166 55 164.499s88.667 57.5 156 57.5h51v-133h-51c-47.333 0 -71 -29.667 -71 -89v-32h254v32
c0 71.333 18.333 126.166 55 164.499s88.667 57.5 156 57.5h51z" />
    <glyph glyph-name="fi" unicode="fi" horiz-adv-x="695" 
d="M631 467v-466.999h-138v357h-242v-357h-140v357h-88v110h88v32c0 71.333 18.333 126.166 55 164.499s88.667 57.5 156 57.5h51v-133h-51c-47.333 0 -71 -29.667 -71 -89v-32h380zM475 640.001c0 22.667 8.5 41.834 25.5 57.501s37.5 23.5 61.5 23.5
c23.333 0 43.333 -7.83301 60 -23.5s25 -34.834 25 -57.501s-8.33301 -42 -25 -58s-36.667 -24 -60 -24c-24 0 -44.5 8 -61.5 24s-25.5 35.333 -25.5 58z" />
    <glyph glyph-name="fl" unicode="fl" horiz-adv-x="678" 
d="M322 721l292 0.000976562v-721h-139v588h-153c-47.333 0 -71 -29.667 -71 -89v-32h94v-110h-94v-357h-140v357h-88v110h88v32c0 71.333 18.333 126.166 55 164.499s88.667 57.5 156 57.5z" />
    <glyph glyph-name="f_f_i" unicode="ffi" horiz-adv-x="1089" 
d="M1025 467v-466.998h-138v357h-242v-357h-140v357h-254v-357h-140v357h-88v110h88v32c0 71.333 18.333 126.166 55 164.499s88.667 57.5 156 57.5h51v-133h-51c-47.333 0 -71 -29.667 -71 -89v-32h254v32c0 71.333 18.333 126.166 55 164.499s88.667 57.5 156 57.5h51
v-133h-51c-47.333 0 -71 -29.667 -71 -89v-32h380zM869 640.002c0 22.667 8.5 41.834 25.5 57.501s37.5 23.5 61.5 23.5c23.333 0 43.333 -7.83301 60 -23.5s25 -34.834 25 -57.501s-8.33301 -42 -25 -58s-36.667 -24 -60 -24c-24 0 -44.5 8 -61.5 24s-25.5 35.333 -25.5 58
z" />
    <glyph glyph-name="f_f_l" unicode="ffl" horiz-adv-x="1072" 
d="M1008 721v-720.998h-139v588h-153c-47.333 0 -71 -29.667 -71 -89v-32h94v-110h-94v-357h-140v357h-254v-357h-140v357h-88v110h88v32c0 71.333 18.333 126.166 55 164.499s88.667 57.5 156 57.5h51v-133h-51c-47.333 0 -71 -29.667 -71 -89v-32h254v32
c0 71.333 18.333 126.166 55 164.499s88.667 57.5 156 57.5h292z" />
    <glyph glyph-name="f_f_j" unicode="ffj" horiz-adv-x="1065" 
d="M739 -235l-0.000976562 126.002h61c42 0 62.333 24.667 61 74v392h-216v-357h-140v357h-254v-357h-140v357h-88v110h88v32c0 71.333 18.333 126.166 55 164.499s88.667 57.5 156 57.5h51v-133h-51c-47.333 0 -71 -29.667 -71 -89v-32h254v32
c0 71.333 18.333 126.166 55 164.499s88.667 57.5 156 57.5h51v-133h-51c-47.333 0 -71 -29.667 -71 -89v-32h356v-499c0 -65.333 -13.667 -115.5 -41 -150.5s-72.666 -52.5 -135.999 -52.5h-85zM843.999 640.002c0 22.667 8.5 41.834 25.5 57.501s37.5 23.5 61.5 23.5
s44.333 -7.83301 61 -23.5s25 -34.834 25 -57.501s-8.33301 -42 -25 -58s-37 -24 -61 -24s-44.5 8 -61.5 24s-25.5 35.333 -25.5 58z" />
    <glyph glyph-name="f_j" unicode="fj" horiz-adv-x="671" 
d="M345 -235l-0.000976562 126.001h61c42 0 62.333 24.667 61 74v392h-216v-357h-140v357h-88v110h88v32c0 71.333 18.333 126.166 55 164.499s88.667 57.5 156 57.5h51v-133h-51c-47.333 0 -71 -29.667 -71 -89v-32h356v-499c0 -65.333 -13.667 -115.5 -41 -150.5
s-72.666 -52.5 -135.999 -52.5h-85zM449.999 640.001c0 22.667 8.5 41.834 25.5 57.501s37.5 23.5 61.5 23.5s44.333 -7.83301 61 -23.5s25 -34.834 25 -57.501s-8.33301 -42 -25 -58s-37 -24 -61 -24s-44.5 8 -61.5 24s-25.5 35.333 -25.5 58z" />
    <glyph glyph-name=".notdef" horiz-adv-x="635" 
d="M80 0v665h475v-665h-475zM185 431l62 0.000976562c0 24.667 7 44.667 21 60s31.667 23 53 23s40 -6.83301 56 -20.5s24 -31.167 24 -52.5c0 -20 -8 -36.667 -24 -50c-10 -11.333 -21 -18.333 -33 -21c-30 -8.66699 -53 -21.334 -69 -38.001s-24 -40.667 -24 -72v-38h62
v38c0 14.667 4.16699 25.5 12.5 32.5s20.833 12.833 37.5 17.5c28.667 8.66699 52.334 24.667 71.001 48s28 51 28 83c0 40 -13.833 72.5 -41.5 97.5s-60.834 37.5 -99.501 37.5c-38 0 -70.167 -13.333 -96.5 -40s-39.5 -61.667 -39.5 -105zM237 131.001
c0 -12 4.5 -22.167 13.5 -30.5s19.833 -12.5 32.5 -12.5c12 0 22.5 4.16699 31.5 12.5s13.5 18.5 13.5 30.5s-4.5 22.167 -13.5 30.5s-19.5 12.5 -31.5 12.5c-12.667 0 -23.5 -4.16699 -32.5 -12.5s-13.5 -18.5 -13.5 -30.5z" />
    <glyph glyph-name="space" unicode=" " horiz-adv-x="244" 
 />
    <glyph glyph-name="exclam" unicode="!" horiz-adv-x="283" 
d="M65 689h154l-20 -481h-114zM55 74c0 24 8.33301 43.833 25 59.5s37 23.5 61 23.5s44.5 -8 61.5 -24s25.5 -35.667 25.5 -59c0 -24 -8.5 -44 -25.5 -60s-37.5 -24 -61.5 -24s-44.333 8 -61 24s-25 36 -25 60z" />
    <glyph glyph-name="quotedbl" unicode="&#x22;" horiz-adv-x="365" 
d="M74 392l-11 297h98l-11 -297h-76zM215 392l-11 297h98l-11 -297h-76z" />
    <glyph glyph-name="numbersign" unicode="#" horiz-adv-x="723" 
d="M574 515h115l-26 -92h-115l-52 -168h115l-27 -92h-114l-53 -163h-109l51 163h-102l-52 -163h-108l52 163h-114l26 92h113l51 168h-112l26 92h113l52 174h111l-52 -174h101l53 174h110zM335 423l-51 -168h101l52 168h-102z" />
    <glyph glyph-name="dollar" unicode="$" horiz-adv-x="575" 
d="M253 802l73.0029 0.00195312v-108c56.667 -8 102.667 -30.333 138 -67s53 -83.667 53 -141h-146c0 23.333 -7.66699 42.166 -23 56.499s-37.333 21.5 -66 21.5c-26 0 -47.333 -6.5 -64 -19.5s-25 -29.5 -25 -49.5c0 -32.667 24.667 -56 74 -70l82 -26
c129.333 -37.333 192.333 -106.666 189 -207.999c-0.666992 -58.667 -21.334 -105.167 -62.001 -139.5s-90.667 -54.5 -150 -60.5v-115h-73v115c-64.667 6.66699 -116.334 29.167 -155.001 67.5s-58 86.166 -58 143.499h147c1.33301 -23.333 11 -43 29 -59
s42.667 -24 74 -24c30 0 54.167 6.66699 72.5 20s27.833 31 28.5 53c0.666992 17.333 -4.83301 32.333 -16.5 45s-33.834 23.667 -66.501 33l-83 23c-118.667 36.667 -178 102.667 -178 198c0 55.333 19.333 101.666 58 138.999s88 59 148 65v107z" />
    <glyph glyph-name="percent" unicode="%" horiz-adv-x="692" 
d="M539 655h-69l-322 -655h69zM36 528c0 37.333 12.833 69 38.5 95s57.167 39 94.5 39c36.667 0 68.167 -13 94.5 -39s39.5 -57.667 39.5 -95s-13 -68.833 -39 -94.5s-57.667 -38.5 -95 -38.5s-68.833 12.833 -94.5 38.5s-38.5 57.167 -38.5 94.5zM117 528
c0 -14.667 4.83301 -27 14.5 -37s22.167 -15 37.5 -15c14.667 0 27.167 5 37.5 15s15.5 22.333 15.5 37s-5.16699 27.167 -15.5 37.5s-22.833 15.5 -37.5 15.5s-27 -5.16699 -37 -15.5s-15 -22.833 -15 -37.5zM390 123c0 37.333 12.833 69 38.5 95s57.167 39 94.5 39
c36.667 0 68.167 -13.167 94.5 -39.5s39.5 -57.833 39.5 -94.5c0 -37.333 -13 -68.833 -39 -94.5s-57.667 -38.5 -95 -38.5s-68.833 12.833 -94.5 38.5s-38.5 57.167 -38.5 94.5zM471 123c0 -15.333 4.83301 -27.833 14.5 -37.5s22.167 -14.5 37.5 -14.5
c14.667 0 27.167 5 37.5 15s15.5 22.333 15.5 37s-5.16699 27.167 -15.5 37.5s-22.833 15.5 -37.5 15.5s-27 -5.16699 -37 -15.5s-15 -22.833 -15 -37.5z" />
    <glyph glyph-name="ampersand" unicode="&#x26;" horiz-adv-x="694" 
d="M286 -10c-67.333 0 -123.334 18.832 -168.001 56.499s-67 85.834 -67 144.501c0 90 38 148.667 114 176c-25.333 8 -46.166 24.333 -62.499 49s-24.5 54 -24.5 88c0 50 19 94 57 132s86 58.333 144 61c82.667 4 148.334 -25.667 197.001 -89l-118 -72
c-17.333 17.333 -36 26 -56 26c-23.333 0 -41 -7 -53 -21s-18 -29.667 -18 -47c0 -2.66699 0.166992 -5.83398 0.5 -9.50098s2 -10 5 -19s7 -16.833 12 -23.5s13 -12.667 24 -18s23.833 -8 38.5 -8h114v78h129v-78h80v-112h-80v-102c0 -38.667 5.66699 -63.5 17 -74.5
s36.666 -16.5 75.999 -16.5v-121c-60 0.666992 -104.5 6.33398 -133.5 17.001s-49.167 33.667 -60.5 69c-12 -26 -34.833 -46.833 -68.5 -62.5s-66.5 -23.5 -98.5 -23.5zM424.999 303.999h-118.001c-22.667 0 -41.834 -3.83301 -57.501 -11.5s-26.667 -17.334 -33 -29.001
s-10.666 -22.667 -12.999 -33s-2.5 -19.833 -0.5 -28.5c10.667 -50.667 45.334 -76 104.001 -76c26.667 0 53 9.83301 79 29.5s39 50.834 39 93.501v55z" />
    <glyph glyph-name="quotesingle" unicode="'" horiz-adv-x="224" 
d="M74 392l-11 297h98l-11 -297h-76z" />
    <glyph glyph-name="parenleft" unicode="(" horiz-adv-x="388" 
d="M39 228c0 134.667 30.167 246.5 90.5 335.5s135.833 133.5 226.5 133.5v-109c-32.667 0 -64.5 -17 -95.5 -51s-56.167 -79 -75.5 -135s-29 -114 -29 -174c0 -90.667 20.833 -172.167 62.5 -244.5s87.5 -108.5 137.5 -108.5v-108c-90.667 0 -166.167 43.167 -226.5 129.5
s-90.5 196.833 -90.5 331.5z" />
    <glyph glyph-name="parenright" unicode=")" horiz-adv-x="388" 
d="M349 228c0 -134.667 -30.167 -245.167 -90.5 -331.5s-135.833 -129.5 -226.5 -129.5v108c50 0 95.833 36.167 137.5 108.5s62.5 153.833 62.5 244.5c0 60 -9.66699 118 -29 174s-44.5 101 -75.5 135s-62.833 51 -95.5 51v109c90.667 0 166.167 -44.5 226.5 -133.5
s90.5 -200.833 90.5 -335.5z" />
    <glyph glyph-name="asterisk" unicode="*" horiz-adv-x="476" 
d="M164 336l-76 58l82 101l-126 36l31 93l121 -48l-8 131h100l-9 -130l123 47l29 -93l-125 -34l83 -104l-78 -55l-71 108z" />
    <glyph glyph-name="plus" unicode="+" horiz-adv-x="509" 
d="M305 210v-155h-102v155h-154v102h154v154h102v-154h155v-102h-155z" />
    <glyph glyph-name="comma" unicode="," horiz-adv-x="283" 
d="M91 -135l-90 33.998c23.333 32 42.333 71.333 57 118s21.667 93.667 21 141h141c-0.666992 -69.333 -14.167 -128.666 -40.5 -177.999s-55.833 -87.666 -88.5 -114.999z" />
    <glyph glyph-name="hyphen" unicode="-" horiz-adv-x="475" 
d="M61 191v110h353v-110h-353z" />
    <glyph glyph-name="period" unicode="." horiz-adv-x="279" 
d="M53 74c0 24 8.33301 43.833 25 59.5s37 23.5 61 23.5s44.5 -8 61.5 -24s25.5 -35.667 25.5 -59c0 -24 -8.5 -44 -25.5 -60s-37.5 -24 -61.5 -24s-44.333 8 -61 24s-25 36 -25 60z" />
    <glyph glyph-name="slash" unicode="/" horiz-adv-x="500" 
d="M360 689h111l-331 -689h-111z" />
    <glyph glyph-name="zero" unicode="0" horiz-adv-x="604" 
d="M58 328c0 226.667 81.667 340 245 340c46 0 85.333 -8.66699 118 -26s57.834 -42 75.501 -74s30.334 -67.5 38.001 -106.5s11.5 -83.5 11.5 -133.5s-3.83301 -94.167 -11.5 -132.5s-20.334 -73.5 -38.001 -105.5s-42.834 -56.667 -75.501 -74s-72 -26 -118 -26
c-163.333 0 -245 112.667 -245 338zM198 328c0 -134.667 35 -202 105 -202c68.667 0 103 67.333 103 202c0 136 -34.333 204 -103 204c-70 0 -105 -68 -105 -204z" />
    <glyph glyph-name="one" unicode="1" horiz-adv-x="377" 
d="M291 664v-664h-140v469l-112 -48v123z" />
    <glyph glyph-name="two" unicode="2" horiz-adv-x="548" 
d="M477 0l-425.999 -0.000976562v76l269 319c23.333 26.667 35 51.334 35 74.001c0 18 -7.33301 33.333 -22 46s-34.667 19 -60 19c-24.667 0 -45.334 -8.5 -62.001 -25.5s-27 -38.833 -31 -65.5l-128 22c10 62.667 35.333 112.167 76 148.5s91.667 54.5 153 54.5
c59.333 0 109.833 -18.667 151.5 -56s62.5 -85 62.5 -143c0 -58.667 -23 -114 -69 -166l-151 -171h202v-132z" />
    <glyph glyph-name="three" unicode="3" horiz-adv-x="552" 
d="M258 284l-68.999 -0.000976562v120h69c42.667 0 64 23.667 64 71c0 13.333 -5.5 27.166 -16.5 41.499s-27.5 21.5 -49.5 21.5c-31.333 0 -54.333 -12 -69 -36l-113 69c20 31.333 48.167 56 84.5 74s76.166 25.667 119.499 23c56 -2.66699 102.667 -22.167 140 -58.5
s55.333 -78.166 54 -125.499c0 -26 -7.66699 -50.333 -23 -73s-35.666 -41 -60.999 -55c35.333 -12.667 63.666 -36.5 84.999 -71.5s30.333 -70.5 27 -106.5c-5.33301 -56 -33.333 -102.167 -84 -138.5s-108.667 -52.166 -174 -47.499c-45.333 2.66699 -87 16.667 -125 42
s-66 57 -84 95l123 61c7.33301 -15.333 20.666 -29.5 39.999 -42.5s38.333 -19.833 57 -20.5c24 -1.33301 45.167 5.5 63.5 20.5s28.5 31.5 30.5 49.5c2 3.33301 2.16699 9.83301 0.5 19.5s-4.16699 19.667 -7.5 30s-12.166 19.333 -26.499 27s-32.833 11.167 -55.5 10.5z
" />
    <glyph glyph-name="four" unicode="4" horiz-adv-x="602" 
d="M210 265h122v204zM556 147h-83v-147h-141v147h-313l306 508h148v-390h83v-118z" />
    <glyph glyph-name="five" unicode="5" horiz-adv-x="592" 
d="M405 231c0 35.333 -11.168 62.001 -33.501 80.001s-51.5 27 -87.5 27c-25.333 0 -51.5 -5.5 -78.5 -16.5s-48.833 -29.5 -65.5 -55.5l-77 40l54 349h384v-128h-273l-17 -106c25.333 22.667 65.333 34 120 34c61.333 0 112.333 -19.667 153 -59s61 -94.333 61 -165
s-24.667 -128.5 -74 -173.5s-114.666 -67.5 -195.999 -67.5c-45.333 0 -89 12.167 -131 36.5s-75.667 56.166 -101 95.499l118 76c12.667 -20 29.667 -36.333 51 -49s42.333 -19 63 -19c37.333 0 68.333 10 93 30s37 43.667 37 71z" />
    <glyph glyph-name="six" unicode="6" horiz-adv-x="586" 
d="M332 422c52 0 98.5 -19.334 139.5 -58.001s61.5 -93 61.5 -163c0 -63.333 -21.833 -114.333 -65.5 -153s-101.167 -58 -172.5 -58c-62.667 0 -116 20.833 -160 62.5s-69 96.834 -75 165.501c-4 34 -5 68.667 -3 104s5.33301 70 10 104s13.834 66 27.501 96s30 56 49 78
s44.167 39.167 75.5 51.5s66.666 17.833 105.999 16.5c44.667 -2 84 -12.167 118 -30.5s62 -50.5 84 -96.5l-131 -56c-16.667 34.667 -42 52 -76 52c-30 0 -54.667 -10 -74 -30s-32.166 -43.5 -38.499 -70.5s-8.83301 -56.5 -7.5 -88.5c5.33301 16 19.666 32.333 42.999 49
s53 25 89 25zM388 208.999c0 23.333 -8.5 43.5 -25.5 60.5s-37.167 25.5 -60.5 25.5s-43.5 -8.5 -60.5 -25.5s-25.5 -37.167 -25.5 -60.5s8.5 -43.5 25.5 -60.5s37.167 -25.5 60.5 -25.5s43.5 8.5 60.5 25.5s25.5 37.167 25.5 60.5z" />
    <glyph glyph-name="seven" unicode="7" horiz-adv-x="550" 
d="M43 655h494l-289 -655h-159l231 526h-277v129z" />
    <glyph glyph-name="eight" unicode="8" horiz-adv-x="596" 
d="M96 485c0 50.667 19.8311 93.835 59.498 129.502s87.167 53.5 142.5 53.5s103 -17.833 143 -53.5s60 -78.834 60 -129.501c0 -44.667 -16 -81.334 -48 -110.001c28.667 -16.667 51.5 -39.5 68.5 -68.5s25.5 -61.167 25.5 -96.5c0 -62 -24.167 -114.167 -72.5 -156.5
s-107.166 -63.5 -176.499 -63.5s-128.166 21.167 -176.499 63.5s-72.5 94.5 -72.5 156.5c0 35.333 8.33301 67.5 25 96.5s39.667 51.833 69 68.5c-31.333 30 -47 66.667 -47 110zM188.998 217.001c0 -27.333 10.833 -50.333 32.5 -69s47.167 -28 76.5 -28
s54.833 9.33301 76.5 28s32.5 41.667 32.5 69c0 26.667 -9.66699 49.667 -29 69s-46.333 29 -81 29c-34 0 -60.5 -9.66699 -79.5 -29s-28.5 -42.333 -28.5 -69zM230.998 481.001c0 -18 5.83301 -33 17.5 -45s28.167 -18 49.5 -18s37.833 6 49.5 18s17.5 27 17.5 45
c0 16.667 -6 31 -18 43s-28.333 18 -49 18s-37 -6 -49 -18s-18 -26.333 -18 -43z" />
    <glyph glyph-name="nine" unicode="9" horiz-adv-x="585" 
d="M253 236c-52 0 -98.499 19.334 -139.499 58.001s-61.5 93 -61.5 163c0 63.333 21.833 114.333 65.5 153s101.167 58 172.5 58c62.667 0 116 -20.833 160 -62.5s69 -96.834 75 -165.501c4 -34 5 -68.667 3 -104s-5.33301 -70 -10 -104s-13.834 -66 -27.501 -96
s-30 -56 -49 -78s-44.167 -39.167 -75.5 -51.5s-66.666 -17.833 -105.999 -16.5c-44.667 2 -84 12.167 -118 30.5s-62 50.5 -84 96.5l131 56c16.667 -34.667 42 -52 76 -52c30 0 54.667 10 74 30s32.166 43.5 38.499 70.5s8.83301 56.5 7.5 88.5
c-17.333 -49.333 -61.333 -74 -132 -74zM197.001 449.001c0 -23.333 8.5 -43.5 25.5 -60.5s37.167 -25.5 60.5 -25.5s43.5 8.5 60.5 25.5s25.5 37.167 25.5 60.5s-8.5 43.5 -25.5 60.5s-37.167 25.5 -60.5 25.5s-43.5 -8.5 -60.5 -25.5s-25.5 -37.167 -25.5 -60.5z" />
    <glyph glyph-name="colon" unicode=":" horiz-adv-x="308" 
d="M68 74c0 24 8.33301 43.833 25 59.5s37 23.5 61 23.5s44.333 -7.83301 61 -23.5s25 -35.5 25 -59.5s-8.33301 -44 -25 -60s-37 -24 -61 -24s-44.333 8 -61 24s-25 36 -25 60zM68 393c0 24 8.33301 44 25 60s37 24 61 24s44.333 -8 61 -24s25 -36 25 -60
s-8.33301 -43.833 -25 -59.5s-37 -23.5 -61 -23.5s-44.333 7.83301 -61 23.5s-25 35.5 -25 59.5z" />
    <glyph glyph-name="semicolon" unicode=";" horiz-adv-x="306" 
d="M100 -135l-90 33.998c23.333 32 42.333 71.333 57 118s21.667 93.667 21 141h141c-0.666992 -69.333 -14.167 -128.666 -40.5 -177.999s-55.833 -87.666 -88.5 -114.999zM76 392.998c0 24 8.33301 44 25 60s37 24 61 24s44.333 -8 61 -24s25 -36 25 -60
s-8.33301 -43.833 -25 -59.5s-37 -23.5 -61 -23.5s-44.333 7.83301 -61 23.5s-25 35.5 -25 59.5z" />
    <glyph glyph-name="less" unicode="&#x3c;" horiz-adv-x="624" 
d="M46 244v112l502 192l1 -110l-362 -138l362 -138l-1 -110z" />
    <glyph glyph-name="equal" unicode="=" horiz-adv-x="596" 
d="M528 350h-460v98h460v-98zM68 247h460v-98h-460v98z" />
    <glyph glyph-name="greater" unicode="&#x3e;" horiz-adv-x="624" 
d="M578 356v-112l-502 -192l-1 110l362 138l-362 138l1 110z" />
    <glyph glyph-name="question" unicode="?" horiz-adv-x="496" 
d="M274 230l-2.00293 -21.999h-136l-2 22c0 26 0.333008 45.5 1 58.5s2.83398 27.833 6.50098 44.5s9.33398 29.667 17.001 39s18.334 19.166 32.001 29.499s31.167 20.166 52.5 29.499l40 17c16 8.66699 26.167 16.834 30.5 24.501s6.5 17.834 6.5 30.501
c0 15.333 -6.66699 28.166 -20 38.499s-30.333 15.5 -51 15.5c-21.333 0 -38.5 -6.33301 -51.5 -19s-19.5 -29.334 -19.5 -50.001h-140c0 63.333 19.333 114 58 152s89.667 57 153 57s114.333 -17.667 153 -53s58 -82.666 58 -141.999c0 -47.333 -12.333 -87.5 -37 -120.5
s-57 -55.833 -97 -68.5c-20 -6 -33.667 -15.167 -41 -27.5s-11 -30.833 -11 -55.5zM119.997 74.001c0 24 8.33301 43.833 25 59.5s37 23.5 61 23.5s44.5 -8 61.5 -24s25.5 -35.667 25.5 -59c0 -24 -8.5 -44 -25.5 -60s-37.5 -24 -61.5 -24s-44.333 8 -61 24s-25 36 -25 60z
" />
    <glyph glyph-name="at" unicode="@" horiz-adv-x="964" 
d="M583 136l-0.00390625 125.997c0 32.667 -11.333 60.334 -34 83.001s-50 34 -82 34s-59.333 -11.333 -82 -34s-34 -50.334 -34 -83.001c0 -31.333 11.5 -58.333 34.5 -81s50.167 -34 81.5 -34c29.333 0 55.666 8.33301 78.999 25v-94
c-29.333 -12.667 -55.666 -19 -78.999 -19c-56.667 0 -105 19.667 -145 59s-60 87.333 -60 144c0 57.333 20 105.833 60 145.5s88.333 59.5 145 59.5c55.333 0 102.666 -18.667 141.999 -56c40.667 -36.667 62 -83 64 -139v-142c0 -21.333 5.83301 -36.666 17.5 -45.999
s25.834 -14 42.501 -14c20.667 0 38.334 6.83301 53.001 20.5s25.5 31.667 32.5 54s12 44.166 15 65.499s4.5 43 4.5 65c0 94.667 -35.333 173.834 -106 237.501s-155.667 95.5 -255 95.5c-96 0 -177.167 -34.167 -243.5 -102.5s-99.5 -151.166 -99.5 -248.499
c0 -96.667 33.167 -178.5 99.5 -245.5s147.5 -100.5 243.5 -100.5h33v-89h-33c-121.333 0 -223.666 42 -306.999 126s-125 187 -125 309s41.833 225.833 125.5 311.5s185.834 128.5 306.501 128.5c80.667 0 155.334 -18.167 224.001 -54.5s123.667 -87 165 -152
s62 -136.833 62 -215.5c0 -32 -3.5 -64.167 -10.5 -96.5s-17.667 -63.666 -32 -93.999s-34.666 -55 -60.999 -74s-56.833 -28.5 -91.5 -28.5c-42.667 0 -78.334 12.333 -107.001 37s-43 63.667 -43 117z" />
    <glyph glyph-name="A" unicode="A" horiz-adv-x="659" 
d="M259 290h143l-73 240zM449 163h-238l-61 -163h-156l256 689h159l255 -689h-154z" />
    <glyph glyph-name="B" unicode="B" horiz-adv-x="637" 
d="M561 497c0 -26 -7.5 -50.8311 -22.5 -74.498s-38.833 -41.834 -71.5 -54.501c42 -10.667 74.167 -31.5 96.5 -62.5s33.5 -62.5 33.5 -94.5c0 -59.333 -20 -109.333 -60 -150s-93.333 -61 -160 -61h-296v689h276c62 0 111.5 -17.333 148.5 -52s55.5 -81.334 55.5 -140.001
zM228 417.002h115c18.667 0 34 6.66699 46 20s18 30.333 18 51c0 22 -5.5 39.5 -16.5 52.5s-27.167 19.5 -48.5 19.5h-114v-143zM366 296.002h-138v-167h141c23.333 0 41.5 8.5 54.5 25.5s19.5 36.833 19.5 59.5c0 21.333 -6.83301 40.333 -20.5 57s-32.5 25 -56.5 25z" />
    <glyph glyph-name="C" unicode="C" horiz-adv-x="699" 
d="M559 223l118.001 -82c-30.667 -46.667 -71.334 -83.5 -122.001 -110.5s-106.667 -40.5 -168 -40.5c-98 0 -180.167 34.333 -246.5 103s-99.5 152 -99.5 250c0 98.667 33.167 182.334 99.5 251.001s148.5 103 246.5 103c60 0 115.167 -13.167 165.5 -39.5
s90.833 -61.833 121.5 -106.5l-119 -82c-41.333 60 -97.333 90 -168 90c-56.667 0 -104 -20.833 -142 -62.5s-57 -92.834 -57 -153.501c0 -60 19 -110.833 57 -152.5s85.333 -62.5 142 -62.5c35.333 0 68 8.66699 98 26s54.667 40.333 74 69z" />
    <glyph glyph-name="D" unicode="D" horiz-adv-x="707" 
d="M227 556v-423.001h124c52.667 0 93.334 20 122.001 60s43 90 43 150c0 60.667 -14.333 111.334 -43 152.001s-69.334 61 -122.001 61h-124zM351 -0.000976562h-270v689h270c96.667 0 172.667 -32.5 228 -97.5s83 -147.833 83 -248.5s-27.667 -183 -83 -247
s-131.333 -96 -228 -96z" />
    <glyph glyph-name="E" unicode="E" horiz-adv-x="576" 
d="M81 0v689h436v-129h-290v-157h254v-127h-254v-147h299v-129h-445z" />
    <glyph glyph-name="F" unicode="F" horiz-adv-x="538" 
d="M81 0v689h431v-129h-284v-157h225v-128h-225v-275h-147z" />
    <glyph glyph-name="G" unicode="G" horiz-adv-x="756" 
d="M653 584l-108.002 -92.999c-41.333 46.667 -91.666 70 -150.999 70c-58 0 -106.833 -21.333 -146.5 -64s-59.5 -94 -59.5 -154s20 -111.5 60 -154.5s88.667 -64.5 146 -64.5c40 0 77.667 11.167 113 33.5s53.333 50.833 54 85.5h-185v119h354
c0 -124.667 -30.167 -217.834 -90.5 -279.501s-142.166 -92.5 -245.499 -92.5c-98.667 0 -182.167 34.5 -250.5 103.5s-102.5 152.167 -102.5 249.5c0 98 34.167 181.5 102.5 250.5s151.833 103.5 250.5 103.5c52 0 100.5 -10 145.5 -30s82.833 -47.667 113.5 -83z" />
    <glyph glyph-name="H" unicode="H" horiz-adv-x="701" 
d="M472 689h148v-689h-148v277h-245v-277h-146v689h146v-281h245v281z" />
    <glyph glyph-name="I" unicode="I" horiz-adv-x="308" 
d="M81 689h146v-689h-146v689z" />
    <glyph glyph-name="J" unicode="J" horiz-adv-x="309" 
d="M-99 -219l13.002 132c21.333 -7.33301 50.666 -11 87.999 -11c26.667 0 46.5 8.83301 59.5 26.5s19.5 40.5 19.5 68.5v692h147v-692c0 -68.667 -18.333 -124.667 -55 -168s-93.667 -65 -171 -65c-20.667 0 -54.334 5.66699 -101.001 17z" />
    <glyph glyph-name="K" unicode="K" horiz-adv-x="609" 
d="M303 348l323 -348h-190l-207 234v-234h-148v689h148v-226l163 226h172z" />
    <glyph glyph-name="L" unicode="L" horiz-adv-x="511" 
d="M81 0v689h147v-560h258v-129h-405z" />
    <glyph glyph-name="M" unicode="M" horiz-adv-x="913" 
d="M457 245l206 444h123l84 -689h-147l-48 413l-161 -334h-113l-162 334l-49 -413h-147l85 689h121z" />
    <glyph glyph-name="N" unicode="N" horiz-adv-x="679" 
d="M598 689v-689h-131l-240 417v-417h-146v689h134l236 -412v412h147z" />
    <glyph glyph-name="O" unicode="O" horiz-adv-x="781" 
d="M187 343c0 -58 19.667 -107.167 59 -147.5s87.333 -60.5 144 -60.5s104.834 20.333 144.501 61s59.5 89.667 59.5 147c0 58 -19.833 107.333 -59.5 148s-87.834 61 -144.501 61s-104.667 -20.333 -144 -61s-59 -90 -59 -148zM41 343c0 98 33.833 181.5 101.5 250.5
s150.167 103.5 247.5 103.5c98 0 180.833 -34.5 248.5 -103.5s101.5 -152.5 101.5 -250.5c0 -97.333 -34 -180.5 -102 -249.5s-150.667 -103.5 -248 -103.5s-179.833 34.5 -247.5 103.5s-101.5 152.167 -101.5 249.5z" />
    <glyph glyph-name="P" unicode="P" horiz-adv-x="614" 
d="M361 560h-133.001v-194h129c26.667 0 47.834 10 63.501 30s23.5 42.333 23.5 67c0 24 -7.5 46.167 -22.5 66.5s-35.167 30.5 -60.5 30.5zM80.999 0v689h283c74 0 130.333 -22.167 169 -66.5s58 -97.5 58 -159.5s-19.333 -115 -58 -159s-95 -66 -169 -66h-136v-238h-147z
" />
    <glyph glyph-name="Q" unicode="Q" horiz-adv-x="788" 
d="M598 54l66.001 -109.999l-103 -62l-74 120c-30 -8 -61 -12 -93 -12c-98.667 0 -182.167 34.5 -250.5 103.5s-102.5 152.167 -102.5 249.5c0 98 34.167 181.5 102.5 250.5s151.833 103.5 250.5 103.5c99.333 0 183.166 -34.333 251.499 -103
s102.5 -152.334 102.5 -251.001c0 -58 -13.5 -112.333 -40.5 -163s-63.5 -92.667 -109.5 -126zM457.001 284.001l66 -106.999c52 41.333 78 96.666 78 165.999c0 60 -20.167 111 -60.5 153s-89.166 63 -146.499 63c-58 0 -106.833 -21 -146.5 -63s-59.5 -93 -59.5 -153
c0 -50.667 15.167 -95.167 45.5 -133.5s69.166 -62.5 116.499 -72.5c15.333 -4 35 -6 59 -6l-55 92z" />
    <glyph glyph-name="R" unicode="R" horiz-adv-x="637" 
d="M356 560h-128.001v-194h124c26.667 0 47.834 10 63.501 30s23.5 42.333 23.5 67c0 24 -7.5 46.167 -22.5 66.5s-35.167 30.5 -60.5 30.5zM419.999 244l171 -243.999h-176l-154 238h-33v-238h-147v689h282c73.333 0 129.833 -22.167 169.5 -66.5s59.5 -97.5 59.5 -159.5
c0 -52.667 -14.667 -99.334 -44 -140.001s-72 -67 -128 -79z" />
    <glyph glyph-name="S" unicode="S" horiz-adv-x="582" 
d="M44 202l147.003 -0.000976562c1.33301 -23.333 11 -43 29 -59s42.667 -24 74 -24c30 0 54.167 6.66699 72.5 20s27.833 31 28.5 53c0.666992 17.333 -4.83301 32.333 -16.5 45s-33.834 23.667 -66.501 33l-83 23c-118.667 36.667 -178 102.667 -178 198
c0 60.667 22.667 110.167 68 148.5s101.666 57.5 168.999 57.5c68 0 123.833 -19 167.5 -57s65.5 -89.333 65.5 -154h-146c0 23.333 -7.66699 42.166 -23 56.499s-37.333 21.5 -66 21.5c-26 0 -47.333 -6.5 -64 -19.5s-25 -29.5 -25 -49.5c0 -32.667 24.667 -56 74 -70
l82 -26c129.333 -37.333 192.333 -106.666 189 -207.999c-0.666992 -43.333 -13.334 -80.833 -38.001 -112.5s-55.167 -54.5 -91.5 -68.5s-75.833 -21 -118.5 -21c-74.667 0 -135 19.833 -181 59.5s-69 90.834 -69 153.501z" />
    <glyph glyph-name="T" unicode="T" horiz-adv-x="576" 
d="M28 557v132h520v-132h-186v-557h-148v557h-186z" />
    <glyph glyph-name="U" unicode="U" horiz-adv-x="682" 
d="M342 128c32 0 59.833 11.167 83.5 33.5s35.5 50.5 35.5 84.5v443h147v-443c0 -76 -26 -137.667 -78 -185s-114.667 -71 -188 -71s-136.333 23.667 -189 71s-79 109 -79 185v443h149v-443c0 -34.667 11.833 -63 35.5 -85s51.5 -33 83.5 -33z" />
    <glyph glyph-name="V" unicode="V" horiz-adv-x="582" 
d="M16 689h152l123 -452l122 452h153l-210 -689h-130z" />
    <glyph glyph-name="W" unicode="W" horiz-adv-x="886" 
d="M594 255l135 434h159l-234 -689h-115l-97 362l-95 -362h-116l-232 689h158l134 -434l92 337h120z" />
    <glyph glyph-name="X" unicode="X" horiz-adv-x="658" 
d="M633 689l-217 -322l239 -367h-173l-153 250l-153 -250h-172l238 367l-217 322h176l128 -206l129 206h175z" />
    <glyph glyph-name="Y" unicode="Y" horiz-adv-x="651" 
d="M400 0h-149v312l-266 377h174l166 -258l168 258h174l-267 -379v-310z" />
    <glyph glyph-name="Z" unicode="Z" horiz-adv-x="595" 
d="M42 111l315 449h-302v129h492v-111l-318 -449h318v-129h-505v111z" />
    <glyph glyph-name="bracketleft" unicode="[" horiz-adv-x="338" 
d="M73 -229v918h231v-101h-113v-714h113v-103h-231z" />
    <glyph glyph-name="backslash" unicode="\" horiz-adv-x="500" 
d="M29 689h111l331 -689h-111z" />
    <glyph glyph-name="bracketright" unicode="]" horiz-adv-x="338" 
d="M265 689v-918h-231v103h113v714h-113v101h231z" />
    <glyph glyph-name="underscore" unicode="_" horiz-adv-x="743" 
d="M60 -132v100h623v-100h-623z" />
    <glyph glyph-name="grave" unicode="`" horiz-adv-x="554" 
d="M129 707h138l110 -168h-100z" />
    <glyph glyph-name="a" unicode="a" horiz-adv-x="612" 
d="M410 0v53c-13.333 -20 -33.833 -35.333 -61.5 -46s-52.5 -16 -74.5 -16c-62.667 0 -118 22.5 -166 67.5s-72 103.5 -72 175.5s24 130.5 72 175.5s103.333 67.5 166 67.5c22 0 46.167 -4.66699 72.5 -14s47.5 -25.333 63.5 -48v52h138v-467h-138zM180 234
c0 -32 11.833 -58.498 35.5 -79.498s50.834 -31.5 81.501 -31.5c30 0 56.333 10.167 79 30.5s34 47.166 34 80.499s-11.333 60.166 -34 80.499s-49 30.5 -79 30.5c-30.667 0 -57.834 -10.5 -81.501 -31.5s-35.5 -47.5 -35.5 -79.5z" />
    <glyph glyph-name="b" unicode="b" horiz-adv-x="602" 
d="M205 235c0 -32.667 10.5 -59.668 31.5 -81.001s46.5 -32 76.5 -32s55.5 10.333 76.5 31s31.5 48 31.5 82c0 32.667 -10.5 59.334 -31.5 80.001s-46.5 31 -76.5 31s-55.5 -10 -76.5 -30s-31.5 -47 -31.5 -81zM202 -0.000976562h-138v721h138v-311
c11.333 20.667 29.5 37 54.5 49s52.5 18 82.5 18c62 0 115.167 -22.667 159.5 -68s66.5 -104.333 66.5 -177c0 -71.333 -22.167 -129.5 -66.5 -174.5s-97.5 -67.5 -159.5 -67.5c-30 0 -57.5 6 -82.5 18s-43.167 28.667 -54.5 50v-58z" />
    <glyph glyph-name="c" unicode="c" horiz-adv-x="525" 
d="M36 235c0 71.333 24.999 129.499 74.999 174.499s109.667 67.5 179 67.5c41.333 0 79.833 -8.66699 115.5 -26s64.834 -41.666 87.501 -72.999l-113 -81c-20 31.333 -50 47 -90 47c-30.667 0 -57.667 -10.167 -81 -30.5s-35 -46.5 -35 -78.5
c0 -32.667 11.667 -59.5 35 -80.5s50.333 -31.5 81 -31.5c40 0 70 15.667 90 47l113 -80c-22 -31.333 -50.833 -55.833 -86.5 -73.5s-74.5 -26.5 -116.5 -26.5c-69.333 0 -129 23 -179 69s-75 104.667 -75 176z" />
    <glyph glyph-name="d" unicode="d" horiz-adv-x="602" 
d="M397 235c0 34 -10.5 61.001 -31.5 81.001s-46.5 30 -76.5 30s-55.5 -10.333 -76.5 -31s-31.5 -47.334 -31.5 -80.001c0 -34 10.5 -61.333 31.5 -82s46.5 -31 76.5 -31s55.5 10.667 76.5 32s31.5 48.333 31.5 81zM538 0.000976562h-138v58
c-11.333 -21.333 -29.5 -38 -54.5 -50s-52.5 -18 -82.5 -18c-62 0 -115.167 22.5 -159.5 67.5s-66.5 103.167 -66.5 174.5c0 72.667 22.167 131.667 66.5 177s97.5 68 159.5 68c30 0 57.5 -6 82.5 -18s43.167 -28.333 54.5 -49v311h138v-721z" />
    <glyph glyph-name="e" unicode="e" horiz-adv-x="550" 
d="M392 154l101 -69c-42.667 -63.333 -113.667 -95 -213 -95c-68.667 0 -126.5 22.833 -173.5 68.5s-70.5 104.5 -70.5 176.5s23.5 130.333 70.5 175s104.833 67 173.5 67c68 0 124.833 -22.833 170.5 -68.5s68.5 -104.834 68.5 -177.501c0 -12.667 -0.666992 -27 -2 -43
h-342c3.33301 -25.333 16.5 -44.666 39.5 -57.999s48.167 -20 75.5 -20c45.333 0 79.333 14.667 102 44zM177 275h202.002c-3.33301 26 -14.833 45.833 -34.5 59.5s-40.834 20.5 -63.501 20.5s-44.334 -6.66699 -65.001 -20s-33.667 -33.333 -39 -60z" />
    <glyph glyph-name="f" unicode="f" horiz-adv-x="367" 
d="M373 721v-132.999h-51c-47.333 0 -71 -29.667 -71 -89v-32h94v-110h-94v-357h-140v357h-88v110h88v32c0 71.333 18.333 126.166 55 164.499s88.667 57.5 156 57.5h51z" />
    <glyph glyph-name="g" unicode="g" horiz-adv-x="608" 
d="M406 235c0 33.333 -11.167 59.999 -33.5 79.999s-48.833 30 -79.5 30s-57 -10.333 -79 -31s-33 -47 -33 -79c0 -34 11 -61.5 33 -82.5s48.333 -31.5 79 -31.5c30 0 56.333 10.833 79 32.5s34 48.834 34 81.501zM162 -33.001c8 -21.333 23.668 -39.167 47.001 -53.5
s47 -21.5 71 -21.5c93.333 0 136.333 55.333 129 166c-10.667 -20.667 -29.167 -37.167 -55.5 -49.5s-54.5 -18.5 -84.5 -18.5c-62.667 0 -117.167 22.667 -163.5 68s-69.5 103.333 -69.5 174c0 72 23.167 130.833 69.5 176.5s100.833 68.5 163.5 68.5
c30 0 58 -6.16699 84 -18.5s44.667 -28.833 56 -49.5v58h135v-402c0 -98.667 -22.833 -173 -68.5 -223s-110.834 -75 -195.501 -75c-51.333 0 -97.5 13.167 -138.5 39.5s-71.5 61.5 -91.5 105.5l56.5 27.5c25.667 12.333 44.167 21.5 55.5 27.5z" />
    <glyph glyph-name="h" unicode="h" horiz-adv-x="579" 
d="M203 247l-0.00195312 -247.001h-139v721h139v-327c8.66699 26.667 26.334 47.167 53.001 61.5s52.667 21.5 78 21.5c60.667 0 107 -19.333 139 -58s48 -93.667 48 -165v-254h-139v249c0 28.667 -8.66699 51.334 -26 68.001s-37.333 25 -60 25
c-25.333 0 -47.166 -7.66699 -65.499 -23s-27.5 -39.333 -27.5 -72z" />
    <glyph glyph-name="i" unicode="i" horiz-adv-x="266" 
d="M202 467v-467h-138v467h138zM46 640c0 22.667 8.5 41.834 25.5 57.501s37.5 23.5 61.5 23.5c23.333 0 43.333 -7.83301 60 -23.5s25 -34.834 25 -57.501s-8.33301 -42 -25 -58s-36.667 -24 -60 -24c-24 0 -44.5 8 -61.5 24s-25.5 35.333 -25.5 58z" />
    <glyph glyph-name="j" unicode="j" horiz-adv-x="268" 
d="M-58 -235l-0.000976562 126h61c42 0 62.333 24.667 61 74v502h140v-499c0 -65.333 -13.667 -115.5 -41 -150.5s-72.666 -52.5 -135.999 -52.5h-85zM46.999 640c0 22.667 8.5 41.834 25.5 57.501s37.5 23.5 61.5 23.5s44.333 -7.83301 61 -23.5s25 -34.834 25 -57.501
s-8.33301 -42 -25 -58s-37 -24 -61 -24s-44.5 8 -61.5 24s-25.5 35.333 -25.5 58z" />
    <glyph glyph-name="k" unicode="k" horiz-adv-x="526" 
d="M202 185v-185h-138v721h138v-382l111 128h177l-194 -206l233 -261h-171z" />
    <glyph glyph-name="l" unicode="l" horiz-adv-x="267" 
d="M64 721h139v-721h-139v721z" />
    <glyph glyph-name="m" unicode="m" horiz-adv-x="854" 
d="M580 342c-24 0 -43.334 -7.83203 -58.001 -23.499s-22 -39.5 -22 -71.5v-247h-139v252c-0.666992 28 -8.33398 50 -23.001 66s-32.667 24 -54 24c-23.333 0 -42.666 -7.5 -57.999 -22.5s-23 -39.167 -23 -72.5v-247h-139v467h139v-68c10.667 24 27.167 42.833 49.5 56.5
s46.5 20.5 72.5 20.5c74 0 124 -27.333 150 -82c34 55.333 80.667 83 140 83c56.667 0 100.834 -18 132.501 -54s47.5 -88.667 47.5 -158v-265h-138v249c0 29.333 -7.33301 52.166 -22 68.499s-33 24.5 -55 24.5z" />
    <glyph glyph-name="n" unicode="n" 
d="M203 247l0.000976562 -247h-139v467h139v-68c12.667 23.333 31.5 42.166 56.5 56.499s51.167 21.5 78.5 21.5c54 0 96 -16.667 126 -50s45 -82.666 45 -147.999v-279h-139v249c0 30 -7.33301 53 -22 69s-34.334 24 -59.001 24c-57.333 0 -86 -31.667 -86 -95z" />
    <glyph glyph-name="o" unicode="o" horiz-adv-x="557" 
d="M278 128c30 0 55.167 9.83301 75.5 29.5s30.5 45.5 30.5 77.5c0 30.667 -10.333 56 -31 76s-45.667 30 -75 30s-54.166 -10 -74.499 -30s-30.5 -45.333 -30.5 -76c0 -32 10.167 -57.833 30.5 -77.5s45.166 -29.5 74.499 -29.5zM278 -8c-68 0 -125.333 22.5 -172 67.5
s-70 103.5 -70 175.5s23.333 130.333 70 175s104 67 172 67s125.5 -22.333 172.5 -67s70.5 -103 70.5 -175s-23.5 -130.5 -70.5 -175.5s-104.5 -67.5 -172.5 -67.5z" />
    <glyph glyph-name="p" unicode="p" horiz-adv-x="602" 
d="M205 232c0 -34 10.5 -61.001 31.5 -81.001s46.5 -30 76.5 -30s55.5 10.333 76.5 31s31.5 47.334 31.5 80.001c0 33.333 -10.5 60.5 -31.5 81.5s-46.5 31.5 -76.5 31.5s-55.5 -10.667 -76.5 -32s-31.5 -48.333 -31.5 -81zM64 466.999h138v-58
c11.333 21.333 29.5 38 54.5 50s52.5 18 82.5 18c62 0 115.167 -22.5 159.5 -67.5s66.5 -103.167 66.5 -174.5c0 -72.667 -22.167 -131.667 -66.5 -177s-97.5 -68 -159.5 -68c-30 0 -57.5 6 -82.5 18s-43.167 28.333 -54.5 49v-286h-138v696z" />
    <glyph glyph-name="q" unicode="q" horiz-adv-x="602" 
d="M399 409l0.000976562 58h139v-696h-139v286c-10.667 -20.667 -28.5 -37 -53.5 -49s-52.833 -18 -83.5 -18c-62 0 -115 22.667 -159 68s-66 104.333 -66 177c0 71.333 22.167 129.5 66.5 174.5s97.166 67.5 158.499 67.5c30 0 57.667 -6 83 -18s43.333 -28.667 54 -50z
M396.001 232c0 32.667 -10.5 59.668 -31.5 81.001s-46.5 32 -76.5 32s-55.333 -10.5 -76 -31.5s-31 -48.167 -31 -81.5c0 -32.667 10.333 -59.334 31 -80.001s46 -31 76 -31s55.5 10 76.5 30s31.5 47 31.5 81z" />
    <glyph glyph-name="r" unicode="r" horiz-adv-x="423" 
d="M203 163l-0.000976562 -163.001h-139v467h139v-113c11.333 40.667 29.5 71.334 54.5 92.001s50.833 31 77.5 31c30.667 0 57.334 -5.66699 80.001 -17l-25 -125c-19.333 9.33301 -43 14 -71 14c-77.333 0 -116 -62 -116 -186z" />
    <glyph glyph-name="s" unicode="s" horiz-adv-x="467" 
d="M246 176l-60.999 15.999c-32.667 8.66699 -59.5 19.5 -80.5 32.5s-35.333 27.333 -43 43s-12.5 28.667 -14.5 39s-2.66699 22.833 -2 37.5c0.666992 34.667 19 65.5 55 92.5s78.333 40.5 127 40.5c52.667 0 97.667 -12.667 135 -38s56.333 -64.333 57 -117h-131
c-0.666992 27.333 -18.334 41 -53.001 41c-15.333 0 -27.5 -3.16699 -36.5 -9.5s-13.167 -14.833 -12.5 -25.5c1.33301 -16.667 15 -28.334 41 -35.001l79 -21c34.667 -9.33301 62.167 -23.666 82.5 -42.999s32.833 -36.166 37.5 -50.499s7 -28.5 7 -42.5
c0 -46.667 -20.167 -82.667 -60.5 -108s-87.5 -38 -141.5 -38c-51.333 0 -96.5 14.5 -135.5 43.5s-58.833 68.167 -59.5 117.5h130c0.666992 -14 7.66699 -26.5 21 -37.5s29.333 -16.5 48 -16.5c16 0.666992 29.5 4.5 40.5 11.5s16.5 16.167 16.5 27.5
c0 10 -3.5 18 -10.5 24s-18.833 11.333 -35.5 16z" />
    <glyph glyph-name="t" unicode="t" horiz-adv-x="365" 
d="M246 467h98v-110h-98v-357h-138v357h-85v110h85v179h138v-179z" />
    <glyph glyph-name="u" unicode="u" 
d="M365 220v246.999h139v-467h-139v64c-12 -22.667 -29.333 -40.667 -52 -54s-45.667 -20 -69 -20c-54.667 0 -99.167 17 -133.5 51s-51.5 83 -51.5 147v279h139v-249c0 -33.333 8.66699 -57.166 26 -71.499s36.333 -21.5 57 -21.5c24 0 44 7.66699 60 23s24 39.333 24 72z
" />
    <glyph glyph-name="v" unicode="v" horiz-adv-x="520" 
d="M200 0l-197 467h148l109 -290l108 290h149l-198 -467h-119z" />
    <glyph glyph-name="w" unicode="w" horiz-adv-x="763" 
d="M753 467l-164 -467h-116l-92 297l-88 -297h-116l-169 467h148l83 -278l82 278h119l82 -278l83 278h148z" />
    <glyph glyph-name="x" unicode="x" horiz-adv-x="530" 
d="M188 253l-154 214h162l70 -103l69 103h161l-154 -214l183 -253h-161l-99 143l-100 -143h-161z" />
    <glyph glyph-name="y" unicode="y" horiz-adv-x="510" 
d="M506 467l-288 -696h-147l112 277l-180 419h148l103 -265l104 265h148z" />
    <glyph glyph-name="z" unicode="z" horiz-adv-x="510" 
d="M55 467h407v-104l-224 -235h224v-128h-421v103l220 236h-206v128z" />
    <glyph glyph-name="braceleft" unicode="{" horiz-adv-x="412" 
d="M31 188v83.999c16 0 30.167 5.33301 42.5 16s18.5 24.667 18.5 42v159c-0.666992 59.333 18.5 107.5 57.5 144.5s87.167 55.5 144.5 55.5h85v-101h-88c-22.667 0 -42 -8.33301 -58 -25s-24 -37 -24 -61v-164c0 -28 -8.33301 -51.667 -25 -71s-34.667 -31.666 -54 -36.999
c19.333 -5.33301 37.333 -17.666 54 -36.999s25 -43 25 -71v-153c0 -24.667 8.16699 -46.334 24.5 -65.001s35.5 -28 57.5 -28h88v-105h-85c-57.333 0 -105.5 18.5 -144.5 55.5s-58.167 85.167 -57.5 144.5v159c0 17.333 -6.16699 31.333 -18.5 42s-26.5 16 -42.5 16z" />
    <glyph glyph-name="bar" unicode="|" horiz-adv-x="219" 
d="M73 802h73v-926h-73v926z" />
    <glyph glyph-name="braceright" unicode="}" horiz-adv-x="412" 
d="M381 272v-83.999c-16 0 -30.167 -5.33301 -42.5 -16s-18.5 -24.667 -18.5 -42v-159c0.666992 -59.333 -18.5 -107.5 -57.5 -144.5s-87.167 -55.5 -144.5 -55.5h-85v105h88c22 0 41.167 9.33301 57.5 28s24.5 40.334 24.5 65.001v153c0 28 8.33301 51.667 25 71
s34.667 31.666 54 36.999c-19.333 5.33301 -37.333 17.666 -54 36.999s-25 43 -25 71v164c0 24 -8 44.333 -24 61s-35.333 25 -58 25h-88v101h85c57.333 0 105.5 -18.5 144.5 -55.5s58.167 -85.167 57.5 -144.5v-159c0 -17.333 6.16699 -31.333 18.5 -42s26.5 -16 42.5 -16z
" />
    <glyph glyph-name="exclamdown" unicode="&#xa1;" horiz-adv-x="267" 
d="M211 -229h-154l20 488h114zM47 393c0 24 8.33301 44 25 60s37 24 61 24s44.5 -8 61.5 -24s25.5 -36 25.5 -60c0 -23.333 -8.5 -43 -25.5 -59s-37.5 -24 -61.5 -24s-44.333 7.83301 -61 23.5s-25 35.5 -25 59.5z" />
    <glyph glyph-name="cent" unicode="&#xa2;" horiz-adv-x="538" 
d="M319 581v-105.001c76.667 -7.33301 135.667 -40 177 -98l-113 -81c-20 31.333 -50 47 -90 47c-30.667 0 -57.667 -10.167 -81 -30.5s-35 -46.5 -35 -78.5c0 -32.667 11.667 -59.5 35 -80.5s50.333 -31.5 81 -31.5c40 0 70 15.667 90 47l113 -80
c-41.333 -58.667 -100.333 -91.667 -177 -99v-115h-73v118c-59.333 10.667 -108.666 37.667 -147.999 81s-59 96.666 -59 159.999c0 62.667 19.667 115.334 59 158.001s88.666 69.334 147.999 80.001v108h73z" />
    <glyph glyph-name="sterling" unicode="&#xa3;" horiz-adv-x="680" 
d="M287 279l-0.00292969 -155h184c8.66699 0 15.834 3.5 21.501 10.5s8.5 15.5 8.5 25.5v29h137v-56c0 -38 -12.167 -69.667 -36.5 -95s-54.166 -38 -89.499 -38h-471v124h106v155h-83v63h83v131c0 67.333 19.833 121.5 59.5 162.5s90.834 61.5 153.501 61.5
c66 0 120.333 -19.5 163 -58.5s64 -96.167 64 -171.5h-145c0 54.667 -26.333 82 -79 82c-23.333 0 -41.833 -6.83301 -55.5 -20.5s-20.5 -32.167 -20.5 -55.5v-131h115v-63h-115z" />
    <glyph glyph-name="currency" unicode="&#xa4;" horiz-adv-x="621" 
d="M227 339c0 -23.333 8.16699 -43 24.5 -59s35.833 -24 58.5 -24c23.333 0 43.166 8 59.499 24s24.5 35.667 24.5 59s-8.16699 43.166 -24.5 59.499s-36.166 24.5 -59.499 24.5s-43 -8.16699 -59 -24.5s-24 -36.166 -24 -59.499zM203 164l-70.999 -72.001l-69 69l71 72
c-19.333 30.667 -29 66 -29 106c0 39.333 10 75 30 107l-72 72l69 69l72 -72c33.333 20 68.666 30 105.999 30c39.333 0 75 -10 107 -30l71 72l69 -69l-72 -73c20.667 -34.667 31 -70 31 -106c0 -39.333 -10 -74.666 -30 -105.999l71 -72l-69 -69l-71 72
c-32 -20 -67.667 -30 -107 -30s-75 10 -107 30z" />
    <glyph glyph-name="yen" unicode="&#xa5;" horiz-adv-x="742" 
d="M712 689l-257 -365h146v-68h-156v-93h156v-68h-156v-95h-149v95h-155v68h155v93h-155v68h146l-257 365h174l166 -258l168 258h174z" />
    <glyph glyph-name="brokenbar" unicode="&#xa6;" horiz-adv-x="221" 
d="M147 420h-73v382h73v-382zM147 260v-384h-73v384h73z" />
    <glyph glyph-name="section" unicode="&#xa7;" horiz-adv-x="541" 
d="M322 228v-122.003c-16.667 -4 -33.334 -6 -50.001 -6c-59.333 0 -109.666 19.333 -150.999 58s-62 89.334 -62 152.001v176c0 62.667 20.667 113.334 62 152.001s91.666 58 150.999 58c49.333 0 94 -14.167 134 -42.5s65.333 -69.166 76 -122.499l-117 -35
c-7.33301 26.667 -19.666 46.167 -36.999 58.5s-36 18.5 -56 18.5c-24.667 0 -45.667 -8 -63 -24s-26 -37 -26 -63v-176c0 -26 8.66699 -46.833 26 -62.5s38.333 -23.5 63 -23.5h6c15.333 0 30 1.33301 44 4zM219 300.997v122.003c16.667 4 33.334 6 50.001 6
c59.333 0 109.666 -19.333 150.999 -58s62 -89.334 62 -152.001v-176c0 -62.667 -20.667 -113.334 -62 -152.001s-91.666 -58 -150.999 -58c-49.333 0 -94 14.167 -134 42.5s-65.333 69.166 -76 122.499l117 35c7.33301 -26.667 19.666 -46.167 36.999 -58.5
s36 -18.5 56 -18.5c24.667 0 45.667 8 63 24s26 37 26 63v176c0 26 -8.66699 46.833 -26 62.5s-38.333 23.5 -63 23.5h-6c-15.333 0 -30 -1.33301 -44 -4z" />
    <glyph glyph-name="dieresis" unicode="&#xa8;" horiz-adv-x="561" 
d="M120 638c0 18.667 7.16699 34.667 21.5 48s31.5 20 51.5 20c19.333 0 36 -6.66699 50 -20s21 -29.333 21 -48c0 -19.333 -7 -35.666 -21 -48.999s-30.667 -20 -50 -20c-20 0 -37.167 6.66699 -51.5 20s-21.5 29.666 -21.5 48.999zM297 638
c0 18.667 7.16699 34.667 21.5 48s31.5 20 51.5 20c19.333 0 36 -6.66699 50 -20s21 -29.333 21 -48c0 -19.333 -7 -35.666 -21 -48.999s-30.667 -20 -50 -20c-20 0 -37.167 6.66699 -51.5 20s-21.5 29.666 -21.5 48.999z" />
    <glyph glyph-name="copyright" unicode="&#xa9;" horiz-adv-x="797" 
d="M545 245l-67 44.999c-22.667 -30.667 -49.667 -46 -81 -46c-26 0 -47.333 9.33301 -64 28s-25 41.334 -25 68.001c0 28 8.33301 51.333 25 70s38 28 64 28c30 0 56.667 -15.333 80 -46l66 46c-35.333 52.667 -84 79 -146 79c-48.667 0 -89.667 -17.167 -123 -51.5
s-50 -76.166 -50 -125.499c0 -48.667 16.667 -90.334 50 -125.001s74.333 -52 123 -52c29.333 0 57.333 7.5 84 22.5s48 34.833 64 59.5zM49 342.999c0 98 33.833 181.5 101.5 250.5s150.167 103.5 247.5 103.5s180 -34.5 248 -103.5s102 -152.5 102 -250.5
s-34 -181.333 -102 -250s-150.667 -103 -248 -103s-179.833 34.333 -247.5 103s-101.5 152 -101.5 250zM127 342.999c0 -76 26.333 -140.667 79 -194s116.667 -80 192 -80s139.333 26.667 192 80s79 118 79 194s-26.333 140.833 -79 194.5s-116.667 80.5 -192 80.5
s-139.333 -26.833 -192 -80.5s-79 -118.5 -79 -194.5z" />
    <glyph glyph-name="ordfeminine" unicode="&#xaa;" horiz-adv-x="468" 
d="M317 323v45c-11.333 -16 -26.5 -28.667 -45.5 -38s-38.167 -14 -57.5 -14c-46.667 0 -86.334 16 -119.001 48s-49 73.667 -49 125s16.333 93 49 125s72.334 48 119.001 48c44 0 78.333 -16.667 103 -50v43h76v-332h-76zM317 490c0 29.333 -10 52.668 -30 70.001
s-42.667 26 -68 26c-27.333 0 -50 -8.83301 -68 -26.5s-27 -40.834 -27 -69.501s9.16699 -52.167 27.5 -70.5s40.833 -27.5 67.5 -27.5c27.333 0 50.5 8.83301 69.5 26.5s28.5 41.5 28.5 71.5zM77 212.002v53h315v-53h-315z" />
    <glyph glyph-name="guillemotleft" unicode="&#xab;" horiz-adv-x="505" 
d="M39 233l138 207h108l-138 -207l138 -207h-108zM216 233l138 207h108l-138 -207l138 -207h-108z" />
    <glyph glyph-name="logicalnot" unicode="&#xac;" horiz-adv-x="628" 
d="M68 373h486v-269h-121v149h-365v120z" />
    <glyph glyph-name="registered" unicode="&#xae;" horiz-adv-x="797" 
d="M360 438l56.002 0.00195312c9.33301 0 17.166 -4.33301 23.499 -13s9.5 -17.334 9.5 -26.001c0 -10.667 -3.33301 -20.334 -10 -29.001s-15.334 -13 -26.001 -13h-53v81zM541.002 174.002l-84.002 113.001c24.667 8 43.834 22.167 57.501 42.5s20.5 43.5 20.5 69.5
c0 31.333 -10.167 58.166 -30.5 80.499s-49.166 33.5 -86.499 33.5h-142v-339h84v109h7l73 -109h101zM49 343.003c0 98 33.833 181.5 101.5 250.5s150.167 103.5 247.5 103.5s180 -34.5 248 -103.5s102 -152.5 102 -250.5s-34 -181.333 -102 -250s-150.667 -103 -248 -103
s-179.833 34.333 -247.5 103s-101.5 152 -101.5 250zM127 343.003c0 -76 26.333 -140.667 79 -194s116.667 -80 192 -80s139.333 26.667 192 80s79 118 79 194s-26.333 140.833 -79 194.5s-116.667 80.5 -192 80.5s-139.333 -26.833 -192 -80.5s-79 -118.5 -79 -194.5z" />
    <glyph glyph-name="macron" unicode="&#xaf;" horiz-adv-x="518" 
d="M120 587v85h278v-85h-278z" />
    <glyph glyph-name="degree" unicode="&#xb0;" horiz-adv-x="376" 
d="M44 529c0 39.333 14 73.166 42 101.499s61.667 42.5 101 42.5c40 0 74.167 -14.167 102.5 -42.5s42.5 -62.166 42.5 -101.499c0 -40 -14.167 -74.167 -42.5 -102.5s-62.5 -42.5 -102.5 -42.5c-39.333 0 -73 14.167 -101 42.5s-42 62.5 -42 102.5zM116 529
c0 -20.667 7 -38 21 -52s30.667 -21 50 -21c20.667 0 38 7 52 21s21 31.333 21 52c0 20 -7 37 -21 51s-31.333 21 -52 21c-19.333 0 -36 -7 -50 -21s-21 -31 -21 -51z" />
    <glyph glyph-name="plusminus" unicode="&#xb1;" horiz-adv-x="547" 
d="M324 292v-143h-102v143h-154v102h154v141h102v-141h155v-102h-155zM479 -1h-411v102h411v-102z" />
    <glyph glyph-name="twosuperior" unicode="&#xb2;" horiz-adv-x="317" 
d="M29 477l156.001 185c13.333 15.333 20 30 20 44c0 10.667 -4.33301 19.667 -13 27s-20.334 11 -35.001 11c-14 0 -26 -4.83301 -36 -14.5s-16 -22.5 -18 -38.5l-74 13c6 36 20.667 64.5 44 85.5s53 31.5 89 31.5c34 0 63.167 -10.833 87.5 -32.5s36.5 -49.167 36.5 -82.5
c0 -34 -13.333 -66 -40 -96l-88 -100h118v-76h-247v43z" />
    <glyph glyph-name="threesuperior" unicode="&#xb3;" horiz-adv-x="317" 
d="M104 725l-64.0029 39.998c11.333 18 27.5 32.167 48.5 42.5s44.167 14.833 69.5 13.5c32.667 -2 59.834 -13.333 81.501 -34s31.834 -44.667 30.501 -72c0 -32 -16.333 -57 -49 -75c20.667 -7.33301 37.167 -21.166 49.5 -41.499s17.5 -40.833 15.5 -61.5
c-2.66699 -32.667 -18.667 -59.5 -48 -80.5s-63 -30.167 -101 -27.5c-26 2 -50 10.333 -72 25s-38.333 33 -49 55l70 35c12 -21.333 31 -33.666 57 -36.999c14 -0.666992 26.333 3.16602 37 11.499s16.667 17.833 18 28.5c0 14.667 -1 24.334 -3 29.001
c-7.33301 16 -23.666 23.667 -48.999 23h-40v69h40c25.333 0 38 14 38 42c0 8.66699 -3.5 17 -10.5 25s-16.5 12 -28.5 12c-17.333 0 -31 -7.33301 -41 -22z" />
    <glyph glyph-name="acute" unicode="&#xb4;" horiz-adv-x="554" 
d="M239 707h138l-148 -168h-100z" />
    <glyph glyph-name="mu" unicode="&#xb5;" horiz-adv-x="574" 
d="M72 -191v657.999h139v-249c0 -33.333 8.66699 -57.166 26 -71.499s36.333 -21.5 57 -21.5c24 0 44 7.66699 60 23s24 39.333 24 72v247h139v-467h-139v64c-12 -22.667 -29.333 -40.667 -52 -54s-45.667 -20 -69 -20c-26.667 0 -50.667 9 -72 27l14 -132v-76h-127z" />
    <glyph glyph-name="paragraph" unicode="&#xb6;" horiz-adv-x="713" 
d="M343 689l-0.000976562 -703c0 -16 -8 -24 -24 -24h-79v293c-57.333 3.33301 -106.166 26 -146.499 68s-60.5 91.667 -60.5 149c0 60 21 111.167 63 153.5s93.333 63.5 154 63.5h93zM538.999 588l-33.999 0.000976562v-637c0 -34.667 -14 -66.167 -42 -94.5
s-59.667 -42.5 -95 -42.5h-129v91h121c13.333 0 24.166 4.5 32.499 13.5s12.5 19.833 12.5 32.5v738h136c38 0 70.333 -13.667 97 -41s40 -59.333 40 -96v-85h-93v76c0 13.333 -4.5 24.166 -13.5 32.499s-19.833 12.5 -32.5 12.5z" />
    <glyph glyph-name="periodcentered" unicode="&#xb7;" horiz-adv-x="281" 
d="M54 347c0 24 8.33301 43.833 25 59.5s37 23.5 61 23.5s44.5 -8 61.5 -24s25.5 -35.667 25.5 -59c0 -24 -8.5 -44 -25.5 -60s-37.5 -24 -61.5 -24s-44.333 8 -61 24s-25 36 -25 60z" />
    <glyph glyph-name="cedilla" unicode="&#xb8;" horiz-adv-x="531" 
d="M239 -124c6.66699 -17.333 19.667 -23.666 39 -18.999c18 8 23 22 15 42l-47 128h65l50 -93c6.66699 -10.667 10 -27 10 -49c0 -28 -10.5 -52.167 -31.5 -72.5s-46.167 -30.5 -75.5 -30.5c-20 0 -38.667 5.83301 -56 17.5s-30.333 27.5 -39 47.5
c-6 14 -8.66699 33.667 -8 59l77 -4c-1.33301 -8.66699 -1 -17.334 1 -26.001z" />
    <glyph glyph-name="onesuperior" unicode="&#xb9;" horiz-adv-x="215" 
d="M86 707l-65 -27v70l145 69v-385h-80v273z" />
    <glyph glyph-name="ordmasculine" unicode="&#xba;" horiz-adv-x="454" 
d="M223 316c-48 0 -88.833 16.167 -122.5 48.5s-50.5 74.5 -50.5 126.5c0 50.667 16.667 91.834 50 123.501s74.333 47.5 123 47.5s89.834 -15.833 123.501 -47.5s50.5 -72.834 50.5 -123.501c0 -52 -16.833 -94.167 -50.5 -126.5s-74.834 -48.5 -123.501 -48.5zM223 392
c27.333 0 50.333 9.16699 69 27.5s28 42.166 28 71.499c0 28 -9.33301 50.833 -28 68.5s-41.667 26.5 -69 26.5s-50.333 -8.83301 -69 -26.5s-28 -40.5 -28 -68.5c0 -29.333 9.33301 -53.166 28 -71.499s41.667 -27.5 69 -27.5zM72 212v53h315v-53h-315z" />
    <glyph glyph-name="guillemotright" unicode="&#xbb;" horiz-adv-x="505" 
d="M466 233l-138 -207h-108l138 207l-138 207h108zM289 233l-138 -207h-108l138 207l-138 207h108z" />
    <glyph glyph-name="onequarter" unicode="&#xbc;" horiz-adv-x="783" 
d="M104 548l-65 -27v70l145 69v-385h-80v273zM698 85v-85h-81v85h-182l179 295h84v-227h48v-68h-48zM545 153h72v119zM627 668l-451 -678h-83l452 678h82z" />
    <glyph glyph-name="onehalf" unicode="&#xbd;" horiz-adv-x="791" 
d="M104 548l-65 -27v70l145 69v-385h-80v273zM493 43l156.001 185c13.333 15.333 20 30 20 44c0 10.667 -4.33301 19.667 -13 27s-20.334 11 -35.001 11c-14 0 -26 -4.83301 -36 -14.5s-16 -22.5 -18 -38.5l-74 13c6 36 20.667 64.5 44 85.5s53 31.5 89 31.5
c34 0 63.167 -10.833 87.5 -32.5s36.5 -49.167 36.5 -82.5c0 -34 -13.333 -66 -40 -96l-88 -100h118v-76h-247v43zM621.001 668l-451 -678h-83l452 678h82z" />
    <glyph glyph-name="threequarters" unicode="&#xbe;" horiz-adv-x="830" 
d="M744 85v-85h-81v85h-182l179 295h84v-227h48v-68h-48zM591 153h72v119zM124 566l-64.0029 39.998c11.333 18 27.5 32.167 48.5 42.5s44.167 14.833 69.5 13.5c32.667 -2 59.834 -13.333 81.501 -34s31.834 -44.667 30.501 -72c0 -32 -16.333 -57 -49 -75
c20.667 -7.33301 37.167 -21.166 49.5 -41.499s17.5 -40.833 15.5 -61.5c-2.66699 -32.667 -18.667 -59.5 -48 -80.5s-63 -30.167 -101 -27.5c-26 2 -50 10.333 -72 25s-38.333 33 -49 55l70 35c12 -21.333 31 -33.666 57 -36.999c14 -0.666992 26.333 3.16602 37 11.499
s16.667 17.833 18 28.5c0 14.667 -1 24.334 -3 29.001c-7.33301 16 -23.666 23.667 -48.999 23h-40v69h40c25.333 0 38 14 38 42c0 8.66699 -3.5 17 -10.5 25s-16.5 12 -28.5 12c-17.333 0 -31 -7.33301 -41 -22zM690.997 667.998l-451 -678h-83l452 678h82z" />
    <glyph glyph-name="questiondown" unicode="&#xbf;" horiz-adv-x="487" 
d="M218 237l2.00293 21.999h136l2 -22c0 -26 -0.333008 -45.5 -1 -58.5s-2.83398 -27.833 -6.50098 -44.5s-9.33398 -29.667 -17.001 -39s-18.334 -19.166 -32.001 -29.499s-31.167 -20.166 -52.5 -29.499l-40 -17c-16 -8.66699 -26.167 -16.834 -30.5 -24.501
s-6.5 -17.834 -6.5 -30.501c0 -15.333 6.66699 -28.166 20 -38.499s30.333 -15.5 51 -15.5c21.333 0 38.5 6.33301 51.5 19s19.5 29.334 19.5 50.001h140c0 -63.333 -19.333 -114 -58 -152s-89.667 -57 -153 -57s-114.333 17.667 -153 53s-58 82.666 -58 141.999
c0 47.333 12.333 87.5 37 120.5s57 55.833 97 68.5c20 6 33.667 15.167 41 27.5s11 30.833 11 55.5zM372.003 392.999c0 -24 -8.33301 -43.833 -25 -59.5s-37 -23.5 -61 -23.5s-44.5 8 -61.5 24s-25.5 35.667 -25.5 59c0 24 8.5 44 25.5 60s37.5 24 61.5 24
s44.333 -8 61 -24s25 -36 25 -60z" />
    <glyph glyph-name="Agrave" unicode="&#xc0;" horiz-adv-x="659" 
d="M259 290h143l-73 240zM449 163h-238l-61 -163h-156l256 689h159l255 -689h-154zM155 929h138l110 -168h-100z" />
    <glyph glyph-name="Aacute" unicode="&#xc1;" horiz-adv-x="659" 
d="M259 290h143l-73 240zM449 163h-238l-61 -163h-156l256 689h159l255 -689h-154zM371 929h138l-148 -168h-100z" />
    <glyph glyph-name="Acircumflex" unicode="&#xc2;" horiz-adv-x="659" 
d="M259 290h143l-73 240zM449 163h-238l-61 -163h-156l256 689h159l255 -689h-154zM259 933h138l110 -168h-100l-79 89l-78 -89h-100z" />
    <glyph glyph-name="Atilde" unicode="&#xc3;" horiz-adv-x="659" 
d="M259 290h143l-73 240zM449 163h-238l-61 -163h-156l256 689h159l255 -689h-154zM285 828c-5.33301 0 -10.833 -3.66699 -16.5 -11s-8.83398 -18 -9.50098 -32h-75c2 44.667 13.167 77.5 33.5 98.5s42.833 31.5 67.5 31.5c15.333 0 32 -6.83301 50 -20.5
s30.333 -20.5 37 -20.5c5.33301 0 10.833 3.33301 16.5 10s8.83398 17 9.50098 31h75c-2 -44 -13.167 -76.333 -33.5 -97s-42.833 -31 -67.5 -31c-14 0 -30.5 6.83301 -49.5 20.5s-31.5 20.5 -37.5 20.5z" />
    <glyph glyph-name="Adieresis" unicode="&#xc4;" horiz-adv-x="659" 
d="M259 290h143l-73 240zM449 163h-238l-61 -163h-156l256 689h159l255 -689h-154zM156 860c0 18.667 7.16699 34.667 21.5 48s31.5 20 51.5 20c19.333 0 36 -6.66699 50 -20s21 -29.333 21 -48c0 -19.333 -7 -35.666 -21 -48.999s-30.667 -20 -50 -20
c-20 0 -37.167 6.66699 -51.5 20s-21.5 29.666 -21.5 48.999zM333 860c0 18.667 7.16699 34.667 21.5 48s31.5 20 51.5 20c19.333 0 36 -6.66699 50 -20s21 -29.333 21 -48c0 -19.333 -7 -35.666 -21 -48.999s-30.667 -20 -50 -20c-20 0 -37.167 6.66699 -51.5 20
s-21.5 29.666 -21.5 48.999z" />
    <glyph glyph-name="Aring" unicode="&#xc5;" horiz-adv-x="659" 
d="M259 290h143l-73 240zM449 163h-238l-61 -163h-156l256 689h159l255 -689h-154zM208 881c0 34.667 11.667 63.834 35 87.501s51.666 35.5 84.999 35.5c34 0 62.833 -11.833 86.5 -35.5s35.5 -52.834 35.5 -87.501c0 -33.333 -11.833 -61.666 -35.5 -84.999
s-52.5 -35 -86.5 -35c-33.333 0 -61.666 11.667 -84.999 35s-35 51.666 -35 84.999zM273 881c0 -15.333 5.33301 -28.333 16 -39s23.667 -16 39 -16c16 0 29.5 5.33301 40.5 16s16.5 23.667 16.5 39c0 16.667 -5.5 30.5 -16.5 41.5s-24.5 16.5 -40.5 16.5
c-15.333 0 -28.333 -5.5 -39 -16.5s-16 -24.833 -16 -41.5z" />
    <glyph glyph-name="AE" unicode="&#xc6;" horiz-adv-x="934" 
d="M414 689h461v-129h-290v-157h254v-127h-254v-147h299v-129h-445v1l-1 -1v158h-184l-100 -158h-175zM438 493l-101 -194h101v194z" />
    <glyph glyph-name="Ccedilla" unicode="&#xc7;" horiz-adv-x="701" 
d="M331 -124c6.66699 -17.333 19.666 -23.666 38.999 -18.999c18 8 23 22 15 42l-34 93c-89.333 8.66699 -163.166 46.5 -221.499 113.5s-87.5 146.167 -87.5 237.5c0 98.667 33.167 182.334 99.5 251.001s148.5 103 246.5 103c60 0 115.167 -13.167 165.5 -39.5
s90.833 -61.833 121.5 -106.5l-119 -82c-41.333 60 -97.333 90 -168 90c-56.667 0 -104 -20.833 -142 -62.5s-57 -92.834 -57 -153.501c0 -60 19 -110.833 57 -152.5s85.333 -62.5 142 -62.5c35.333 0 68 8.66699 98 26s54.667 40.333 74 69l118 -82
c-28 -42 -64.167 -76.167 -108.5 -102.5s-93.5 -41.833 -147.5 -46.5l31 -58c6.66699 -12.667 10 -29 10 -49c0 -28 -10.5 -52.167 -31.5 -72.5s-46.167 -30.5 -75.5 -30.5c-20 0 -38.667 5.83301 -56 17.5s-30.333 27.5 -39 47.5c-6 14 -8.66699 33.667 -8 59l77 -4
c-1.33301 -8.66699 -1 -17.334 1 -26.001z" />
    <glyph glyph-name="Egrave" unicode="&#xc8;" horiz-adv-x="576" 
d="M81 0v689h436v-129h-290v-157h254v-127h-254v-147h299v-129h-445zM134 929h138l110 -168h-100z" />
    <glyph glyph-name="Eacute" unicode="&#xc9;" horiz-adv-x="576" 
d="M81 689v-689h445v129h-299v147h254v127h-254v157h290v129h-436zM323 929h138l-148 -168h-100z" />
    <glyph glyph-name="Ecircumflex" unicode="&#xca;" horiz-adv-x="576" 
d="M81 0v689h436v-129h-290v-157h254v-127h-254v-147h299v-129h-445zM214 933h138l110 -168h-100l-79 89l-78 -89h-100z" />
    <glyph glyph-name="Edieresis" unicode="&#xcb;" horiz-adv-x="576" 
d="M81 689v-689h445v129h-299v147h254v127h-254v157h290v129h-436zM123 860c0 18.667 7.16699 34.667 21.5 48s31.5 20 51.5 20c19.333 0 36 -6.66699 50 -20s21 -29.333 21 -48c0 -19.333 -7 -35.666 -21 -48.999s-30.667 -20 -50 -20c-20 0 -37.167 6.66699 -51.5 20
s-21.5 29.666 -21.5 48.999zM300 860c0 18.667 7.16699 34.667 21.5 48s31.5 20 51.5 20c19.333 0 36 -6.66699 50 -20s21 -29.333 21 -48c0 -19.333 -7 -35.666 -21 -48.999s-30.667 -20 -50 -20c-20 0 -37.167 6.66699 -51.5 20s-21.5 29.666 -21.5 48.999z" />
    <glyph glyph-name="Igrave" unicode="&#xcc;" horiz-adv-x="308" 
d="M81 689h146v-689h-146v689zM-22 929h138l110 -168h-100z" />
    <glyph glyph-name="Iacute" unicode="&#xcd;" horiz-adv-x="308" 
d="M81 689h146v-689h-146v689zM190 929h138l-148 -168h-100z" />
    <glyph glyph-name="Icircumflex" unicode="&#xce;" horiz-adv-x="308" 
d="M81 689h146v-689h-146v689zM85 933h138l110 -168h-100l-79 89l-78 -89h-100z" />
    <glyph glyph-name="Idieresis" unicode="&#xcf;" horiz-adv-x="308" 
d="M81 689h146v-689h-146v689zM-6 860c0 18.667 7.16699 34.667 21.5 48s31.5 20 51.5 20c19.333 0 36 -6.66699 50 -20s21 -29.333 21 -48c0 -19.333 -7 -35.666 -21 -48.999s-30.667 -20 -50 -20c-20 0 -37.167 6.66699 -51.5 20s-21.5 29.666 -21.5 48.999zM171 860
c0 18.667 7.16699 34.667 21.5 48s31.5 20 51.5 20c19.333 0 36 -6.66699 50 -20s21 -29.333 21 -48c0 -19.333 -7 -35.666 -21 -48.999s-30.667 -20 -50 -20c-20 0 -37.167 6.66699 -51.5 20s-21.5 29.666 -21.5 48.999z" />
    <glyph glyph-name="Eth" unicode="&#xd0;" horiz-adv-x="722" 
d="M2 284v98h94v307h270c96.667 0 172.667 -32.5 228 -97.5s83 -147.833 83 -248.5s-27.667 -183 -83 -247s-131.333 -96 -228 -96h-270v284h-94zM242 284v-151.001h124c52.667 0 93.334 20 122.001 60s43 90 43 150c0 60.667 -14.333 111.334 -43 152.001
s-69.334 61 -122.001 61h-124v-174h123v-98h-123z" />
    <glyph glyph-name="Ntilde" unicode="&#xd1;" horiz-adv-x="679" 
d="M296 828c-5.33301 0 -10.832 -3.66699 -16.499 -11s-8.83398 -18 -9.50098 -32h-75c2 44.667 13.167 77.5 33.5 98.5s42.833 31.5 67.5 31.5c15.333 0 32 -6.83301 50 -20.5s30.333 -20.5 37 -20.5c5.33301 0 10.833 3.33301 16.5 10s8.83398 17 9.50098 31h75
c-2 -44 -13.167 -76.333 -33.5 -97s-42.833 -31 -67.5 -31c-14 0 -30.333 6.83301 -49 20.5s-31.334 20.5 -38.001 20.5zM598.001 689v-689h-131l-240 417v-417h-146v689h134l236 -412v412h147z" />
    <glyph glyph-name="Ograve" unicode="&#xd2;" horiz-adv-x="781" 
d="M187 343c0 -58 19.667 -107.167 59 -147.5s87.333 -60.5 144 -60.5s104.834 20.333 144.501 61s59.5 89.667 59.5 147c0 58 -19.833 107.333 -59.5 148s-87.834 61 -144.501 61s-104.667 -20.333 -144 -61s-59 -90 -59 -148zM41 343c0 98 33.833 181.5 101.5 250.5
s150.167 103.5 247.5 103.5c98 0 180.833 -34.5 248.5 -103.5s101.5 -152.5 101.5 -250.5c0 -97.333 -34 -180.5 -102 -249.5s-150.667 -103.5 -248 -103.5s-179.833 34.5 -247.5 103.5s-101.5 152.167 -101.5 249.5zM213 929h138l110 -168h-100z" />
    <glyph glyph-name="Oacute" unicode="&#xd3;" horiz-adv-x="781" 
d="M187 343c0 58 19.667 107.333 59 148s87.333 61 144 61s104.834 -20.333 144.501 -61s59.5 -90 59.5 -148c0 -57.333 -19.833 -106.333 -59.5 -147s-87.834 -61 -144.501 -61s-104.667 20.167 -144 60.5s-59 89.5 -59 147.5zM41 343
c0 -97.333 33.833 -180.5 101.5 -249.5s150.167 -103.5 247.5 -103.5s180 34.5 248 103.5s102 152.167 102 249.5c0 98 -33.833 181.5 -101.5 250.5s-150.5 103.5 -248.5 103.5c-97.333 0 -179.833 -34.5 -247.5 -103.5s-101.5 -152.5 -101.5 -250.5zM435 929h138l-148 -168
h-100z" />
    <glyph glyph-name="Ocircumflex" unicode="&#xd4;" horiz-adv-x="781" 
d="M187 343c0 -58 19.667 -107.167 59 -147.5s87.333 -60.5 144 -60.5s104.834 20.333 144.501 61s59.5 89.667 59.5 147c0 58 -19.833 107.333 -59.5 148s-87.834 61 -144.501 61s-104.667 -20.333 -144 -61s-59 -90 -59 -148zM41 343c0 98 33.833 181.5 101.5 250.5
s150.167 103.5 247.5 103.5c98 0 180.833 -34.5 248.5 -103.5s101.5 -152.5 101.5 -250.5c0 -97.333 -34 -180.5 -102 -249.5s-150.667 -103.5 -248 -103.5s-179.833 34.5 -247.5 103.5s-101.5 152.167 -101.5 249.5zM321 933h138l110 -168h-100l-79 89l-78 -89h-100z" />
    <glyph glyph-name="Otilde" unicode="&#xd5;" horiz-adv-x="781" 
d="M187 343c0 -58 19.667 -107.167 59 -147.5s87.333 -60.5 144 -60.5s104.834 20.333 144.501 61s59.5 89.667 59.5 147c0 58 -19.833 107.333 -59.5 148s-87.834 61 -144.501 61s-104.667 -20.333 -144 -61s-59 -90 -59 -148zM41 343c0 98 33.833 181.5 101.5 250.5
s150.167 103.5 247.5 103.5c98 0 180.833 -34.5 248.5 -103.5s101.5 -152.5 101.5 -250.5c0 -97.333 -34 -180.5 -102 -249.5s-150.667 -103.5 -248 -103.5s-179.833 34.5 -247.5 103.5s-101.5 152.167 -101.5 249.5zM347 828c-5.33301 0 -10.832 -3.66699 -16.499 -11
s-8.83398 -18 -9.50098 -32h-75c2 44.667 13.167 77.5 33.5 98.5s42.833 31.5 67.5 31.5c15.333 0 32 -6.83301 50 -20.5s30.333 -20.5 37 -20.5c5.33301 0 10.833 3.33301 16.5 10s8.83398 17 9.50098 31h75c-2 -44 -13.167 -76.333 -33.5 -97s-42.833 -31 -67.5 -31
c-14.667 0 -31.334 6.83301 -50.001 20.5s-31 20.5 -37 20.5z" />
    <glyph glyph-name="Odieresis" unicode="&#xd6;" horiz-adv-x="781" 
d="M187 343c0 58 19.667 107.333 59 148s87.333 61 144 61s104.834 -20.333 144.501 -61s59.5 -90 59.5 -148c0 -57.333 -19.833 -106.333 -59.5 -147s-87.834 -61 -144.501 -61s-104.667 20.167 -144 60.5s-59 89.5 -59 147.5zM41 343
c0 -97.333 33.833 -180.5 101.5 -249.5s150.167 -103.5 247.5 -103.5s180 34.5 248 103.5s102 152.167 102 249.5c0 98 -33.833 181.5 -101.5 250.5s-150.5 103.5 -248.5 103.5c-97.333 0 -179.833 -34.5 -247.5 -103.5s-101.5 -152.5 -101.5 -250.5zM230 860
c0 18.667 7.16699 34.667 21.5 48s31.5 20 51.5 20c19.333 0 36 -6.66699 50 -20s21 -29.333 21 -48c0 -19.333 -7 -35.666 -21 -48.999s-30.667 -20 -50 -20c-20 0 -37.167 6.66699 -51.5 20s-21.5 29.666 -21.5 48.999zM407 860c0 18.667 7.16699 34.667 21.5 48
s31.5 20 51.5 20c19.333 0 36 -6.66699 50 -20s21 -29.333 21 -48c0 -19.333 -7 -35.666 -21 -48.999s-30.667 -20 -50 -20c-20 0 -37.167 6.66699 -51.5 20s-21.5 29.666 -21.5 48.999z" />
    <glyph glyph-name="multiply" unicode="&#xd7;" horiz-adv-x="491" 
d="M316 259l117 -116l-72 -73l-117 117l-115 -114l-72 72l115 114l-116 116l72 72l116 -116l117 117l72 -72z" />
    <glyph glyph-name="Oslash" unicode="&#xd8;" horiz-adv-x="779" 
d="M171 67l-0.999023 -1l-80 -82l-47 47l80 82c-55.333 66 -83 142.667 -83 230c0 98 33.833 181.5 101.5 250.5s150.167 103.5 247.5 103.5c85.333 0 159.666 -27 222.999 -81l79 81l47 -46l-80 -82c54 -66 81 -141.333 81 -226c0 -97.333 -34 -180.5 -102 -249.5
s-150.667 -103.5 -248 -103.5c-82 0 -154.667 25.667 -218 77zM186.001 343c0 -46.667 13 -88.333 39 -125l285 293c-34.667 27.333 -75 41 -121 41c-56.667 0 -104.667 -20.333 -144 -61s-59 -90 -59 -148zM389.001 135.001c56.667 0 104.833 20.333 144.5 61
s59.5 89.667 59.5 147c0 44 -12.667 84 -38 120l-283 -291c34 -24.667 73 -37 117 -37z" />
    <glyph glyph-name="Ugrave" unicode="&#xd9;" horiz-adv-x="682" 
d="M342 128c32 0 59.833 11.167 83.5 33.5s35.5 50.5 35.5 84.5v443h147v-443c0 -76 -26 -137.667 -78 -185s-114.667 -71 -188 -71s-136.333 23.667 -189 71s-79 109 -79 185v443h149v-443c0 -34.667 11.833 -63 35.5 -85s51.5 -33 83.5 -33zM172 929h138l110 -168h-100z
" />
    <glyph glyph-name="Uacute" unicode="&#xda;" horiz-adv-x="682" 
d="M342 128c32 0 59.833 11.167 83.5 33.5s35.5 50.5 35.5 84.5v443h147v-443c0 -76 -26 -137.667 -78 -185s-114.667 -71 -188 -71s-136.333 23.667 -189 71s-79 109 -79 185v443h149v-443c0 -34.667 11.833 -63 35.5 -85s51.5 -33 83.5 -33zM371 929h138l-148 -168h-100z
" />
    <glyph glyph-name="Ucircumflex" unicode="&#xdb;" horiz-adv-x="682" 
d="M342 128c32 0 59.833 11.167 83.5 33.5s35.5 50.5 35.5 84.5v443h147v-443c0 -76 -26 -137.667 -78 -185s-114.667 -71 -188 -71s-136.333 23.667 -189 71s-79 109 -79 185v443h149v-443c0 -34.667 11.833 -63 35.5 -85s51.5 -33 83.5 -33zM271 933h138l110 -168h-100
l-79 89l-78 -89h-100z" />
    <glyph glyph-name="Udieresis" unicode="&#xdc;" horiz-adv-x="682" 
d="M342 128c32 0 59.833 11.167 83.5 33.5s35.5 50.5 35.5 84.5v443h147v-443c0 -76 -26 -137.667 -78 -185s-114.667 -71 -188 -71s-136.333 23.667 -189 71s-79 109 -79 185v443h149v-443c0 -34.667 11.833 -63 35.5 -85s51.5 -33 83.5 -33zM180 860
c0 18.667 7.16699 34.667 21.5 48s31.5 20 51.5 20c19.333 0 36 -6.66699 50 -20s21 -29.333 21 -48c0 -19.333 -7 -35.666 -21 -48.999s-30.667 -20 -50 -20c-20 0 -37.167 6.66699 -51.5 20s-21.5 29.666 -21.5 48.999zM357 860c0 18.667 7.16699 34.667 21.5 48
s31.5 20 51.5 20c19.333 0 36 -6.66699 50 -20s21 -29.333 21 -48c0 -19.333 -7 -35.666 -21 -48.999s-30.667 -20 -50 -20c-20 0 -37.167 6.66699 -51.5 20s-21.5 29.666 -21.5 48.999z" />
    <glyph glyph-name="Yacute" unicode="&#xdd;" horiz-adv-x="651" 
d="M400 0h-149v312l-266 377h174l166 -258l168 258h174l-267 -379v-310zM360 929h138l-148 -168h-100z" />
    <glyph glyph-name="Thorn" unicode="&#xde;" horiz-adv-x="572" 
d="M402 349c0 31.333 -8.5 56.5 -25.5 75.5s-36.833 28.5 -59.5 28.5h-90v-203h90c22.667 0 42.5 9 59.5 27s25.5 42 25.5 72zM324 126h-97v-126h-146v689h146v-112h97c63.333 0 116.333 -20.5 159 -61.5s64 -95.167 64 -162.5s-21.333 -122 -64 -164s-95.667 -63 -159 -63z
" />
    <glyph glyph-name="germandbls" unicode="&#xdf;" horiz-adv-x="566" 
d="M231 1l27.002 131.001c16 -2.66699 31.667 -4 47 -4c28 0 50.5 10 67.5 30s25.5 43.333 25.5 70c0 23.333 -7.83301 45.666 -23.5 66.999s-41.167 32 -76.5 32h-27v121h17c16.667 0 29.5 5.83301 38.5 17.5s13.5 26.5 13.5 44.5s-6.33301 32.333 -19 43s-30 16 -52 16
c-18 0 -33.667 -6.16699 -47 -18.5s-20 -28.833 -20 -49.5v-501h-138v490c0 64.667 18.833 115.334 56.5 152.001s86.167 55 145.5 55c62 0 112.333 -16 151 -48s58 -71.333 58 -118c0 -56 -21 -97.333 -63 -124c35.333 -17.333 63.666 -42 84.999 -74s32 -70.333 32 -115
c0 -66.667 -19.167 -121.334 -57.5 -164.001s-93.833 -64 -166.5 -64c-24.667 0 -49.334 3.66699 -74.001 11z" />
    <glyph glyph-name="agrave" unicode="&#xe0;" horiz-adv-x="612" 
d="M410 0v53c-13.333 -20 -33.833 -35.333 -61.5 -46s-52.5 -16 -74.5 -16c-62.667 0 -118 22.5 -166 67.5s-72 103.5 -72 175.5s24 130.5 72 175.5s103.333 67.5 166 67.5c22 0 46.167 -4.66699 72.5 -14s47.5 -25.333 63.5 -48v52h138v-467h-138zM180 234
c0 -32 11.833 -58.498 35.5 -79.498s50.834 -31.5 81.501 -31.5c30 0 56.333 10.167 79 30.5s34 47.166 34 80.499s-11.333 60.166 -34 80.499s-49 30.5 -79 30.5c-30.667 0 -57.834 -10.5 -81.501 -31.5s-35.5 -47.5 -35.5 -79.5zM135 707.002h138l110 -168h-100z" />
    <glyph glyph-name="aacute" unicode="&#xe1;" horiz-adv-x="612" 
d="M410 0v53c-13.333 -20 -33.833 -35.333 -61.5 -46s-52.5 -16 -74.5 -16c-62.667 0 -118 22.5 -166 67.5s-72 103.5 -72 175.5s24 130.5 72 175.5s103.333 67.5 166 67.5c22 0 46.167 -4.66699 72.5 -14s47.5 -25.333 63.5 -48v52h138v-467h-138zM180 234
c0 -32 11.833 -58.498 35.5 -79.498s50.834 -31.5 81.501 -31.5c30 0 56.333 10.167 79 30.5s34 47.166 34 80.499s-11.333 60.166 -34 80.499s-49 30.5 -79 30.5c-30.667 0 -57.834 -10.5 -81.501 -31.5s-35.5 -47.5 -35.5 -79.5zM321 707.002h138l-148 -168h-100z" />
    <glyph glyph-name="acircumflex" unicode="&#xe2;" horiz-adv-x="612" 
d="M410 0v53c-13.333 -20 -33.833 -35.333 -61.5 -46s-52.5 -16 -74.5 -16c-62.667 0 -118 22.5 -166 67.5s-72 103.5 -72 175.5s24 130.5 72 175.5s103.333 67.5 166 67.5c22 0 46.167 -4.66699 72.5 -14s47.5 -25.333 63.5 -48v52h138v-467h-138zM180 234
c0 -32 11.833 -58.498 35.5 -79.498s50.834 -31.5 81.501 -31.5c30 0 56.333 10.167 79 30.5s34 47.166 34 80.499s-11.333 60.166 -34 80.499s-49 30.5 -79 30.5c-30.667 0 -57.834 -10.5 -81.501 -31.5s-35.5 -47.5 -35.5 -79.5zM237 711.002h138l110 -168h-100l-79 89
l-78 -89h-100z" />
    <glyph glyph-name="atilde" unicode="&#xe3;" horiz-adv-x="612" 
d="M410 0v53c-13.333 -20 -33.833 -35.333 -61.5 -46s-52.5 -16 -74.5 -16c-62.667 0 -118 22.5 -166 67.5s-72 103.5 -72 175.5s24 130.5 72 175.5s103.333 67.5 166 67.5c22 0 46.167 -4.66699 72.5 -14s47.5 -25.333 63.5 -48v52h138v-467h-138zM180 234
c0 -32 11.833 -58.498 35.5 -79.498s50.834 -31.5 81.501 -31.5c30 0 56.333 10.167 79 30.5s34 47.166 34 80.499s-11.333 60.166 -34 80.499s-49 30.5 -79 30.5c-30.667 0 -57.834 -10.5 -81.501 -31.5s-35.5 -47.5 -35.5 -79.5zM263 606.002
c-5.33301 0 -10.832 -3.66699 -16.499 -11s-8.83398 -18 -9.50098 -32h-75c2 44.667 13.167 77.5 33.5 98.5s42.833 31.5 67.5 31.5c15.333 0 32 -6.83301 50 -20.5s30.333 -20.5 37 -20.5c5.33301 0 10.833 3.33301 16.5 10s8.83398 17 9.50098 31h75
c-2 -44 -13.167 -76.333 -33.5 -97s-42.833 -31 -67.5 -31c-14.667 0 -31.334 6.83301 -50.001 20.5s-31 20.5 -37 20.5z" />
    <glyph glyph-name="adieresis" unicode="&#xe4;" horiz-adv-x="612" 
d="M410 0v53c-13.333 -20 -33.833 -35.333 -61.5 -46s-52.5 -16 -74.5 -16c-62.667 0 -118 22.5 -166 67.5s-72 103.5 -72 175.5s24 130.5 72 175.5s103.333 67.5 166 67.5c22 0 46.167 -4.66699 72.5 -14s47.5 -25.333 63.5 -48v52h138v-467h-138zM180 234
c0 -32 11.833 -58.498 35.5 -79.498s50.834 -31.5 81.501 -31.5c30 0 56.333 10.167 79 30.5s34 47.166 34 80.499s-11.333 60.166 -34 80.499s-49 30.5 -79 30.5c-30.667 0 -57.834 -10.5 -81.501 -31.5s-35.5 -47.5 -35.5 -79.5zM146 638.002
c0 18.667 7.16699 34.667 21.5 48s31.5 20 51.5 20c19.333 0 36 -6.66699 50 -20s21 -29.333 21 -48c0 -19.333 -7 -35.666 -21 -48.999s-30.667 -20 -50 -20c-20 0 -37.167 6.66699 -51.5 20s-21.5 29.666 -21.5 48.999zM323 638.002c0 18.667 7.16699 34.667 21.5 48
s31.5 20 51.5 20c19.333 0 36 -6.66699 50 -20s21 -29.333 21 -48c0 -19.333 -7 -35.666 -21 -48.999s-30.667 -20 -50 -20c-20 0 -37.167 6.66699 -51.5 20s-21.5 29.666 -21.5 48.999z" />
    <glyph glyph-name="aring" unicode="&#xe5;" horiz-adv-x="612" 
d="M410 0v53c-13.333 -20 -33.833 -35.333 -61.5 -46s-52.5 -16 -74.5 -16c-62.667 0 -118 22.5 -166 67.5s-72 103.5 -72 175.5s24 130.5 72 175.5s103.333 67.5 166 67.5c22 0 46.167 -4.66699 72.5 -14s47.5 -25.333 63.5 -48v52h138v-467h-138zM180 234
c0 -32 11.833 -58.498 35.5 -79.498s50.834 -31.5 81.501 -31.5c30 0 56.333 10.167 79 30.5s34 47.166 34 80.499s-11.333 60.166 -34 80.499s-49 30.5 -79 30.5c-30.667 0 -57.834 -10.5 -81.501 -31.5s-35.5 -47.5 -35.5 -79.5zM186 659.002
c0 34.667 11.667 63.834 35 87.501s51.666 35.5 84.999 35.5c34 0 62.833 -11.833 86.5 -35.5s35.5 -52.834 35.5 -87.501c0 -33.333 -11.833 -61.666 -35.5 -84.999s-52.5 -35 -86.5 -35c-33.333 0 -61.666 11.667 -84.999 35s-35 51.666 -35 84.999zM251 659.002
c0 -15.333 5.33301 -28.333 16 -39s23.667 -16 39 -16c16 0 29.5 5.33301 40.5 16s16.5 23.667 16.5 39c0 16.667 -5.5 30.5 -16.5 41.5s-24.5 16.5 -40.5 16.5c-15.333 0 -28.333 -5.5 -39 -16.5s-16 -24.833 -16 -41.5z" />
    <glyph glyph-name="ae" unicode="&#xe6;" horiz-adv-x="970" 
d="M812 154l101 -69c-42.667 -63.333 -113.667 -95 -213 -95c-57.333 0 -108 16.667 -152 50v-40h-138v53c-13.333 -20 -33.833 -35.333 -61.5 -46s-52.5 -16 -74.5 -16c-62.667 0 -118 22.5 -166 67.5s-72 103.5 -72 175.5s24 130.5 72 175.5s103.333 67.5 166 67.5
c22 0 46.167 -4.66699 72.5 -14s47.5 -25.333 63.5 -48v52h138v-39c44 32.667 94.667 49 152 49c68 0 124.833 -22.833 170.5 -68.5s68.5 -104.834 68.5 -177.501c0 -12.667 -0.666992 -27 -2 -43h-342c3.33301 -25.333 16.5 -44.666 39.5 -57.999s48.167 -20 75.5 -20
c45.333 0 79.333 14.667 102 44zM180 234c0 -32 11.833 -58.498 35.5 -79.498s50.834 -31.5 81.501 -31.5c30 0 56.333 10.167 79 30.5s34 47.166 34 80.499s-11.333 60.166 -34 80.499s-49 30.5 -79 30.5c-30.667 0 -57.834 -10.5 -81.501 -31.5s-35.5 -47.5 -35.5 -79.5z
M597 275.002h202.002c-3.33301 26 -14.833 45.833 -34.5 59.5s-40.834 20.5 -63.501 20.5s-44.334 -6.66699 -65.001 -20s-33.667 -33.333 -39 -60z" />
    <glyph glyph-name="ccedilla" unicode="&#xe7;" horiz-adv-x="525" 
d="M322 -8l30.999 -58.001c6.66699 -12 10 -28.333 10 -49c0 -28 -10.5 -52.167 -31.5 -72.5s-46.167 -30.5 -75.5 -30.5c-20 0 -38.667 5.83301 -56 17.5s-30.333 27.5 -39 47.5c-6 14 -8.66699 33.667 -8 59l77 -4c-1.33301 -8.66699 -1 -17.334 1 -26.001
c6.66699 -17.333 19.667 -23.666 39 -18.999c17.333 7.33301 22.333 21.333 15 42l-35 94c-60.667 8.66699 -111.5 35 -152.5 79s-61.5 98.333 -61.5 163c0 71.333 25 129.5 75 174.5s109.667 67.5 179 67.5c41.333 0 79.833 -8.66699 115.5 -26
s64.834 -41.666 87.501 -72.999l-113 -81c-20 31.333 -50 47 -90 47c-30.667 0 -57.667 -10.167 -81 -30.5s-35 -46.5 -35 -78.5c0 -32.667 11.667 -59.5 35 -80.5s50.333 -31.5 81 -31.5c40 0 70 15.667 90 47l113 -80c-40.667 -57.333 -97.667 -90 -171 -98z" />
    <glyph glyph-name="egrave" unicode="&#xe8;" horiz-adv-x="550" 
d="M100 707h138l110 -168h-100zM392 154l101 -69c-42.667 -63.333 -113.667 -95 -213 -95c-68.667 0 -126.5 22.833 -173.5 68.5s-70.5 104.5 -70.5 176.5s23.5 130.333 70.5 175s104.833 67 173.5 67c68 0 124.833 -22.833 170.5 -68.5s68.5 -104.834 68.5 -177.501
c0 -12.667 -0.666992 -27 -2 -43h-342c3.33301 -25.333 16.5 -44.666 39.5 -57.999s48.167 -20 75.5 -20c45.333 0 79.333 14.667 102 44zM177 275h202.002c-3.33301 26 -14.833 45.833 -34.5 59.5s-40.834 20.5 -63.501 20.5s-44.334 -6.66699 -65.001 -20
s-33.667 -33.333 -39 -60z" />
    <glyph glyph-name="eacute" unicode="&#xe9;" horiz-adv-x="550" 
d="M323 707h138l-148 -168h-100zM392 154l101 -69c-42.667 -63.333 -113.667 -95 -213 -95c-68.667 0 -126.5 22.833 -173.5 68.5s-70.5 104.5 -70.5 176.5s23.5 130.333 70.5 175s104.833 67 173.5 67c68 0 124.833 -22.833 170.5 -68.5s68.5 -104.834 68.5 -177.501
c0 -12.667 -0.666992 -27 -2 -43h-342c3.33301 -25.333 16.5 -44.666 39.5 -57.999s48.167 -20 75.5 -20c45.333 0 79.333 14.667 102 44zM177 275h202.002c-3.33301 26 -14.833 45.833 -34.5 59.5s-40.834 20.5 -63.501 20.5s-44.334 -6.66699 -65.001 -20
s-33.667 -33.333 -39 -60z" />
    <glyph glyph-name="ecircumflex" unicode="&#xea;" horiz-adv-x="550" 
d="M208 711h138l110 -168h-100l-79 89l-78 -89h-100zM392 154l101 -69c-42.667 -63.333 -113.667 -95 -213 -95c-68.667 0 -126.5 22.833 -173.5 68.5s-70.5 104.5 -70.5 176.5s23.5 130.333 70.5 175s104.833 67 173.5 67c68 0 124.833 -22.833 170.5 -68.5
s68.5 -104.834 68.5 -177.501c0 -12.667 -0.666992 -27 -2 -43h-342c3.33301 -25.333 16.5 -44.666 39.5 -57.999s48.167 -20 75.5 -20c45.333 0 79.333 14.667 102 44zM177 275h202.002c-3.33301 26 -14.833 45.833 -34.5 59.5s-40.834 20.5 -63.501 20.5
s-44.334 -6.66699 -65.001 -20s-33.667 -33.333 -39 -60z" />
    <glyph glyph-name="edieresis" unicode="&#xeb;" horiz-adv-x="550" 
d="M117 638c0 18.667 7.16699 34.667 21.5 48s31.5 20 51.5 20c19.333 0 36 -6.66699 50 -20s21 -29.333 21 -48c0 -19.333 -7 -35.666 -21 -48.999s-30.667 -20 -50 -20c-20 0 -37.167 6.66699 -51.5 20s-21.5 29.666 -21.5 48.999zM294 638
c0 18.667 7.16699 34.667 21.5 48s31.5 20 51.5 20c19.333 0 36 -6.66699 50 -20s21 -29.333 21 -48c0 -19.333 -7 -35.666 -21 -48.999s-30.667 -20 -50 -20c-20 0 -37.167 6.66699 -51.5 20s-21.5 29.666 -21.5 48.999zM392 154l101 -69
c-42.667 -63.333 -113.667 -95 -213 -95c-68.667 0 -126.5 22.833 -173.5 68.5s-70.5 104.5 -70.5 176.5s23.5 130.333 70.5 175s104.833 67 173.5 67c68 0 124.833 -22.833 170.5 -68.5s68.5 -104.834 68.5 -177.501c0 -12.667 -0.666992 -27 -2 -43h-342
c3.33301 -25.333 16.5 -44.666 39.5 -57.999s48.167 -20 75.5 -20c45.333 0 79.333 14.667 102 44zM177 275h202.002c-3.33301 26 -14.833 45.833 -34.5 59.5s-40.834 20.5 -63.501 20.5s-44.334 -6.66699 -65.001 -20s-33.667 -33.333 -39 -60z" />
    <glyph glyph-name="igrave" unicode="&#xec;" horiz-adv-x="265" 
d="M64 467h137v-467h-137v467zM-45 707h138l110 -168h-100z" />
    <glyph glyph-name="iacute" unicode="&#xed;" horiz-adv-x="265" 
d="M201 467h-137v-467h137v467zM174 707h138l-148 -168h-100z" />
    <glyph glyph-name="icircumflex" unicode="&#xee;" horiz-adv-x="265" 
d="M64 467h137v-467h-137v467zM63 711h138l110 -168h-100l-79 89l-78 -89h-100z" />
    <glyph glyph-name="idieresis" unicode="&#xef;" horiz-adv-x="265" 
d="M201 467h-137v-467h137v467zM-30 638c0 18.667 7.16699 34.667 21.5 48s31.5 20 51.5 20c19.333 0 36 -6.66699 50 -20s21 -29.333 21 -48c0 -19.333 -7 -35.666 -21 -48.999s-30.667 -20 -50 -20c-20 0 -37.167 6.66699 -51.5 20s-21.5 29.666 -21.5 48.999zM147 638
c0 18.667 7.16699 34.667 21.5 48s31.5 20 51.5 20c19.333 0 36 -6.66699 50 -20s21 -29.333 21 -48c0 -19.333 -7 -35.666 -21 -48.999s-30.667 -20 -50 -20c-20 0 -37.167 6.66699 -51.5 20s-21.5 29.666 -21.5 48.999z" />
    <glyph glyph-name="eth" unicode="&#xf0;" horiz-adv-x="559" 
d="M327 585l149 -205.001c30.667 -41.333 46 -89.666 46 -144.999c0 -72 -23.5 -130.5 -70.5 -175.5s-104.5 -67.5 -172.5 -67.5s-125.333 22.5 -172 67.5s-70 103.5 -70 175.5c0 71.333 24 129 72 173s106.333 63.667 175 59l-58 73l-85 -39l-29 49l81 36l-74 103h133
l42 -58l86 39l35 -45zM279 127.999c30 0 55.167 9.83301 75.5 29.5s30.5 45.5 30.5 77.5c0 30.667 -10.167 55.667 -30.5 75s-45.5 29 -75.5 29c-29.333 0 -54.166 -9.66699 -74.499 -29s-30.5 -44.333 -30.5 -75c0 -32 10.167 -57.833 30.5 -77.5
s45.166 -29.5 74.499 -29.5z" />
    <glyph glyph-name="ntilde" unicode="&#xf1;" 
d="M203 247l0.000976562 -247h-139v467h139v-68c12.667 23.333 31.5 42.166 56.5 56.499s51.167 21.5 78.5 21.5c54 0 96 -16.667 126 -50s45 -82.666 45 -147.999v-279h-139v249c0 30 -7.33301 53 -22 69s-34.334 24 -59.001 24c-57.333 0 -86 -31.667 -86 -95z
M240.001 606c-5.33301 0 -10.833 -3.66699 -16.5 -11s-8.83398 -18 -9.50098 -32h-75c2 44.667 13.167 77.5 33.5 98.5s42.833 31.5 67.5 31.5c15.333 0 32 -6.83301 50 -20.5s30.333 -20.5 37 -20.5c5.33301 0 10.833 3.33301 16.5 10s8.83398 17 9.50098 31h75
c-2 -44 -13.167 -76.333 -33.5 -97s-42.833 -31 -67.5 -31c-14 0 -30.5 6.83301 -49.5 20.5s-31.5 20.5 -37.5 20.5z" />
    <glyph glyph-name="ograve" unicode="&#xf2;" horiz-adv-x="557" 
d="M278 128c30 0 55.167 9.83301 75.5 29.5s30.5 45.5 30.5 77.5c0 30.667 -10.167 55.667 -30.5 75s-45.5 29 -75.5 29c-29.333 0 -54.166 -9.66699 -74.499 -29s-30.5 -44.333 -30.5 -75c0 -32 10.167 -57.833 30.5 -77.5s45.166 -29.5 74.499 -29.5zM278 -8
c-68 0 -125.333 22.5 -172 67.5s-70 103.5 -70 175.5c0 71.333 23.333 129.166 70 173.499s104 66.5 172 66.5s125.5 -22.167 172.5 -66.5s70.5 -102.166 70.5 -173.499c0 -72 -23.5 -130.5 -70.5 -175.5s-104.5 -67.5 -172.5 -67.5zM78 707h138l110 -168h-100z" />
    <glyph glyph-name="oacute" unicode="&#xf3;" horiz-adv-x="557" 
d="M278 128c-29.333 0 -54.166 9.83301 -74.499 29.5s-30.5 45.5 -30.5 77.5c0 30.667 10.167 55.667 30.5 75s45.166 29 74.499 29c30 0 55.167 -9.66699 75.5 -29s30.5 -44.333 30.5 -75c0 -32 -10.167 -57.833 -30.5 -77.5s-45.5 -29.5 -75.5 -29.5zM278 -8
c68 0 125.5 22.5 172.5 67.5s70.5 103.5 70.5 175.5c0 71.333 -23.5 129.166 -70.5 173.499s-104.5 66.5 -172.5 66.5s-125.333 -22.167 -172 -66.5s-70 -102.166 -70 -173.499c0 -72 23.333 -130.5 70 -175.5s104 -67.5 172 -67.5zM329 707h138l-148 -168h-100z" />
    <glyph glyph-name="ocircumflex" unicode="&#xf4;" horiz-adv-x="557" 
d="M278 128c30 0 55.167 9.83301 75.5 29.5s30.5 45.5 30.5 77.5c0 30.667 -10.167 55.667 -30.5 75s-45.5 29 -75.5 29c-29.333 0 -54.166 -9.66699 -74.499 -29s-30.5 -44.333 -30.5 -75c0 -32 10.167 -57.833 30.5 -77.5s45.166 -29.5 74.499 -29.5zM278 -8
c-68 0 -125.333 22.5 -172 67.5s-70 103.5 -70 175.5c0 71.333 23.333 129.166 70 173.499s104 66.5 172 66.5s125.5 -22.167 172.5 -66.5s70.5 -102.166 70.5 -173.499c0 -72 -23.5 -130.5 -70.5 -175.5s-104.5 -67.5 -172.5 -67.5zM209 711h138l110 -168h-100l-79 89
l-78 -89h-100z" />
    <glyph glyph-name="otilde" unicode="&#xf5;" horiz-adv-x="557" 
d="M278 128c30 0 55.167 9.83301 75.5 29.5s30.5 45.5 30.5 77.5c0 30.667 -10.167 55.667 -30.5 75s-45.5 29 -75.5 29c-29.333 0 -54.166 -9.66699 -74.499 -29s-30.5 -44.333 -30.5 -75c0 -32 10.167 -57.833 30.5 -77.5s45.166 -29.5 74.499 -29.5zM278 -8
c-68 0 -125.333 22.5 -172 67.5s-70 103.5 -70 175.5c0 71.333 23.333 129.166 70 173.499s104 66.5 172 66.5s125.5 -22.167 172.5 -66.5s70.5 -102.166 70.5 -173.499c0 -72 -23.5 -130.5 -70.5 -175.5s-104.5 -67.5 -172.5 -67.5zM235 606
c-5.33301 0 -10.832 -3.66699 -16.499 -11s-8.83398 -18 -9.50098 -32h-75c2 44.667 13.167 77.5 33.5 98.5s42.833 31.5 67.5 31.5c15.333 0 32 -6.83301 50 -20.5s30.333 -20.5 37 -20.5c5.33301 0 10.833 3.33301 16.5 10s8.83398 17 9.50098 31h75
c-2 -44 -13.167 -76.333 -33.5 -97s-42.833 -31 -67.5 -31c-14.667 0 -31.334 6.83301 -50.001 20.5s-31 20.5 -37 20.5z" />
    <glyph glyph-name="odieresis" unicode="&#xf6;" horiz-adv-x="557" 
d="M278 128c-29.333 0 -54.166 9.83301 -74.499 29.5s-30.5 45.5 -30.5 77.5c0 30.667 10.167 55.667 30.5 75s45.166 29 74.499 29c30 0 55.167 -9.66699 75.5 -29s30.5 -44.333 30.5 -75c0 -32 -10.167 -57.833 -30.5 -77.5s-45.5 -29.5 -75.5 -29.5zM278 -8
c68 0 125.5 22.5 172.5 67.5s70.5 103.5 70.5 175.5c0 71.333 -23.5 129.166 -70.5 173.499s-104.5 66.5 -172.5 66.5s-125.333 -22.167 -172 -66.5s-70 -102.166 -70 -173.499c0 -72 23.333 -130.5 70 -175.5s104 -67.5 172 -67.5zM118 638
c0 18.667 7.16699 34.667 21.5 48s31.5 20 51.5 20c19.333 0 36 -6.66699 50 -20s21 -29.333 21 -48c0 -19.333 -7 -35.666 -21 -48.999s-30.667 -20 -50 -20c-20 0 -37.167 6.66699 -51.5 20s-21.5 29.666 -21.5 48.999zM295 638c0 18.667 7.16699 34.667 21.5 48
s31.5 20 51.5 20c19.333 0 36 -6.66699 50 -20s21 -29.333 21 -48c0 -19.333 -7 -35.666 -21 -48.999s-30.667 -20 -50 -20c-20 0 -37.167 6.66699 -51.5 20s-21.5 29.666 -21.5 48.999z" />
    <glyph glyph-name="divide" unicode="&#xf7;" horiz-adv-x="583" 
d="M214 65c0 22 7.5 39.999 22.5 53.999s33.5 21 55.5 21s40.667 -7.16699 56 -21.5s23 -32.166 23 -53.499c0 -22 -7.66699 -40.167 -23 -54.5s-34 -21.5 -56 -21.5s-40.5 7.16699 -55.5 21.5s-22.5 32.5 -22.5 54.5zM214 423.999c0 21.333 7.5 39.166 22.5 53.499
s33.5 21.5 55.5 21.5s40.667 -7.16699 56 -21.5s23 -32.166 23 -53.499c0 -22 -7.66699 -40.167 -23 -54.5s-34 -21.5 -56 -21.5s-40.5 7.16699 -55.5 21.5s-22.5 32.5 -22.5 54.5zM52 194.999h479v96h-479v-96z" />
    <glyph glyph-name="oslash" unicode="&#xf8;" horiz-adv-x="557" 
d="M278 -8c-52.667 0 -99.667 14 -141 42l-58 -59l-47 47l56 58c-34.667 42 -52 93.667 -52 155c0 72 23.333 130.333 70 175s104 67 172 67c54.667 0 104.667 -16.667 150 -50l52 54l47 -46l-53 -54c31.333 -42 47 -90.667 47 -146c0 -72 -23.5 -130.5 -70.5 -175.5
s-104.5 -67.5 -172.5 -67.5zM278 341c-29.333 0 -54.167 -10 -74.5 -30s-30.5 -45.333 -30.5 -76c0 -21.333 4.33301 -39.333 13 -54l143 146c-17.333 9.33301 -34.333 14 -51 14zM277.999 128c30 0 55.167 9.83301 75.5 29.5s30.5 45.5 30.5 77.5c0 14 -3 28.667 -9 44
l-139 -143c11.333 -5.33301 25.333 -8 42 -8z" />
    <glyph glyph-name="ugrave" unicode="&#xf9;" 
d="M131 707h138l110 -168h-100zM365 220v246.999h139v-467h-139v64c-12 -22.667 -29.333 -40.667 -52 -54s-45.667 -20 -69 -20c-54.667 0 -99.167 17 -133.5 51s-51.5 83 -51.5 147v279h139v-249c0 -33.333 8.66699 -57.166 26 -71.499s36.333 -21.5 57 -21.5
c24 0 44 7.66699 60 23s24 39.333 24 72z" />
    <glyph glyph-name="uacute" unicode="&#xfa;" 
d="M304 707h138l-148 -168h-100zM365 220v246.999h139v-467h-139v64c-12 -22.667 -29.333 -40.667 -52 -54s-45.667 -20 -69 -20c-54.667 0 -99.167 17 -133.5 51s-51.5 83 -51.5 147v279h139v-249c0 -33.333 8.66699 -57.166 26 -71.499s36.333 -21.5 57 -21.5
c24 0 44 7.66699 60 23s24 39.333 24 72z" />
    <glyph glyph-name="ucircumflex" unicode="&#xfb;" 
d="M211 711h138l110 -168h-100l-79 89l-78 -89h-100zM365 220v246.999h139v-467h-139v64c-12 -22.667 -29.333 -40.667 -52 -54s-45.667 -20 -69 -20c-54.667 0 -99.167 17 -133.5 51s-51.5 83 -51.5 147v279h139v-249c0 -33.333 8.66699 -57.166 26 -71.499
s36.333 -21.5 57 -21.5c24 0 44 7.66699 60 23s24 39.333 24 72z" />
    <glyph glyph-name="udieresis" unicode="&#xfc;" 
d="M115 638c0 18.667 7.16699 34.667 21.5 48s31.5 20 51.5 20c19.333 0 36 -6.66699 50 -20s21 -29.333 21 -48c0 -19.333 -7 -35.666 -21 -48.999s-30.667 -20 -50 -20c-20 0 -37.167 6.66699 -51.5 20s-21.5 29.666 -21.5 48.999zM292 638
c0 18.667 7.16699 34.667 21.5 48s31.5 20 51.5 20c19.333 0 36 -6.66699 50 -20s21 -29.333 21 -48c0 -19.333 -7 -35.666 -21 -48.999s-30.667 -20 -50 -20c-20 0 -37.167 6.66699 -51.5 20s-21.5 29.666 -21.5 48.999zM365 220v246.999h139v-467h-139v64
c-12 -22.667 -29.333 -40.667 -52 -54s-45.667 -20 -69 -20c-54.667 0 -99.167 17 -133.5 51s-51.5 83 -51.5 147v279h139v-249c0 -33.333 8.66699 -57.166 26 -71.499s36.333 -21.5 57 -21.5c24 0 44 7.66699 60 23s24 39.333 24 72z" />
    <glyph glyph-name="yacute" unicode="&#xfd;" horiz-adv-x="510" 
d="M218 -229l288 696h-148l-104 -265l-103 265h-148l180 -419l-112 -277h147zM277 707h138l-148 -168h-100z" />
    <glyph glyph-name="thorn" unicode="&#xfe;" horiz-adv-x="602" 
d="M205 235c0 -32.667 10.5 -59.668 31.5 -81.001s46.5 -32 76.5 -32s55.5 10.333 76.5 31s31.5 48 31.5 82c0 32.667 -10.5 59.334 -31.5 80.001s-46.5 31 -76.5 31s-55.5 -10 -76.5 -30s-31.5 -47 -31.5 -81zM202 -229.001h-138v950h138v-311
c11.333 20.667 29.5 37 54.5 49s52.5 18 82.5 18c62 0 115.167 -22.667 159.5 -68s66.5 -104.333 66.5 -177c0 -71.333 -22.167 -129.5 -66.5 -174.5s-97.5 -67.5 -159.5 -67.5c-30 0 -57.5 6 -82.5 18s-43.167 28.667 -54.5 50v-287z" />
    <glyph glyph-name="ydieresis" unicode="&#xff;" horiz-adv-x="510" 
d="M218 -229l288 696h-148l-104 -265l-103 265h-148l180 -419l-112 -277h147zM97 638c0 18.667 7.16699 34.667 21.5 48s31.5 20 51.5 20c19.333 0 36 -6.66699 50 -20s21 -29.333 21 -48c0 -19.333 -7 -35.666 -21 -48.999s-30.667 -20 -50 -20
c-20 0 -37.167 6.66699 -51.5 20s-21.5 29.666 -21.5 48.999zM274 638c0 18.667 7.16699 34.667 21.5 48s31.5 20 51.5 20c19.333 0 36 -6.66699 50 -20s21 -29.333 21 -48c0 -19.333 -7 -35.666 -21 -48.999s-30.667 -20 -50 -20c-20 0 -37.167 6.66699 -51.5 20
s-21.5 29.666 -21.5 48.999z" />
    <glyph glyph-name="Amacron" unicode="&#x100;" horiz-adv-x="659" 
d="M259 290h143l-73 240zM449 163h-238l-61 -163h-156l256 689h159l255 -689h-154zM190 809v85h278v-85h-278z" />
    <glyph glyph-name="amacron" unicode="&#x101;" horiz-adv-x="612" 
d="M410 0v53c-13.333 -20 -33.833 -35.333 -61.5 -46s-52.5 -16 -74.5 -16c-62.667 0 -118 22.5 -166 67.5s-72 103.5 -72 175.5s24 130.5 72 175.5s103.333 67.5 166 67.5c22 0 46.167 -4.66699 72.5 -14s47.5 -25.333 63.5 -48v52h138v-467h-138zM180 234
c0 -32 11.833 -58.498 35.5 -79.498s50.834 -31.5 81.501 -31.5c30 0 56.333 10.167 79 30.5s34 47.166 34 80.499s-11.333 60.166 -34 80.499s-49 30.5 -79 30.5c-30.667 0 -57.834 -10.5 -81.501 -31.5s-35.5 -47.5 -35.5 -79.5zM168 587.002v85h278v-85h-278z" />
    <glyph glyph-name="Abreve" unicode="&#x102;" horiz-adv-x="659" 
d="M259 290h143l-73 240zM449 163h-238l-61 -163h-156l256 689h159l255 -689h-154zM194 911h85c0 -35.333 16.333 -53 49 -53c32 0 48 17.667 48 53h87c0 -39.333 -12.5 -71 -37.5 -95s-57.5 -36 -97.5 -36c-43.333 0 -76.5 12.833 -99.5 38.5s-34.5 56.5 -34.5 92.5z" />
    <glyph glyph-name="abreve" unicode="&#x103;" horiz-adv-x="612" 
d="M410 0v53c-13.333 -20 -33.833 -35.333 -61.5 -46s-52.5 -16 -74.5 -16c-62.667 0 -118 22.5 -166 67.5s-72 103.5 -72 175.5s24 130.5 72 175.5s103.333 67.5 166 67.5c22 0 46.167 -4.66699 72.5 -14s47.5 -25.333 63.5 -48v52h138v-467h-138zM180 234
c0 -32 11.833 -58.498 35.5 -79.498s50.834 -31.5 81.501 -31.5c30 0 56.333 10.167 79 30.5s34 47.166 34 80.499s-11.333 60.166 -34 80.499s-49 30.5 -79 30.5c-30.667 0 -57.834 -10.5 -81.501 -31.5s-35.5 -47.5 -35.5 -79.5zM172 689.002h85
c0 -35.333 16.333 -53 49 -53c32 0 48 17.667 48 53h87c0 -39.333 -12.5 -71 -37.5 -95s-57.5 -36 -97.5 -36c-43.333 0 -76.5 12.833 -99.5 38.5s-34.5 56.5 -34.5 92.5z" />
    <glyph glyph-name="Aogonek" unicode="&#x104;" horiz-adv-x="659" 
d="M664 0l-84 0.000976562l-37 -101c-7.33301 -20.667 -2.33301 -34.667 15 -42c19.333 -4.66699 32.333 1.66602 39 18.999l1 26l77 4c0.666992 -25.333 -2 -45 -8 -59c-8.66699 -20 -21.667 -35.833 -39 -47.5s-36 -17.5 -56 -17.5c-29.333 0 -54.5 10.167 -75.5 30.5
s-31.5 44.5 -31.5 72.5c0 20 3.33301 36.333 10 49l35 66l-61 163h-238l-61 -163h-156l256 689h159zM259 290.001h143l-73 240z" />
    <glyph glyph-name="aogonek" unicode="&#x105;" horiz-adv-x="612" 
d="M180 234c0 -32 11.833 -58.498 35.5 -79.498s50.834 -31.5 81.501 -31.5c30 0 56.333 10.167 79 30.5s34 47.166 34 80.499s-11.333 60.166 -34 80.499s-49 30.5 -79 30.5c-30.667 0 -57.834 -10.5 -81.501 -31.5s-35.5 -47.5 -35.5 -79.5zM548 0.00195312
l-68 0.000976562l-37 -101c-7.33301 -20.667 -2.33301 -34.667 15 -42c19.333 -4.66699 32.333 1.66602 39 18.999l1 26l77 4c0.666992 -25.333 -2 -45 -8 -59c-8.66699 -20 -21.667 -35.833 -39 -47.5s-36 -17.5 -56 -17.5c-29.333 0 -54.5 10.167 -75.5 30.5
s-31.5 44.5 -31.5 72.5c0 20 3.33301 36.333 10 49l35 66v53c-13.333 -20 -33.833 -35.333 -61.5 -46s-52.5 -16 -74.5 -16c-62.667 0 -118 22.5 -166 67.5s-72 103.5 -72 175.5s24 130.5 72 175.5s103.333 67.5 166 67.5c22 0 46.167 -4.66699 72.5 -14
s47.5 -25.333 63.5 -48v52h138v-467z" />
    <glyph glyph-name="Cacute" unicode="&#x106;" horiz-adv-x="699" 
d="M559 223c-19.333 -28.667 -44.001 -51.667 -74.001 -69s-62.667 -26 -98 -26c-56.667 0 -104 20.833 -142 62.5s-57 92.5 -57 152.5c0 60.667 19 111.834 57 153.501s85.333 62.5 142 62.5c70.667 0 126.667 -30 168 -90l119 82
c-30.667 44.667 -71.167 80.167 -121.5 106.5s-105.5 39.5 -165.5 39.5c-98 0 -180.167 -34.333 -246.5 -103s-99.5 -152.334 -99.5 -251.001c0 -98 33.167 -181.333 99.5 -250s148.5 -103 246.5 -103c61.333 0 117.333 13.5 168 40.5s91.334 63.833 122.001 110.5z
M440.999 929h138l-148 -168h-100z" />
    <glyph glyph-name="cacute" unicode="&#x107;" horiz-adv-x="525" 
d="M36 235c0 71.333 24.999 129.499 74.999 174.499s109.667 67.5 179 67.5c41.333 0 79.833 -8.66699 115.5 -26s64.834 -41.666 87.501 -72.999l-113 -81c-20 31.333 -50 47 -90 47c-30.667 0 -57.667 -10.167 -81 -30.5s-35 -46.5 -35 -78.5
c0 -32.667 11.667 -59.5 35 -80.5s50.333 -31.5 81 -31.5c40 0 70 15.667 90 47l113 -80c-22 -31.333 -50.833 -55.833 -86.5 -73.5s-74.5 -26.5 -116.5 -26.5c-69.333 0 -129 23 -179 69s-75 104.667 -75 176zM321.999 706.999h138l-148 -168h-100z" />
    <glyph glyph-name="Ccircumflex" unicode="&#x108;" horiz-adv-x="699" 
d="M559 223l118.001 -82c-30.667 -46.667 -71.334 -83.5 -122.001 -110.5s-106.667 -40.5 -168 -40.5c-98 0 -180.167 34.333 -246.5 103s-99.5 152 -99.5 250c0 98.667 33.167 182.334 99.5 251.001s148.5 103 246.5 103c60 0 115.167 -13.167 165.5 -39.5
s90.833 -61.833 121.5 -106.5l-119 -82c-41.333 60 -97.333 90 -168 90c-56.667 0 -104 -20.833 -142 -62.5s-57 -92.834 -57 -153.501c0 -60 19 -110.833 57 -152.5s85.333 -62.5 142 -62.5c35.333 0 68 8.66699 98 26s54.667 40.333 74 69zM314.001 933h138l110 -168h-100
l-79 89l-78 -89h-100z" />
    <glyph glyph-name="ccircumflex" unicode="&#x109;" horiz-adv-x="525" 
d="M36 235c0 71.333 24.999 129.499 74.999 174.499s109.667 67.5 179 67.5c41.333 0 79.833 -8.66699 115.5 -26s64.834 -41.666 87.501 -72.999l-113 -81c-20 31.333 -50 47 -90 47c-30.667 0 -57.667 -10.167 -81 -30.5s-35 -46.5 -35 -78.5
c0 -32.667 11.667 -59.5 35 -80.5s50.333 -31.5 81 -31.5c40 0 70 15.667 90 47l113 -80c-22 -31.333 -50.833 -55.833 -86.5 -73.5s-74.5 -26.5 -116.5 -26.5c-69.333 0 -129 23 -179 69s-75 104.667 -75 176zM212.999 710.999h138l110 -168h-100l-79 89l-78 -89h-100z" />
    <glyph glyph-name="Cdotaccent" unicode="&#x10a;" horiz-adv-x="699" 
d="M559 223c-19.333 -28.667 -44.001 -51.667 -74.001 -69s-62.667 -26 -98 -26c-56.667 0 -104 20.833 -142 62.5s-57 92.5 -57 152.5c0 60.667 19 111.834 57 153.501s85.333 62.5 142 62.5c70.667 0 126.667 -30 168 -90l119 82
c-30.667 44.667 -71.167 80.167 -121.5 106.5s-105.5 39.5 -165.5 39.5c-98 0 -180.167 -34.333 -246.5 -103s-99.5 -152.334 -99.5 -251.001c0 -98 33.167 -181.333 99.5 -250s148.5 -103 246.5 -103c61.333 0 117.333 13.5 168 40.5s91.334 63.833 122.001 110.5z
M305.999 867c0 20.667 7.5 38.167 22.5 52.5s33.167 21.5 54.5 21.5s39.5 -7.16699 54.5 -21.5s22.5 -31.833 22.5 -52.5c0 -22 -7.33301 -40 -22 -54s-33 -21 -55 -21s-40.333 7 -55 21s-22 32 -22 54z" />
    <glyph glyph-name="cdotaccent" unicode="&#x10b;" horiz-adv-x="525" 
d="M36 235c0 71.333 24.999 129.499 74.999 174.499s109.667 67.5 179 67.5c41.333 0 79.833 -8.66699 115.5 -26s64.834 -41.666 87.501 -72.999l-113 -81c-20 31.333 -50 47 -90 47c-30.667 0 -57.667 -10.167 -81 -30.5s-35 -46.5 -35 -78.5
c0 -32.667 11.667 -59.5 35 -80.5s50.333 -31.5 81 -31.5c40 0 70 15.667 90 47l113 -80c-22 -31.333 -50.833 -55.833 -86.5 -73.5s-74.5 -26.5 -116.5 -26.5c-69.333 0 -129 23 -179 69s-75 104.667 -75 176zM201.999 644.999c0 20.667 7.5 38.167 22.5 52.5
s33.167 21.5 54.5 21.5s39.5 -7.16699 54.5 -21.5s22.5 -31.833 22.5 -52.5c0 -22 -7.33301 -40 -22 -54s-33 -21 -55 -21s-40.333 7 -55 21s-22 32 -22 54z" />
    <glyph glyph-name="Ccaron" unicode="&#x10c;" horiz-adv-x="699" 
d="M559 223l118.001 -82c-30.667 -46.667 -71.334 -83.5 -122.001 -110.5s-106.667 -40.5 -168 -40.5c-98 0 -180.167 34.333 -246.5 103s-99.5 152 -99.5 250c0 98.667 33.167 182.334 99.5 251.001s148.5 103 246.5 103c60 0 115.167 -13.167 165.5 -39.5
s90.833 -61.833 121.5 -106.5l-119 -82c-41.333 60 -97.333 90 -168 90c-56.667 0 -104 -20.833 -142 -62.5s-57 -92.834 -57 -153.501c0 -60 19 -110.833 57 -152.5s85.333 -62.5 142 -62.5c35.333 0 68 8.66699 98 26s54.667 40.333 74 69zM444.001 760h-138l-109 168h100
l78 -89l79 89h100z" />
    <glyph glyph-name="ccaron" unicode="&#x10d;" horiz-adv-x="525" 
d="M36 235c0 71.333 24.999 129.499 74.999 174.499s109.667 67.5 179 67.5c41.333 0 79.833 -8.66699 115.5 -26s64.834 -41.666 87.501 -72.999l-113 -81c-20 31.333 -50 47 -90 47c-30.667 0 -57.667 -10.167 -81 -30.5s-35 -46.5 -35 -78.5
c0 -32.667 11.667 -59.5 35 -80.5s50.333 -31.5 81 -31.5c40 0 70 15.667 90 47l113 -80c-22 -31.333 -50.833 -55.833 -86.5 -73.5s-74.5 -26.5 -116.5 -26.5c-69.333 0 -129 23 -179 69s-75 104.667 -75 176zM343.999 537.999h-138l-109 168h100l78 -89l79 89h100z" />
    <glyph glyph-name="Dcaron" unicode="&#x10e;" horiz-adv-x="707" 
d="M227 556v-423.001h124c52.667 0 93.334 20 122.001 60s43 90 43 150c0 60.667 -14.333 111.334 -43 152.001s-69.334 61 -122.001 61h-124zM351 -0.000976562h-270v689h270c96.667 0 172.667 -32.5 228 -97.5s83 -147.833 83 -248.5s-27.667 -183 -83 -247
s-131.333 -96 -228 -96zM410 759.999h-138l-109 168h100l78 -89l79 89h100z" />
    <glyph glyph-name="dcaron" unicode="&#x10f;" horiz-adv-x="635" 
d="M397 235c0 34 -10.5 61.001 -31.5 81.001s-46.5 30 -76.5 30s-55.5 -10.333 -76.5 -31s-31.5 -47.334 -31.5 -80.001c0 -34 10.5 -61.333 31.5 -82s46.5 -31 76.5 -31s55.5 10.667 76.5 32s31.5 48.333 31.5 81zM538 0.000976562h-138v58
c-11.333 -21.333 -29.5 -38 -54.5 -50s-52.5 -18 -82.5 -18c-62 0 -115.167 22.5 -159.5 67.5s-66.5 103.167 -66.5 174.5c0 72.667 22.167 131.667 66.5 177s97.5 68 159.5 68c30 0 57.5 -6 82.5 -18s43.167 -28.333 54.5 -49v311h138v-721zM636 458.001l-68 35
c22 30.667 37.333 60 46 88s12.667 64 12 108h117c-8 -101.333 -43.667 -178.333 -107 -231z" />
    <glyph glyph-name="Dcroat" unicode="&#x110;" horiz-adv-x="722" 
d="M2 284v98h94v307h270c96.667 0 172.667 -32.5 228 -97.5s83 -147.833 83 -248.5s-27.667 -183 -83 -247s-131.333 -96 -228 -96h-270v284h-94zM242 284v-151.001h124c52.667 0 93.334 20 122.001 60s43 90 43 150c0 60.667 -14.333 111.334 -43 152.001
s-69.334 61 -122.001 61h-124v-174h123v-98h-123z" />
    <glyph glyph-name="dcroat" unicode="&#x111;" horiz-adv-x="602" 
d="M251 557v86h149v78h138v-78h76v-86h-76v-557h-138v58c-11.333 -21.333 -29.5 -38 -54.5 -50s-52.5 -18 -82.5 -18c-62 0 -115.167 22.5 -159.5 67.5s-66.5 103.167 -66.5 174.5c0 72.667 22.167 131.667 66.5 177s97.5 68 159.5 68c30 0 57.5 -6 82.5 -18
s43.167 -28.333 54.5 -49v147h-149zM397 235c0 34 -10.5 61.001 -31.5 81.001s-46.5 30 -76.5 30s-55.5 -10.333 -76.5 -31s-31.5 -47.334 -31.5 -80.001c0 -34 10.5 -61.333 31.5 -82s46.5 -31 76.5 -31s55.5 10.667 76.5 32s31.5 48.333 31.5 81z" />
    <glyph glyph-name="Emacron" unicode="&#x112;" horiz-adv-x="576" 
d="M81 0v689h436v-129h-290v-157h254v-127h-254v-147h299v-129h-445zM144 809v85h278v-85h-278z" />
    <glyph glyph-name="emacron" unicode="&#x113;" horiz-adv-x="550" 
d="M138 587v85h278v-85h-278zM392 154l101 -69c-42.667 -63.333 -113.667 -95 -213 -95c-68.667 0 -126.5 22.833 -173.5 68.5s-70.5 104.5 -70.5 176.5s23.5 130.333 70.5 175s104.833 67 173.5 67c68 0 124.833 -22.833 170.5 -68.5s68.5 -104.834 68.5 -177.501
c0 -12.667 -0.666992 -27 -2 -43h-342c3.33301 -25.333 16.5 -44.666 39.5 -57.999s48.167 -20 75.5 -20c45.333 0 79.333 14.667 102 44zM177 275h202.002c-3.33301 26 -14.833 45.833 -34.5 59.5s-40.834 20.5 -63.501 20.5s-44.334 -6.66699 -65.001 -20
s-33.667 -33.333 -39 -60z" />
    <glyph glyph-name="Ebreve" unicode="&#x114;" horiz-adv-x="576" 
d="M81 689v-689h445v129h-299v147h254v127h-254v157h290v129h-436zM149 911h85c0 -35.333 16.333 -53 49 -53c32 0 48 17.667 48 53h87c0 -39.333 -12.5 -71 -37.5 -95s-57.5 -36 -97.5 -36c-43.333 0 -76.5 12.833 -99.5 38.5s-34.5 56.5 -34.5 92.5z" />
    <glyph glyph-name="ebreve" unicode="&#x115;" horiz-adv-x="550" 
d="M143 689h85c0 -35.333 16.333 -53 49 -53c32 0 48 17.667 48 53h87c0 -39.333 -12.5 -71 -37.5 -95s-57.5 -36 -97.5 -36c-43.333 0 -76.5 12.833 -99.5 38.5s-34.5 56.5 -34.5 92.5zM392 154l101 -69c-42.667 -63.333 -113.667 -95 -213 -95
c-68.667 0 -126.5 22.833 -173.5 68.5s-70.5 104.5 -70.5 176.5s23.5 130.333 70.5 175s104.833 67 173.5 67c68 0 124.833 -22.833 170.5 -68.5s68.5 -104.834 68.5 -177.501c0 -12.667 -0.666992 -27 -2 -43h-342c3.33301 -25.333 16.5 -44.666 39.5 -57.999
s48.167 -20 75.5 -20c45.333 0 79.333 14.667 102 44zM177 275h202.002c-3.33301 26 -14.833 45.833 -34.5 59.5s-40.834 20.5 -63.501 20.5s-44.334 -6.66699 -65.001 -20s-33.667 -33.333 -39 -60z" />
    <glyph glyph-name="Edotaccent" unicode="&#x116;" horiz-adv-x="576" 
d="M81 689v-689h445v129h-299v147h254v127h-254v157h290v129h-436zM216 867c0 20.667 7.5 38.167 22.5 52.5s33.167 21.5 54.5 21.5s39.5 -7.16699 54.5 -21.5s22.5 -31.833 22.5 -52.5c0 -22 -7.33301 -40 -22 -54s-33 -21 -55 -21s-40.333 7 -55 21s-22 32 -22 54z" />
    <glyph glyph-name="edotaccent" unicode="&#x117;" horiz-adv-x="550" 
d="M200 645c0 20.667 7.5 38.167 22.5 52.5s33.167 21.5 54.5 21.5s39.5 -7.16699 54.5 -21.5s22.5 -31.833 22.5 -52.5c0 -22 -7.33301 -40 -22 -54s-33 -21 -55 -21s-40.333 7 -55 21s-22 32 -22 54zM392 154l101 -69c-42.667 -63.333 -113.667 -95 -213 -95
c-68.667 0 -126.5 22.833 -173.5 68.5s-70.5 104.5 -70.5 176.5s23.5 130.333 70.5 175s104.833 67 173.5 67c68 0 124.833 -22.833 170.5 -68.5s68.5 -104.834 68.5 -177.501c0 -12.667 -0.666992 -27 -2 -43h-342c3.33301 -25.333 16.5 -44.666 39.5 -57.999
s48.167 -20 75.5 -20c45.333 0 79.333 14.667 102 44zM177 275h202.002c-3.33301 26 -14.833 45.833 -34.5 59.5s-40.834 20.5 -63.501 20.5s-44.334 -6.66699 -65.001 -20s-33.667 -33.333 -39 -60z" />
    <glyph glyph-name="Eogonek" unicode="&#x118;" horiz-adv-x="576" 
d="M542 -124l1 26.001l77 4c0.666992 -25.333 -2 -45 -8 -59c-8.66699 -20 -21.667 -35.833 -39 -47.5s-36 -17.5 -56 -17.5c-29.333 0 -54.5 10.167 -75.5 30.5s-31.5 44.5 -31.5 72.5c0 18.667 3.33301 35 10 49l35 66h-374v689h436v-129h-290v-157h254v-127h-254v-147
h299v-129l-38 -101c-8 -20 -3 -34 15 -42c19.333 -4.66699 32.333 1.66602 39 18.999z" />
    <glyph glyph-name="eogonek" unicode="&#x119;" horiz-adv-x="551" 
d="M392 154l101.001 -68.999c-2.66699 -3.33301 -9.33398 -11 -20.001 -23s-20.5 -23.667 -29.5 -35s-18.833 -28.5 -29.5 -51.5s-19 -48.5 -25 -76.5c-2 -12.667 -2 -22 0 -28s7 -10.667 15 -14c19.333 -4.66699 32.333 1.66602 39 18.999l1 26l77 4
c0.666992 -25.333 -2 -45 -8 -59c-8.66699 -20 -21.667 -35.833 -39 -47.5s-36 -17.5 -56 -17.5c-29.333 0 -54.5 10.167 -75.5 30.5s-31.5 44.5 -31.5 72.5c0 20 3.33301 36.333 10 49l34 64c-25.333 -5.33301 -50.333 -8 -75 -8c-68.667 0 -126.5 22.833 -173.5 68.5
s-70.5 104.5 -70.5 176.5s23.5 130.333 70.5 175s104.833 67 173.5 67c68 0 124.833 -22.833 170.5 -68.5s68.5 -104.834 68.5 -177.501c0 -12.667 -0.666992 -27 -2 -43h-342c3.33301 -25.333 16.5 -44.666 39.5 -57.999s48.167 -20 75.5 -20
c45.333 0 79.333 14.667 102 44zM177.001 275.001h202.002c-3.33301 26 -14.833 45.833 -34.5 59.5s-40.834 20.5 -63.501 20.5s-44.334 -6.66699 -65.001 -20s-33.667 -33.333 -39 -60z" />
    <glyph glyph-name="Ecaron" unicode="&#x11a;" horiz-adv-x="576" 
d="M81 0v689h436v-129h-290v-157h254v-127h-254v-147h299v-129h-445zM352 760h-138l-109 168h100l78 -89l79 89h100z" />
    <glyph glyph-name="ecaron" unicode="&#x11b;" horiz-adv-x="550" 
d="M346 538h-138l-109 168h100l78 -89l79 89h100zM392 154l101 -69c-42.667 -63.333 -113.667 -95 -213 -95c-68.667 0 -126.5 22.833 -173.5 68.5s-70.5 104.5 -70.5 176.5s23.5 130.333 70.5 175s104.833 67 173.5 67c68 0 124.833 -22.833 170.5 -68.5
s68.5 -104.834 68.5 -177.501c0 -12.667 -0.666992 -27 -2 -43h-342c3.33301 -25.333 16.5 -44.666 39.5 -57.999s48.167 -20 75.5 -20c45.333 0 79.333 14.667 102 44zM177 275h202.002c-3.33301 26 -14.833 45.833 -34.5 59.5s-40.834 20.5 -63.501 20.5
s-44.334 -6.66699 -65.001 -20s-33.667 -33.333 -39 -60z" />
    <glyph glyph-name="Gcircumflex" unicode="&#x11c;" horiz-adv-x="756" 
d="M653 584l-108.002 -92.999c-41.333 46.667 -91.666 70 -150.999 70c-58 0 -106.833 -21.333 -146.5 -64s-59.5 -94 -59.5 -154s20 -111.5 60 -154.5s88.667 -64.5 146 -64.5c40 0 77.667 11.167 113 33.5s53.333 50.833 54 85.5h-185v119h354
c0 -124.667 -30.167 -217.834 -90.5 -279.501s-142.166 -92.5 -245.499 -92.5c-98.667 0 -182.167 34.5 -250.5 103.5s-102.5 152.167 -102.5 249.5c0 98 34.167 181.5 102.5 250.5s151.833 103.5 250.5 103.5c52 0 100.5 -10 145.5 -30s82.833 -47.667 113.5 -83z
M311.998 933.001h138l110 -168h-100l-79 89l-78 -89h-100z" />
    <glyph glyph-name="gcircumflex" unicode="&#x11d;" horiz-adv-x="608" 
d="M406 235c0 33.333 -11.167 59.999 -33.5 79.999s-48.833 30 -79.5 30s-57 -10.333 -79 -31s-33 -47 -33 -79c0 -34 11 -61.5 33 -82.5s48.333 -31.5 79 -31.5c30 0 56.333 10.833 79 32.5s34 48.834 34 81.501zM162 -33.001c8 -21.333 23.668 -39.167 47.001 -53.5
s47 -21.5 71 -21.5c93.333 0 136.333 55.333 129 166c-10.667 -20.667 -29.167 -37.167 -55.5 -49.5s-54.5 -18.5 -84.5 -18.5c-62.667 0 -117.167 22.667 -163.5 68s-69.5 103.333 -69.5 174c0 72 23.167 130.833 69.5 176.5s100.833 68.5 163.5 68.5
c30 0 58 -6.16699 84 -18.5s44.667 -28.833 56 -49.5v58h135v-402c0 -98.667 -22.833 -173 -68.5 -223s-110.834 -75 -195.501 -75c-51.333 0 -97.5 13.167 -138.5 39.5s-71.5 61.5 -91.5 105.5l56.5 27.5c25.667 12.333 44.167 21.5 55.5 27.5zM235.001 710.998h138
l110 -168h-100l-79 89l-78 -89h-100z" />
    <glyph glyph-name="Gbreve" unicode="&#x11e;" horiz-adv-x="756" 
d="M653 584l-108.002 -92.999c-41.333 46.667 -91.666 70 -150.999 70c-58 0 -106.833 -21.333 -146.5 -64s-59.5 -94 -59.5 -154s20 -111.5 60 -154.5s88.667 -64.5 146 -64.5c40 0 77.667 11.167 113 33.5s53.333 50.833 54 85.5h-185v119h354
c0 -124.667 -30.167 -217.834 -90.5 -279.501s-142.166 -92.5 -245.499 -92.5c-98.667 0 -182.167 34.5 -250.5 103.5s-102.5 152.167 -102.5 249.5c0 98 34.167 181.5 102.5 250.5s151.833 103.5 250.5 103.5c52 0 100.5 -10 145.5 -30s82.833 -47.667 113.5 -83z
M246.998 911.001h85c0 -35.333 16.333 -53 49 -53c32 0 48 17.667 48 53h87c0 -39.333 -12.5 -71 -37.5 -95s-57.5 -36 -97.5 -36c-43.333 0 -76.5 12.833 -99.5 38.5s-34.5 56.5 -34.5 92.5z" />
    <glyph glyph-name="gbreve" unicode="&#x11f;" horiz-adv-x="608" 
d="M406 235c0 -32.667 -11.333 -59.833 -34 -81.5s-49 -32.5 -79 -32.5c-30.667 0 -57 10.5 -79 31.5s-33 48.5 -33 82.5c0 32 11 58.333 33 79s48.333 31 79 31s57.167 -10 79.5 -30s33.5 -46.667 33.5 -80zM162 -32.999c-11.333 -6 -29.834 -15.166 -55.501 -27.499
l-56.5 -27.5c20 -44 50.5 -79.167 91.5 -105.5s87.167 -39.5 138.5 -39.5c84.667 0 149.834 25 195.501 75s68.5 124.333 68.5 223v402h-135v-58c-11.333 20.667 -30 37.167 -56 49.5s-54 18.5 -84 18.5c-62.667 0 -117.167 -22.833 -163.5 -68.5s-69.5 -104.5 -69.5 -176.5
c0 -70.667 23.167 -128.667 69.5 -174s100.833 -68 163.5 -68c30 0 58.167 6.16699 84.5 18.5s44.833 28.833 55.5 49.5c7.33301 -110.667 -35.667 -166 -129 -166c-24 0 -47.667 7.16699 -71 21.5s-39 32.166 -47 53.499zM169.999 689.002h85c0 -35.333 16.333 -53 49 -53
c32 0 48 17.667 48 53h87c0 -39.333 -12.5 -71 -37.5 -95s-57.5 -36 -97.5 -36c-43.333 0 -76.5 12.833 -99.5 38.5s-34.5 56.5 -34.5 92.5z" />
    <glyph glyph-name="Gdotaccent" unicode="&#x120;" horiz-adv-x="756" 
d="M653 584l-108.002 -92.999c-41.333 46.667 -91.666 70 -150.999 70c-58 0 -106.833 -21.333 -146.5 -64s-59.5 -94 -59.5 -154s20 -111.5 60 -154.5s88.667 -64.5 146 -64.5c40 0 77.667 11.167 113 33.5s53.333 50.833 54 85.5h-185v119h354
c0 -124.667 -30.167 -217.834 -90.5 -279.501s-142.166 -92.5 -245.499 -92.5c-98.667 0 -182.167 34.5 -250.5 103.5s-102.5 152.167 -102.5 249.5c0 98 34.167 181.5 102.5 250.5s151.833 103.5 250.5 103.5c52 0 100.5 -10 145.5 -30s82.833 -47.667 113.5 -83z
M303.998 867.001c0 20.667 7.5 38.167 22.5 52.5s33.167 21.5 54.5 21.5s39.5 -7.16699 54.5 -21.5s22.5 -31.833 22.5 -52.5c0 -22 -7.33301 -40 -22 -54s-33 -21 -55 -21s-40.333 7 -55 21s-22 32 -22 54z" />
    <glyph glyph-name="gdotaccent" unicode="&#x121;" horiz-adv-x="608" 
d="M406 235c0 -32.667 -11.333 -59.833 -34 -81.5s-49 -32.5 -79 -32.5c-30.667 0 -57 10.5 -79 31.5s-33 48.5 -33 82.5c0 32 11 58.333 33 79s48.333 31 79 31s57.167 -10 79.5 -30s33.5 -46.667 33.5 -80zM162 -32.999c-11.333 -6 -29.834 -15.166 -55.501 -27.499
l-56.5 -27.5c20 -44 50.5 -79.167 91.5 -105.5s87.167 -39.5 138.5 -39.5c84.667 0 149.834 25 195.501 75s68.5 124.333 68.5 223v402h-135v-58c-11.333 20.667 -30 37.167 -56 49.5s-54 18.5 -84 18.5c-62.667 0 -117.167 -22.833 -163.5 -68.5s-69.5 -104.5 -69.5 -176.5
c0 -70.667 23.167 -128.667 69.5 -174s100.833 -68 163.5 -68c30 0 58.167 6.16699 84.5 18.5s44.833 28.833 55.5 49.5c7.33301 -110.667 -35.667 -166 -129 -166c-24 0 -47.667 7.16699 -71 21.5s-39 32.166 -47 53.499zM227.999 645.002c0 20.667 7.5 38.167 22.5 52.5
s33.167 21.5 54.5 21.5s39.5 -7.16699 54.5 -21.5s22.5 -31.833 22.5 -52.5c0 -22 -7.33301 -40 -22 -54s-33 -21 -55 -21s-40.333 7 -55 21s-22 32 -22 54z" />
    <glyph glyph-name="Gcommaaccent" unicode="&#x122;" horiz-adv-x="756" 
d="M653 584l-108.002 -92.999c-41.333 46.667 -91.666 70 -150.999 70c-58 0 -106.833 -21.333 -146.5 -64s-59.5 -94 -59.5 -154s20 -111.5 60 -154.5s88.667 -64.5 146 -64.5c40 0 77.667 11.167 113 33.5s53.333 50.833 54 85.5h-185v119h354
c0 -124.667 -30.167 -217.834 -90.5 -279.501s-142.166 -92.5 -245.499 -92.5c-98.667 0 -182.167 34.5 -250.5 103.5s-102.5 152.167 -102.5 249.5c0 98 34.167 181.5 102.5 250.5s151.833 103.5 250.5 103.5c52 0 100.5 -10 145.5 -30s82.833 -47.667 113.5 -83z
M361.998 -286.999l-68 35c22 30.667 37.333 60 46 88s12.667 64 12 108h117c-8 -101.333 -43.667 -178.333 -107 -231z" />
    <glyph glyph-name="gcommaaccent" unicode="&#x123;" horiz-adv-x="608" 
d="M406 235c0 -32.667 -11.333 -59.833 -34 -81.5s-49 -32.5 -79 -32.5c-30.667 0 -57 10.5 -79 31.5s-33 48.5 -33 82.5c0 32 11 58.333 33 79s48.333 31 79 31s57.167 -10 79.5 -30s33.5 -46.667 33.5 -80zM162 -32.999c-11.333 -6 -29.834 -15.166 -55.501 -27.499
l-56.5 -27.5c20 -44 50.5 -79.167 91.5 -105.5s87.167 -39.5 138.5 -39.5c84.667 0 149.834 25 195.501 75s68.5 124.333 68.5 223v402h-135v-58c-11.333 20.667 -30 37.167 -56 49.5s-54 18.5 -84 18.5c-62.667 0 -117.167 -22.833 -163.5 -68.5s-69.5 -104.5 -69.5 -176.5
c0 -70.667 23.167 -128.667 69.5 -174s100.833 -68 163.5 -68c30 0 58.167 6.16699 84.5 18.5s44.833 28.833 55.5 49.5c7.33301 -110.667 -35.667 -166 -129 -166c-24 0 -47.667 7.16699 -71 21.5s-39 32.166 -47 53.499zM320.999 785.002l68 -35
c-22 -30.667 -37.333 -60 -46 -88s-12.667 -64 -12 -108h-117c8 101.333 43.667 178.333 107 231z" />
    <glyph glyph-name="Hcircumflex" unicode="&#x124;" horiz-adv-x="701" 
d="M472 689h148v-689h-148v277h-245v-277h-146v689h146v-281h245v281zM281 933h138l110 -168h-100l-79 89l-78 -89h-100z" />
    <glyph glyph-name="hcircumflex" unicode="&#x125;" horiz-adv-x="579" 
d="M203 247l-0.00195312 -247.001h-139v721h139v-327c8.66699 26.667 26.334 47.167 53.001 61.5s52.667 21.5 78 21.5c60.667 0 107 -19.333 139 -58s48 -93.667 48 -165v-254h-139v249c0 28.667 -8.66699 51.334 -26 68.001s-37.333 25 -60 25
c-25.333 0 -47.166 -7.66699 -65.499 -23s-27.5 -39.333 -27.5 -72zM62.998 939.999h138l110 -168h-100l-79 89l-78 -89h-100z" />
    <glyph glyph-name="Hbar" unicode="&#x126;" horiz-adv-x="715" 
d="M88 512h-72v81h72v96h146v-96h245v96h148v-96h72v-81h-72v-512h-148v277h-245v-277h-146v512zM234 408h245v104h-245v-104z" />
    <glyph glyph-name="hbar" unicode="&#x127;" horiz-adv-x="579" 
d="M203 247l-0.00195312 -247.001h-139v557h-76v86h76v78h139v-78h148v-86h-148v-163c8.66699 26.667 26.334 47.167 53.001 61.5s52.667 21.5 78 21.5c60.667 0 107 -19.333 139 -58s48 -93.667 48 -165v-254h-139v249c0 28.667 -8.66699 51.334 -26 68.001
s-37.333 25 -60 25c-25.333 0 -47.166 -7.66699 -65.499 -23s-27.5 -39.333 -27.5 -72z" />
    <glyph glyph-name="Itilde" unicode="&#x128;" horiz-adv-x="308" 
d="M81 689h146v-689h-146v689zM111 828c-5.33301 0 -10.832 -3.66699 -16.499 -11s-8.83398 -18 -9.50098 -32h-75c2 44.667 13.167 77.5 33.5 98.5s42.833 31.5 67.5 31.5c15.333 0 32 -6.83301 50 -20.5s30.333 -20.5 37 -20.5c5.33301 0 10.833 3.33301 16.5 10
s8.83398 17 9.50098 31h75c-2 -44 -13.167 -76.333 -33.5 -97s-42.833 -31 -67.5 -31c-14.667 0 -31.334 6.83301 -50.001 20.5s-31 20.5 -37 20.5z" />
    <glyph glyph-name="itilde" unicode="&#x129;" horiz-adv-x="265" 
d="M64 467h137v-467h-137v467zM100 606c-5.33301 0 -10.832 -3.66699 -16.499 -11s-8.83398 -18 -9.50098 -32h-75c2 44.667 13.167 77.5 33.5 98.5s42.833 31.5 67.5 31.5c15.333 0 32 -6.83301 50 -20.5s30.333 -20.5 37 -20.5c5.33301 0 10.833 3.33301 16.5 10
s8.83398 17 9.50098 31h75c-2 -44 -13.167 -76.333 -33.5 -97s-42.833 -31 -67.5 -31c-14 0 -30.333 6.83301 -49 20.5s-31.334 20.5 -38.001 20.5z" />
    <glyph glyph-name="Imacron" unicode="&#x12a;" horiz-adv-x="308" 
d="M81 689h146v-689h-146v689zM15 809v85h278v-85h-278z" />
    <glyph glyph-name="imacron" unicode="&#x12b;" horiz-adv-x="265" 
d="M64 467h137v-467h-137v467zM-8 587v85h278v-85h-278z" />
    <glyph glyph-name="Ibreve" unicode="&#x12c;" horiz-adv-x="308" 
d="M81 689h146v-689h-146v689zM20 911h85c0 -35.333 16.333 -53 49 -53c32 0 48 17.667 48 53h87c0 -39.333 -12.5 -71 -37.5 -95s-57.5 -36 -97.5 -36c-43.333 0 -76.5 12.833 -99.5 38.5s-34.5 56.5 -34.5 92.5z" />
    <glyph glyph-name="ibreve" unicode="&#x12d;" horiz-adv-x="265" 
d="M201 467h-137v-467h137v467zM-2 689h85c0 -35.333 16.333 -53 49 -53c32 0 48 17.667 48 53h87c0 -39.333 -12.5 -71 -37.5 -95s-57.5 -36 -97.5 -36c-43.333 0 -76.5 12.833 -99.5 38.5s-34.5 56.5 -34.5 92.5z" />
    <glyph glyph-name="Iogonek" unicode="&#x12e;" horiz-adv-x="308" 
d="M226 0l-76 0.000976562l-37 -101c-7.33301 -20.667 -2.33301 -34.667 15 -42c19.333 -4.66699 32.333 1.66602 39 18.999l1 26l77 4c0.666992 -25.333 -2 -45 -8 -59c-8.66699 -20 -21.667 -35.833 -39 -47.5s-36 -17.5 -56 -17.5c-29.333 0 -54.5 10.167 -75.5 30.5
s-31.5 44.5 -31.5 72.5c0 20 3.33301 36.333 10 49l35 66v689h146v-689z" />
    <glyph glyph-name="iogonek" unicode="&#x12f;" horiz-adv-x="266" 
d="M134 0h68v467h-138v-467l-35 -66c-6.66699 -12 -10 -28.333 -10 -49c0 -28 10.5 -52.167 31.5 -72.5s46.167 -30.5 75.5 -30.5c20 0 38.667 5.83301 56 17.5s30.333 27.5 39 47.5c6 14 8.66699 33.667 8 59l-77 -4c1.33301 -8.66699 1 -17.334 -1 -26.001
c-6.66699 -17.333 -19.667 -23.666 -39 -18.999c-17.333 7.33301 -22.333 21.333 -15 42zM46 640c0 22.667 8.5 41.834 25.5 57.501s37.5 23.5 61.5 23.5c23.333 0 43.333 -7.83301 60 -23.5s25 -34.834 25 -57.501s-8.33301 -42 -25 -58s-36.667 -24 -60 -24
c-24 0 -44.5 8 -61.5 24s-25.5 35.333 -25.5 58z" />
    <glyph glyph-name="Idotaccent" unicode="&#x130;" horiz-adv-x="308" 
d="M81 689h146v-689h-146v689zM77 867c0 20.667 7.5 38.167 22.5 52.5s33.167 21.5 54.5 21.5s39.5 -7.16699 54.5 -21.5s22.5 -31.833 22.5 -52.5c0 -22 -7.33301 -40 -22 -54s-33 -21 -55 -21s-40.333 7 -55 21s-22 32 -22 54z" />
    <glyph glyph-name="dotlessi" unicode="&#x131;" horiz-adv-x="266" 
d="M202 467v-467h-138v467h138z" />
    <glyph glyph-name="IJ" unicode="&#x132;" horiz-adv-x="617" 
d="M81 689h146v-689h-146v689zM209 -219l13.002 132c21.333 -7.33301 50.666 -11 87.999 -11c26.667 0 46.5 8.83301 59.5 26.5s19.5 40.5 19.5 68.5v692h147v-692c0 -68.667 -18.333 -124.667 -55 -168s-93.667 -65 -171 -65c-20.667 0 -54.334 5.66699 -101.001 17z" />
    <glyph glyph-name="ij" unicode="&#x133;" horiz-adv-x="534" 
d="M202 467v-467h-138v467h138zM46 640c0 22.667 8.5 41.834 25.5 57.501s37.5 23.5 61.5 23.5c23.333 0 43.333 -7.83301 60 -23.5s25 -34.834 25 -57.501s-8.33301 -42 -25 -58s-36.667 -24 -60 -24c-24 0 -44.5 8 -61.5 24s-25.5 35.333 -25.5 58zM208 -235
l-0.000976562 126h61c42 0 62.333 24.667 61 74v502h140v-499c0 -65.333 -13.667 -115.5 -41 -150.5s-72.666 -52.5 -135.999 -52.5h-85zM312.999 640c0 22.667 8.5 41.834 25.5 57.501s37.5 23.5 61.5 23.5s44.333 -7.83301 61 -23.5s25 -34.834 25 -57.501
s-8.33301 -42 -25 -58s-37 -24 -61 -24s-44.5 8 -61.5 24s-25.5 35.333 -25.5 58z" />
    <glyph glyph-name="Jcircumflex" unicode="&#x134;" horiz-adv-x="309" 
d="M-99 -219l13.002 132c21.333 -7.33301 50.666 -11 87.999 -11c26.667 0 46.5 8.83301 59.5 26.5s19.5 40.5 19.5 68.5v692h147v-692c0 -68.667 -18.333 -124.667 -55 -168s-93.667 -65 -171 -65c-20.667 0 -54.334 5.66699 -101.001 17zM85.002 933h138l110 -168h-100
l-79 89l-78 -89h-100z" />
    <glyph glyph-name="jcircumflex" unicode="&#x135;" horiz-adv-x="268" 
d="M-58 -235l-0.000976562 126h61c42 0 62.333 24.667 61 74v502h140v-499c0 -65.333 -13.667 -115.5 -41 -150.5s-72.666 -52.5 -135.999 -52.5h-85zM76.999 711h138l110 -168h-100l-79 89l-78 -89h-100z" />
    <glyph glyph-name="Kcommaaccent" unicode="&#x136;" horiz-adv-x="609" 
d="M303 348l323 -348h-190l-207 234v-234h-148v689h148v-226l163 226h172zM288 -287l-68 35c22 30.667 37.333 60 46 88s12.667 64 12 108h117c-8 -101.333 -43.667 -178.333 -107 -231z" />
    <glyph glyph-name="kcommaaccent" unicode="&#x137;" horiz-adv-x="526" 
d="M202 185v-185h-138v721h138v-382l111 128h177l-194 -206l233 -261h-171zM231 -287l-68 35c22 30.667 37.333 60 46 88s12.667 64 12 108h117c-8 -101.333 -43.667 -178.333 -107 -231z" />
    <glyph glyph-name="kgreenlandic" unicode="&#x138;" horiz-adv-x="511" 
d="M328 0l-127 144v-144h-137v467h137v-136l114 136h173l-205 -230l226 -237h-181z" />
    <glyph glyph-name="Lacute" unicode="&#x139;" horiz-adv-x="511" 
d="M81 689v-689h405v129h-258v560h-147zM193 929h138l-148 -168h-100z" />
    <glyph glyph-name="lacute" unicode="&#x13a;" horiz-adv-x="267" 
d="M64 721h139v-721h-139v721zM175 939h138l-148 -168h-100z" />
    <glyph glyph-name="Lcommaaccent" unicode="&#x13b;" horiz-adv-x="511" 
d="M81 0v689h147v-560h258v-129h-405zM234 -287l-68 35c22 30.667 37.333 60 46 88s12.667 64 12 108h117c-8 -101.333 -43.667 -178.333 -107 -231z" />
    <glyph glyph-name="lcommaaccent" unicode="&#x13c;" horiz-adv-x="267" 
d="M64 721h139v-721h-139v721zM89 -287l-68 35c22 30.667 37.333 60 46 88s12.667 64 12 108h117c-8 -101.333 -43.667 -178.333 -107 -231z" />
    <glyph glyph-name="Lcaron" unicode="&#x13d;" horiz-adv-x="516" 
d="M81 0v689h147v-560h258v-129h-405zM380 428l-83.999 29c50 70.667 74.667 148 74 232h117c-4.66699 -60.667 -17.334 -114.167 -38.001 -160.5s-43.667 -79.833 -69 -100.5z" />
    <glyph glyph-name="lcaron" unicode="&#x13e;" horiz-adv-x="311" 
d="M64 721h139v-721h-139v721zM317 460l-83.999 29c50 70.667 74.667 148 74 232h117c-4.66699 -60.667 -17.334 -114.167 -38.001 -160.5s-43.667 -79.833 -69 -100.5z" />
    <glyph glyph-name="Ldot" unicode="&#x13f;" horiz-adv-x="511" 
d="M81 0v689h147v-560h258v-129h-405zM299 307c0 20.667 7.5 38.167 22.5 52.5s33.167 21.5 54.5 21.5s39.5 -7.16699 54.5 -21.5s22.5 -31.833 22.5 -52.5c0 -22 -7.33301 -40 -22 -54s-33 -21 -55 -21s-40.333 7 -55 21s-22 32 -22 54z" />
    <glyph glyph-name="ldot" unicode="&#x140;" horiz-adv-x="380" 
d="M64 721h139v-721h-139v721zM246 307c0 20.667 7.5 38.167 22.5 52.5s33.167 21.5 54.5 21.5s39.5 -7.16699 54.5 -21.5s22.5 -31.833 22.5 -52.5c0 -22 -7.33301 -40 -22 -54s-33 -21 -55 -21s-40.333 7 -55 21s-22 32 -22 54z" />
    <glyph glyph-name="Lslash" unicode="&#x141;" horiz-adv-x="519" 
d="M89 291l-72 -45v95l72 45v303h147v-211l93 58v-95l-93 -58v-254h258v-129h-405v291z" />
    <glyph glyph-name="lslash" unicode="&#x142;" horiz-adv-x="316" 
d="M240 721v-255l86 54v-95l-86 -54v-371h-139v284l-87 -54v95l87 54v342h139z" />
    <glyph glyph-name="Nacute" unicode="&#x143;" horiz-adv-x="679" 
d="M388 929h138l-148 -168h-100zM598 0v689h-147v-412l-236 412h-134v-689h146v417l240 -417h131z" />
    <glyph glyph-name="nacute" unicode="&#x144;" 
d="M203 247l0.000976562 -247h-139v467h139v-68c12.667 23.333 31.5 42.166 56.5 56.499s51.167 21.5 78.5 21.5c54 0 96 -16.667 126 -50s45 -82.666 45 -147.999v-279h-139v249c0 30 -7.33301 53 -22 69s-34.334 24 -59.001 24c-57.333 0 -86 -31.667 -86 -95z
M316.001 707h138l-148 -168h-100z" />
    <glyph glyph-name="Ncommaaccent" unicode="&#x145;" horiz-adv-x="679" 
d="M598 689v-689h-131l-240 411v-411h-146v689h134l236 -406v406h147zM304 -287l-68 35c22 30.667 37.333 60 46 88s12.667 64 12 108h117c-8 -101.333 -43.667 -178.333 -107 -231z" />
    <glyph glyph-name="ncommaaccent" unicode="&#x146;" 
d="M203 247l0.000976562 -247h-139v467h139v-68c12.667 23.333 31.5 42.166 56.5 56.499s51.167 21.5 78.5 21.5c54 0 96 -16.667 126 -50s45 -82.666 45 -147.999v-279h-139v249c0 30 -7.33301 53 -22 69s-34.334 24 -59.001 24c-57.333 0 -86 -31.667 -86 -95z
M254.001 -287l-68 35c22 30.667 37.333 60 46 88s12.667 64 12 108h117c-8 -101.333 -43.667 -178.333 -107 -231z" />
    <glyph glyph-name="Ncaron" unicode="&#x147;" horiz-adv-x="679" 
d="M408 760h-138l-109 168h100l78 -89l79 89h100zM598 689v-689h-131l-240 417v-417h-146v689h134l236 -412v412h147z" />
    <glyph glyph-name="ncaron" unicode="&#x148;" 
d="M203 247l0.000976562 -247h-139v467h139v-68c12.667 23.333 31.5 42.166 56.5 56.499s51.167 21.5 78.5 21.5c54 0 96 -16.667 126 -50s45 -82.666 45 -147.999v-279h-139v249c0 30 -7.33301 53 -22 69s-34.334 24 -59.001 24c-57.333 0 -86 -31.667 -86 -95z
M352.001 538h-138l-109 168h100l78 -89l79 89h100z" />
    <glyph glyph-name="napostrophe" unicode="&#x149;" 
d="M203 247l0.000976562 -247h-139v467h139v-68c12.667 23.333 31.5 42.166 56.5 56.499s51.167 21.5 78.5 21.5c54 0 96 -16.667 126 -50s45 -82.666 45 -147.999v-279h-139v249c0 30 -7.33301 53 -22 69s-34.334 24 -59.001 24c-57.333 0 -86 -31.667 -86 -95z
M-15.999 469l-75 22c19.333 26 31.5 52.667 36.5 80s4.5 57.333 -1.5 90h118c0.666992 -84.667 -25.333 -148.667 -78 -192z" />
    <glyph glyph-name="Eng" unicode="&#x14a;" horiz-adv-x="679" 
d="M459 16l-232.001 401v-417h-146v689h134l236 -412v412h147v-676c0 -70 -18 -127.167 -54 -171.5s-92.667 -66.5 -170 -66.5c-24 0 -58 5.66699 -102 17l15 144c26.667 -9.33301 58.334 -14 95.001 -14c24 1.33301 42.833 11.333 56.5 30s20.5 40 20.5 64z" />
    <glyph glyph-name="eng" unicode="&#x14b;" 
d="M509 279l0.00195312 -247c0 -66.667 -16.833 -120.667 -50.5 -162s-86.834 -62 -159.501 -62c-14.667 0 -35.667 3.33301 -63 10l13 128c17.333 -5.33301 34 -8 50 -8c24.667 0 42.667 8.83301 54 26.5s17 39.5 17 65.5v219c0 30 -7.33301 53 -22 69
s-34.334 24 -59.001 24c-57.333 0 -86 -31.667 -86 -95v-247h-139v467h139v-68c12.667 23.333 31.5 42.166 56.5 56.499s51.167 21.5 78.5 21.5c54 0 96 -16.667 126 -50s45 -82.666 45 -147.999z" />
    <glyph glyph-name="Omacron" unicode="&#x14c;" horiz-adv-x="781" 
d="M187 343c0 -58 19.667 -107.167 59 -147.5s87.333 -60.5 144 -60.5s104.834 20.333 144.501 61s59.5 89.667 59.5 147c0 58 -19.833 107.333 -59.5 148s-87.834 61 -144.501 61s-104.667 -20.333 -144 -61s-59 -90 -59 -148zM41 343c0 98 33.833 181.5 101.5 250.5
s150.167 103.5 247.5 103.5c98 0 180.833 -34.5 248.5 -103.5s101.5 -152.5 101.5 -250.5c0 -97.333 -34 -180.5 -102 -249.5s-150.667 -103.5 -248 -103.5s-179.833 34.5 -247.5 103.5s-101.5 152.167 -101.5 249.5zM251 809v85h278v-85h-278z" />
    <glyph glyph-name="omacron" unicode="&#x14d;" horiz-adv-x="557" 
d="M278 128c30 0 55.167 9.83301 75.5 29.5s30.5 45.5 30.5 77.5c0 30.667 -10.333 56 -31 76s-45.667 30 -75 30s-54.166 -10 -74.499 -30s-30.5 -45.333 -30.5 -76c0 -32 10.167 -57.833 30.5 -77.5s45.166 -29.5 74.499 -29.5zM278 -8c-68 0 -125.333 22.5 -172 67.5
s-70 103.5 -70 175.5s23.333 130.333 70 175s104 67 172 67s125.5 -22.333 172.5 -67s70.5 -103 70.5 -175s-23.5 -130.5 -70.5 -175.5s-104.5 -67.5 -172.5 -67.5zM139 587v85h278v-85h-278z" />
    <glyph glyph-name="Obreve" unicode="&#x14e;" horiz-adv-x="781" 
d="M187 343c0 58 19.667 107.333 59 148s87.333 61 144 61s104.834 -20.333 144.501 -61s59.5 -90 59.5 -148c0 -57.333 -19.833 -106.333 -59.5 -147s-87.834 -61 -144.501 -61s-104.667 20.167 -144 60.5s-59 89.5 -59 147.5zM41 343
c0 -97.333 33.833 -180.5 101.5 -249.5s150.167 -103.5 247.5 -103.5s180 34.5 248 103.5s102 152.167 102 249.5c0 98 -33.833 181.5 -101.5 250.5s-150.5 103.5 -248.5 103.5c-97.333 0 -179.833 -34.5 -247.5 -103.5s-101.5 -152.5 -101.5 -250.5zM256 911h85
c0 -35.333 16.333 -53 49 -53c32 0 48 17.667 48 53h87c0 -39.333 -12.5 -71 -37.5 -95s-57.5 -36 -97.5 -36c-43.333 0 -76.5 12.833 -99.5 38.5s-34.5 56.5 -34.5 92.5z" />
    <glyph glyph-name="obreve" unicode="&#x14f;" horiz-adv-x="557" 
d="M278 128c-29.333 0 -54.166 9.83301 -74.499 29.5s-30.5 45.5 -30.5 77.5c0 30.667 10.167 56 30.5 76s45.166 30 74.499 30s54.333 -10 75 -30s31 -45.333 31 -76c0 -32 -10.167 -57.833 -30.5 -77.5s-45.5 -29.5 -75.5 -29.5zM278 -8c68 0 125.5 22.5 172.5 67.5
s70.5 103.5 70.5 175.5s-23.5 130.333 -70.5 175s-104.5 67 -172.5 67s-125.333 -22.333 -172 -67s-70 -103 -70 -175s23.333 -130.5 70 -175.5s104 -67.5 172 -67.5zM144 689h85c0 -35.333 16.333 -53 49 -53c32 0 48 17.667 48 53h87c0 -39.333 -12.5 -71 -37.5 -95
s-57.5 -36 -97.5 -36c-43.333 0 -76.5 12.833 -99.5 38.5s-34.5 56.5 -34.5 92.5z" />
    <glyph glyph-name="Ohungarumlaut" unicode="&#x150;" horiz-adv-x="781" 
d="M187 343c0 -58 19.667 -107.167 59 -147.5s87.333 -60.5 144 -60.5s104.834 20.333 144.501 61s59.5 89.667 59.5 147c0 58 -19.833 107.333 -59.5 148s-87.834 61 -144.501 61s-104.667 -20.333 -144 -61s-59 -90 -59 -148zM41 343c0 98 33.833 181.5 101.5 250.5
s150.167 103.5 247.5 103.5c98 0 180.833 -34.5 248.5 -103.5s101.5 -152.5 101.5 -250.5c0 -97.333 -34 -180.5 -102 -249.5s-150.667 -103.5 -248 -103.5s-179.833 34.5 -247.5 103.5s-101.5 152.167 -101.5 249.5zM378 928h111l-121 -168h-100zM538 928h114l-132 -168
h-105z" />
    <glyph glyph-name="ohungarumlaut" unicode="&#x151;" horiz-adv-x="557" 
d="M278 128c30 0 55.167 9.83301 75.5 29.5s30.5 45.5 30.5 77.5c0 30.667 -10.333 56 -31 76s-45.667 30 -75 30s-54.166 -10 -74.499 -30s-30.5 -45.333 -30.5 -76c0 -32 10.167 -57.833 30.5 -77.5s45.166 -29.5 74.499 -29.5zM278 -8c-68 0 -125.333 22.5 -172 67.5
s-70 103.5 -70 175.5s23.333 130.333 70 175s104 67 172 67s125.5 -22.333 172.5 -67s70.5 -103 70.5 -175s-23.5 -130.5 -70.5 -175.5s-104.5 -67.5 -172.5 -67.5zM264 706h111l-121 -168h-100zM424 706h114l-132 -168h-105z" />
    <glyph glyph-name="OE" unicode="&#x152;" horiz-adv-x="1091" 
d="M596 620v69h436v-129h-290v-157h254v-127h-254v-147h299v-129h-445v67c-57.333 -51.333 -126 -77 -206 -77c-97.333 0 -179.833 34.5 -247.5 103.5s-101.5 152.167 -101.5 249.5c0 98 33.833 181.5 101.5 250.5s150.167 103.5 247.5 103.5c83.333 0 152 -25.667 206 -77z
M187 343c0 -58 19.667 -107.167 59 -147.5s87.333 -60.5 144 -60.5s104.834 20.333 144.501 61s59.5 89.667 59.5 147c0 58 -19.833 107.333 -59.5 148s-87.834 61 -144.501 61s-104.667 -20.333 -144 -61s-59 -90 -59 -148z" />
    <glyph glyph-name="oe" unicode="&#x153;" horiz-adv-x="901" 
d="M453 63c-46 -47.333 -104.334 -71 -175.001 -71c-68 0 -125.333 22.5 -172 67.5s-70 103.5 -70 175.5s23.333 130.333 70 175s104 67 172 67c70 0 128.667 -23.667 176 -71c46 47.333 105 71 177 71c67.333 0 124 -22.833 170 -68.5s69 -104.834 69 -177.501
c0 -12.667 -0.666992 -27 -2 -43h-342c3.33301 -25.333 16.5 -44.666 39.5 -57.999s48.167 -20 75.5 -20c45.333 0 79.333 14.667 102 44l101 -69c-42.667 -63.333 -113.667 -95 -213 -95c-71.333 0 -130.666 24.333 -177.999 73zM277.999 128
c30 0 55.167 9.83301 75.5 29.5s30.5 45.5 30.5 77.5c0 30.667 -10.333 56 -31 76s-45.667 30 -75 30s-54.166 -10 -74.499 -30s-30.5 -45.333 -30.5 -76c0 -32 10.167 -57.833 30.5 -77.5s45.166 -29.5 74.499 -29.5zM527.999 275h202.002
c-3.33301 26 -14.833 45.833 -34.5 59.5s-40.834 20.5 -63.501 20.5s-44.334 -6.66699 -65.001 -20s-33.667 -33.333 -39 -60z" />
    <glyph glyph-name="Racute" unicode="&#x154;" horiz-adv-x="637" 
d="M356 560c25.333 0 45.501 -10.167 60.501 -30.5s22.5 -42.5 22.5 -66.5c0 -24.667 -7.83301 -47 -23.5 -67s-36.834 -30 -63.501 -30h-124v194h128zM420.001 244c56 12 98.667 38.332 128 78.999s44 87.334 44 140.001c0 62 -19.833 115.167 -59.5 159.5
s-96.167 66.5 -169.5 66.5h-282v-689h147v238h33l154 -238h176zM341.001 928.999h138l-148 -168h-100z" />
    <glyph glyph-name="racute" unicode="&#x155;" horiz-adv-x="423" 
d="M182 707h138l-148 -168h-100zM203 163l-0.000976562 -163.001h-139v467h139v-113c11.333 40.667 29.5 71.334 54.5 92.001s50.833 31 77.5 31c30.667 0 57.334 -5.66699 80.001 -17l-25 -125c-19.333 9.33301 -43 14 -71 14c-77.333 0 -116 -62 -116 -186z" />
    <glyph glyph-name="Rcommaaccent" unicode="&#x156;" horiz-adv-x="637" 
d="M356 560h-128.001v-194h124c26.667 0 47.834 10 63.501 30s23.5 42.333 23.5 67c0 24 -7.5 46.167 -22.5 66.5s-35.167 30.5 -60.5 30.5zM419.999 244l171 -243.999h-176l-154 238h-33v-238h-147v689h282c73.333 0 129.833 -22.167 169.5 -66.5s59.5 -97.5 59.5 -159.5
c0 -52.667 -14.667 -99.334 -44 -140.001s-72 -67 -128 -79zM285.999 -286.999l-68 35c22 30.667 37.333 60 46 88s12.667 64 12 108h117c-8 -101.333 -43.667 -178.333 -107 -231z" />
    <glyph glyph-name="rcommaaccent" unicode="&#x157;" horiz-adv-x="423" 
d="M87 -287l-68 35c22 30.667 37.333 60 46 88s12.667 64 12 108h117c-8 -101.333 -43.667 -178.333 -107 -231zM203 163l-0.000976562 -163.001h-139v467h139v-113c11.333 40.667 29.5 71.334 54.5 92.001s50.833 31 77.5 31c30.667 0 57.334 -5.66699 80.001 -17l-25 -125
c-19.333 9.33301 -43 14 -71 14c-77.333 0 -116 -62 -116 -186z" />
    <glyph glyph-name="Rcaron" unicode="&#x158;" horiz-adv-x="637" 
d="M356 560h-128.001v-194h124c26.667 0 47.834 10 63.501 30s23.5 42.333 23.5 67c0 24 -7.5 46.167 -22.5 66.5s-35.167 30.5 -60.5 30.5zM419.999 244l171 -243.999h-176l-154 238h-33v-238h-147v689h282c73.333 0 129.833 -22.167 169.5 -66.5s59.5 -97.5 59.5 -159.5
c0 -52.667 -14.667 -99.334 -44 -140.001s-72 -67 -128 -79zM382.999 760.001h-138l-109 168h100l78 -89l79 89h100z" />
    <glyph glyph-name="rcaron" unicode="&#x159;" horiz-adv-x="423" 
d="M288 538h-138l-109 168h100l78 -89l79 89h100zM203 163l-0.000976562 -163.001h-139v467h139v-113c11.333 40.667 29.5 71.334 54.5 92.001s50.833 31 77.5 31c30.667 0 57.334 -5.66699 80.001 -17l-25 -125c-19.333 9.33301 -43 14 -71 14
c-77.333 0 -116 -62 -116 -186z" />
    <glyph glyph-name="Sacute" unicode="&#x15a;" horiz-adv-x="582" 
d="M191 202l-147.003 0.000976562c0 -62.667 23 -113.834 69 -153.501s106.333 -59.5 181 -59.5c42.667 0 82.167 7 118.5 21s66.833 36.833 91.5 68.5s37.334 69.167 38.001 112.5c3.33301 101.333 -59.667 170.666 -189 207.999l-82 26c-49.333 14 -74 37.333 -74 70
c0 20 8.33301 36.5 25 49.5s38 19.5 64 19.5c28.667 0 50.667 -7.16699 66 -21.5s23 -33.166 23 -56.499h146c0 64.667 -21.833 116 -65.5 154s-99.5 57 -167.5 57c-67.333 0 -123.666 -19.167 -168.999 -57.5s-68 -87.833 -68 -148.5c0 -95.333 59.333 -161.333 178 -198
l83 -23c32.667 -9.33301 54.834 -20.333 66.501 -33s17.167 -27.667 16.5 -45c-0.666992 -22 -10.167 -39.667 -28.5 -53s-42.5 -20 -72.5 -20c-31.333 0 -56 8 -74 24s-27.667 35.667 -29 59zM336.997 929.001h138l-148 -168h-100z" />
    <glyph glyph-name="sacute" unicode="&#x15b;" horiz-adv-x="467" 
d="M185 192l60.999 -15.999c16.667 -4.66699 28.5 -10 35.5 -16s10.5 -14 10.5 -24c0 -11.333 -5.5 -20.5 -16.5 -27.5s-24.5 -10.833 -40.5 -11.5c-18.667 0 -34.667 5.5 -48 16.5s-20.333 23.5 -21 37.5h-130c0.666992 -49.333 20.5 -88.5 59.5 -117.5
s84.167 -43.5 135.5 -43.5c54 0 101.167 12.667 141.5 38s60.5 61.333 60.5 108c0 14 -2.33301 28.167 -7 42.5s-17.167 31.166 -37.5 50.499s-47.833 33.666 -82.5 42.999l-79 21c-26 6.66699 -39.667 18.334 -41 35.001c-0.666992 10.667 3.5 19.167 12.5 25.5
s21.167 9.5 36.5 9.5c34.667 0 52.334 -13.667 53.001 -41h131c-0.666992 52.667 -19.667 91.667 -57 117s-82.333 38 -135 38c-48.667 0 -91 -13.5 -127 -40.5s-54.333 -57.833 -55 -92.5c-0.666992 -14.667 0 -27.167 2 -37.5s6.83301 -23.333 14.5 -39s22 -30 43 -43
s47.833 -23.833 80.5 -32.5zM278.999 707.001h138l-148 -168h-100z" />
    <glyph glyph-name="Scircumflex" unicode="&#x15c;" horiz-adv-x="582" 
d="M44 202l147.003 -0.000976562c1.33301 -23.333 11 -43 29 -59s42.667 -24 74 -24c30 0 54.167 6.66699 72.5 20s27.833 31 28.5 53c0.666992 17.333 -4.83301 32.333 -16.5 45s-33.834 23.667 -66.501 33l-83 23c-118.667 36.667 -178 102.667 -178 198
c0 60.667 22.667 110.167 68 148.5s101.666 57.5 168.999 57.5c68 0 123.833 -19 167.5 -57s65.5 -89.333 65.5 -154h-146c0 23.333 -7.66699 42.166 -23 56.499s-37.333 21.5 -66 21.5c-26 0 -47.333 -6.5 -64 -19.5s-25 -29.5 -25 -49.5c0 -32.667 24.667 -56 74 -70
l82 -26c129.333 -37.333 192.333 -106.666 189 -207.999c-0.666992 -43.333 -13.334 -80.833 -38.001 -112.5s-55.167 -54.5 -91.5 -68.5s-75.833 -21 -118.5 -21c-74.667 0 -135 19.833 -181 59.5s-69 90.834 -69 153.501zM224.003 932.999h138l110 -168h-100l-79 89
l-78 -89h-100z" />
    <glyph glyph-name="scircumflex" unicode="&#x15d;" horiz-adv-x="467" 
d="M246 176l-60.999 15.999c-32.667 8.66699 -59.5 19.5 -80.5 32.5s-35.333 27.333 -43 43s-12.5 28.667 -14.5 39s-2.66699 22.833 -2 37.5c0.666992 34.667 19 65.5 55 92.5s78.333 40.5 127 40.5c52.667 0 97.667 -12.667 135 -38s56.333 -64.333 57 -117h-131
c-0.666992 27.333 -18.334 41 -53.001 41c-15.333 0 -27.5 -3.16699 -36.5 -9.5s-13.167 -14.833 -12.5 -25.5c1.33301 -16.667 15 -28.334 41 -35.001l79 -21c34.667 -9.33301 62.167 -23.666 82.5 -42.999s32.833 -36.166 37.5 -50.499s7 -28.5 7 -42.5
c0 -46.667 -20.167 -82.667 -60.5 -108s-87.5 -38 -141.5 -38c-51.333 0 -96.5 14.5 -135.5 43.5s-58.833 68.167 -59.5 117.5h130c0.666992 -14 7.66699 -26.5 21 -37.5s29.333 -16.5 48 -16.5c16 0.666992 29.5 4.5 40.5 11.5s16.5 16.167 16.5 27.5
c0 10 -3.5 18 -10.5 24s-18.833 11.333 -35.5 16zM165.001 710.999h138l110 -168h-100l-79 89l-78 -89h-100z" />
    <glyph glyph-name="Scedilla" unicode="&#x15e;" horiz-adv-x="581" 
d="M266 -124c6.66699 -17.333 19.6689 -23.665 39.002 -18.998c18 8 23 22 15 42l-33 90c-73.333 1.33301 -132.333 21.666 -177 60.999s-67 90 -67 152h147c1.33301 -23.333 11 -43 29 -59s42.667 -24 74 -24c30 0 54.167 6.66699 72.5 20s27.833 31 28.5 53
c0.666992 17.333 -4.83301 32.333 -16.5 45s-33.834 23.667 -66.501 33l-83 23c-118.667 36.667 -178 102.667 -178 198c0 60.667 22.667 110.167 68 148.5s101.666 57.5 168.999 57.5c68 0 123.833 -19 167.5 -57s65.5 -89.333 65.5 -154h-146
c0 23.333 -7.66699 42.166 -23 56.499s-37.333 21.5 -66 21.5c-26 0 -47.333 -6.5 -64 -19.5s-25 -29.5 -25 -49.5c0 -32.667 24.667 -56 74 -70l82 -26c129.333 -37.333 192.333 -106.666 189 -207.999c-0.666992 -54 -18.5 -97.667 -53.5 -131s-79.167 -55 -132.5 -65
l33 -61c6.66699 -10.667 10 -27 10 -49c0 -28 -10.5 -52.167 -31.5 -72.5s-46.167 -30.5 -75.5 -30.5c-20 0 -38.667 5.83301 -56 17.5s-30.333 27.5 -39 47.5c-6 14 -8.66699 33.667 -8 59l77 -4c-1.33301 -8.66699 -1 -17.334 1 -26.001z" />
    <glyph glyph-name="scedilla" unicode="&#x15f;" horiz-adv-x="468" 
d="M208 -124c6.66699 -17.333 19.668 -23.665 39.001 -18.998c18 8 23 22 15 42l-34 91c-50.667 0.666992 -95.167 15.5 -133.5 44.5s-57.833 67.833 -58.5 116.5h130c0.666992 -14 7.66699 -26.5 21 -37.5s29.333 -16.5 48 -16.5c16 0.666992 29.5 4.5 40.5 11.5
s16.5 16.167 16.5 27.5c0 10 -3.5 18 -10.5 24s-18.833 11.333 -35.5 16l-61 16c-32.667 8.66699 -59.5 19.5 -80.5 32.5s-35.333 27.333 -43 43s-12.5 28.667 -14.5 39s-2.66699 22.833 -2 37.5c0.666992 34.667 19 65.5 55 92.5s78.333 40.5 127 40.5
c52.667 0 97.667 -12.667 135 -38s56.333 -64.333 57 -117h-131c-0.666992 27.333 -18.334 41 -53.001 41c-15.333 0 -27.5 -3.16699 -36.5 -9.5s-13.167 -14.833 -12.5 -25.5c1.33301 -16.667 15 -28.334 41 -35.001l79 -21c34.667 -9.33301 62.167 -23.666 82.5 -42.999
s32.833 -36.166 37.5 -50.499s7 -28.5 7 -42.5c0 -36.667 -12.833 -66.834 -38.5 -90.501s-58.5 -39.834 -98.5 -48.501l34 -63c6.66699 -10.667 10 -27 10 -49c0 -28 -10.5 -52.167 -31.5 -72.5s-46.167 -30.5 -75.5 -30.5c-20 0 -38.667 5.83301 -56 17.5
s-30.333 27.5 -39 47.5c-6 14 -8.66699 33.667 -8 59l77 -4c-1.33301 -8.66699 -1 -17.334 1 -26.001z" />
    <glyph glyph-name="Scaron" unicode="&#x160;" horiz-adv-x="582" 
d="M44 202l147.003 -0.000976562c1.33301 -23.333 11 -43 29 -59s42.667 -24 74 -24c30 0 54.167 6.66699 72.5 20s27.833 31 28.5 53c0.666992 17.333 -4.83301 32.333 -16.5 45s-33.834 23.667 -66.501 33l-83 23c-118.667 36.667 -178 102.667 -178 198
c0 60.667 22.667 110.167 68 148.5s101.666 57.5 168.999 57.5c68 0 123.833 -19 167.5 -57s65.5 -89.333 65.5 -154h-146c0 23.333 -7.66699 42.166 -23 56.499s-37.333 21.5 -66 21.5c-26 0 -47.333 -6.5 -64 -19.5s-25 -29.5 -25 -49.5c0 -32.667 24.667 -56 74 -70
l82 -26c129.333 -37.333 192.333 -106.666 189 -207.999c-0.666992 -43.333 -13.334 -80.833 -38.001 -112.5s-55.167 -54.5 -91.5 -68.5s-75.833 -21 -118.5 -21c-74.667 0 -135 19.833 -181 59.5s-69 90.834 -69 153.501zM362.003 759.999h-138l-109 168h100l78 -89l79 89
h100z" />
    <glyph glyph-name="scaron" unicode="&#x161;" horiz-adv-x="467" 
d="M246 176l-60.999 15.999c-32.667 8.66699 -59.5 19.5 -80.5 32.5s-35.333 27.333 -43 43s-12.5 28.667 -14.5 39s-2.66699 22.833 -2 37.5c0.666992 34.667 19 65.5 55 92.5s78.333 40.5 127 40.5c52.667 0 97.667 -12.667 135 -38s56.333 -64.333 57 -117h-131
c-0.666992 27.333 -18.334 41 -53.001 41c-15.333 0 -27.5 -3.16699 -36.5 -9.5s-13.167 -14.833 -12.5 -25.5c1.33301 -16.667 15 -28.334 41 -35.001l79 -21c34.667 -9.33301 62.167 -23.666 82.5 -42.999s32.833 -36.166 37.5 -50.499s7 -28.5 7 -42.5
c0 -46.667 -20.167 -82.667 -60.5 -108s-87.5 -38 -141.5 -38c-51.333 0 -96.5 14.5 -135.5 43.5s-58.833 68.167 -59.5 117.5h130c0.666992 -14 7.66699 -26.5 21 -37.5s29.333 -16.5 48 -16.5c16 0.666992 29.5 4.5 40.5 11.5s16.5 16.167 16.5 27.5
c0 10 -3.5 18 -10.5 24s-18.833 11.333 -35.5 16zM303.001 537.999h-138l-109 168h100l78 -89l79 89h100z" />
    <glyph glyph-name="Tcommaaccent" unicode="&#x162;" horiz-adv-x="576" 
d="M28 557v132h520v-132h-186v-557h-148v557h-186zM242 -287l-68 35c22 30.667 37.333 60 46 88s12.667 64 12 108h117c-8 -101.333 -43.667 -178.333 -107 -231z" />
    <glyph glyph-name="tcommaaccent" unicode="&#x163;" horiz-adv-x="365" 
d="M246 467h98v-110h-98v-357h-138v357h-85v110h85v179h138v-179zM130 -287l-68 35c22 30.667 37.333 60 46 88s12.667 64 12 108h117c-8 -101.333 -43.667 -178.333 -107 -231z" />
    <glyph glyph-name="Tcaron" unicode="&#x164;" horiz-adv-x="576" 
d="M28 557v132h520v-132h-186v-557h-148v557h-186zM357 760h-138l-109 168h100l78 -89l79 89h100z" />
    <glyph glyph-name="tcaron" unicode="&#x165;" horiz-adv-x="365" 
d="M246 467h98v-110h-98v-357h-138v357h-85v110h85v179h138v-179zM357 522l-68 35c22 30.667 37.333 60 46 88s12.667 64 12 108h117c-8 -101.333 -43.667 -178.333 -107 -231z" />
    <glyph glyph-name="Tbar" unicode="&#x166;" horiz-adv-x="576" 
d="M28 557v132h520v-132h-186v-557h-148v557h-186zM149 809v85h278v-85h-278z" />
    <glyph glyph-name="tbar" unicode="&#x167;" horiz-adv-x="366" 
d="M108 0v183h-53v77h53v97h-85v110h85v179h138v-179h98v-110h-98v-97h70v-77h-70v-183h-138z" />
    <glyph glyph-name="Utilde" unicode="&#x168;" horiz-adv-x="682" 
d="M342 128c32 0 59.833 11.167 83.5 33.5s35.5 50.5 35.5 84.5v443h147v-443c0 -76 -26 -137.667 -78 -185s-114.667 -71 -188 -71s-136.333 23.667 -189 71s-79 109 -79 185v443h149v-443c0 -34.667 11.833 -63 35.5 -85s51.5 -33 83.5 -33zM297 828
c-5.33301 0 -10.832 -3.66699 -16.499 -11s-8.83398 -18 -9.50098 -32h-75c2 44.667 13.167 77.5 33.5 98.5s42.833 31.5 67.5 31.5c15.333 0 32 -6.83301 50 -20.5s30.333 -20.5 37 -20.5c5.33301 0 10.833 3.33301 16.5 10s8.83398 17 9.50098 31h75
c-2 -44 -13.167 -76.333 -33.5 -97s-42.833 -31 -67.5 -31c-14.667 0 -31.334 6.83301 -50.001 20.5s-31 20.5 -37 20.5z" />
    <glyph glyph-name="utilde" unicode="&#x169;" 
d="M365 220v246.999h139v-467h-139v64c-12 -22.667 -29.333 -40.667 -52 -54s-45.667 -20 -69 -20c-54.667 0 -99.167 17 -133.5 51s-51.5 83 -51.5 147v279h139v-249c0 -33.333 8.66699 -57.166 26 -71.499s36.333 -21.5 57 -21.5c24 0 44 7.66699 60 23s24 39.333 24 72z
M248 605.999c-5.33301 0 -10.832 -3.66699 -16.499 -11s-8.83398 -18 -9.50098 -32h-75c2 44.667 13.167 77.5 33.5 98.5s42.833 31.5 67.5 31.5c15.333 0 32 -6.83301 50 -20.5s30.333 -20.5 37 -20.5c5.33301 0 10.833 3.33301 16.5 10s8.83398 17 9.50098 31h75
c-2 -44 -13.167 -76.333 -33.5 -97s-42.833 -31 -67.5 -31c-14 0 -30.333 6.83301 -49 20.5s-31.334 20.5 -38.001 20.5z" />
    <glyph glyph-name="Umacron" unicode="&#x16a;" horiz-adv-x="682" 
d="M342 128c32 0 59.833 11.167 83.5 33.5s35.5 50.5 35.5 84.5v443h147v-443c0 -76 -26 -137.667 -78 -185s-114.667 -71 -188 -71s-136.333 23.667 -189 71s-79 109 -79 185v443h149v-443c0 -34.667 11.833 -63 35.5 -85s51.5 -33 83.5 -33zM202 809v85h278v-85h-278z" />
    <glyph glyph-name="umacron" unicode="&#x16b;" 
d="M365 220v246.999h139v-467h-139v64c-12 -22.667 -29.333 -40.667 -52 -54s-45.667 -20 -69 -20c-54.667 0 -99.167 17 -133.5 51s-51.5 83 -51.5 147v279h139v-249c0 -33.333 8.66699 -57.166 26 -71.499s36.333 -21.5 57 -21.5c24 0 44 7.66699 60 23s24 39.333 24 72z
M152 586.999v85h278v-85h-278z" />
    <glyph glyph-name="Ubreve" unicode="&#x16c;" horiz-adv-x="682" 
d="M342 128c32 0 59.833 11.167 83.5 33.5s35.5 50.5 35.5 84.5v443h147v-443c0 -76 -26 -137.667 -78 -185s-114.667 -71 -188 -71s-136.333 23.667 -189 71s-79 109 -79 185v443h149v-443c0 -34.667 11.833 -63 35.5 -85s51.5 -33 83.5 -33zM206 911h85
c0 -35.333 16.333 -53 49 -53c32 0 48 17.667 48 53h87c0 -39.333 -12.5 -71 -37.5 -95s-57.5 -36 -97.5 -36c-43.333 0 -76.5 12.833 -99.5 38.5s-34.5 56.5 -34.5 92.5z" />
    <glyph glyph-name="ubreve" unicode="&#x16d;" 
d="M365 220v246.999h139v-467h-139v64c-12 -22.667 -29.333 -40.667 -52 -54s-45.667 -20 -69 -20c-54.667 0 -99.167 17 -133.5 51s-51.5 83 -51.5 147v279h139v-249c0 -33.333 8.66699 -57.166 26 -71.499s36.333 -21.5 57 -21.5c24 0 44 7.66699 60 23s24 39.333 24 72z
M157 688.999h85c0 -35.333 16.333 -53 49 -53c32 0 48 17.667 48 53h87c0 -39.333 -12.5 -71 -37.5 -95s-57.5 -36 -97.5 -36c-43.333 0 -76.5 12.833 -99.5 38.5s-34.5 56.5 -34.5 92.5z" />
    <glyph glyph-name="Uring" unicode="&#x16e;" horiz-adv-x="682" 
d="M342 128c32 0 59.833 11.167 83.5 33.5s35.5 50.5 35.5 84.5v443h147v-443c0 -76 -26 -137.667 -78 -185s-114.667 -71 -188 -71s-136.333 23.667 -189 71s-79 109 -79 185v443h149v-443c0 -34.667 11.833 -63 35.5 -85s51.5 -33 83.5 -33zM220 881
c0 34.667 11.667 63.834 35 87.501s51.666 35.5 84.999 35.5c34 0 62.833 -11.833 86.5 -35.5s35.5 -52.834 35.5 -87.501c0 -33.333 -11.833 -61.666 -35.5 -84.999s-52.5 -35 -86.5 -35c-33.333 0 -61.666 11.667 -84.999 35s-35 51.666 -35 84.999zM285 881
c0 -15.333 5.33301 -28.333 16 -39s23.667 -16 39 -16c16 0 29.5 5.33301 40.5 16s16.5 23.667 16.5 39c0 16.667 -5.5 30.5 -16.5 41.5s-24.5 16.5 -40.5 16.5c-15.333 0 -28.333 -5.5 -39 -16.5s-16 -24.833 -16 -41.5z" />
    <glyph glyph-name="uring" unicode="&#x16f;" 
d="M365 220v246.999h139v-467h-139v64c-12 -22.667 -29.333 -40.667 -52 -54s-45.667 -20 -69 -20c-54.667 0 -99.167 17 -133.5 51s-51.5 83 -51.5 147v279h139v-249c0 -33.333 8.66699 -57.166 26 -71.499s36.333 -21.5 57 -21.5c24 0 44 7.66699 60 23s24 39.333 24 72z
M170 658.999c0 34.667 11.667 63.834 35 87.501s51.666 35.5 84.999 35.5c34 0 62.833 -11.833 86.5 -35.5s35.5 -52.834 35.5 -87.501c0 -33.333 -11.833 -61.666 -35.5 -84.999s-52.5 -35 -86.5 -35c-33.333 0 -61.666 11.667 -84.999 35s-35 51.666 -35 84.999z
M235 658.999c0 -15.333 5.33301 -28.333 16 -39s23.667 -16 39 -16c16 0 29.5 5.33301 40.5 16s16.5 23.667 16.5 39c0 16.667 -5.5 30.5 -16.5 41.5s-24.5 16.5 -40.5 16.5c-15.333 0 -28.333 -5.5 -39 -16.5s-16 -24.833 -16 -41.5z" />
    <glyph glyph-name="Uhungarumlaut" unicode="&#x170;" horiz-adv-x="682" 
d="M342 128c32 0 59.833 11.167 83.5 33.5s35.5 50.5 35.5 84.5v443h147v-443c0 -76 -26 -137.667 -78 -185s-114.667 -71 -188 -71s-136.333 23.667 -189 71s-79 109 -79 185v443h149v-443c0 -34.667 11.833 -63 35.5 -85s51.5 -33 83.5 -33zM295 928h111l-121 -168h-100z
M455 928h114l-132 -168h-105z" />
    <glyph glyph-name="uhungarumlaut" unicode="&#x171;" 
d="M365 220v246.999h139v-467h-139v64c-12 -22.667 -29.333 -40.667 -52 -54s-45.667 -20 -69 -20c-54.667 0 -99.167 17 -133.5 51s-51.5 83 -51.5 147v279h139v-249c0 -33.333 8.66699 -57.166 26 -71.499s36.333 -21.5 57 -21.5c24 0 44 7.66699 60 23s24 39.333 24 72z
M247 705.999h111l-121 -168h-100zM407 705.999h114l-132 -168h-105z" />
    <glyph glyph-name="Uogonek" unicode="&#x172;" horiz-adv-x="684" 
d="M369 -9l-34.001 -91.999c-7.33301 -20.667 -2.33301 -34.667 15 -42c19.333 -4.66699 32.333 1.66602 39 18.999l1 26l77 4c0.666992 -25.333 -2 -45 -8 -59c-8.66699 -20 -21.667 -35.833 -39 -47.5s-36 -17.5 -56 -17.5c-29.333 0 -54.5 10.167 -75.5 30.5
s-31.5 44.5 -31.5 72.5c0 18.667 3.33301 35 10 49l32 60c-64 9.33301 -117.333 36.666 -160 81.999s-64 102 -64 170v443h149v-443c0 -34.667 11.833 -63 35.5 -85s51.5 -33 83.5 -33s59.833 11.167 83.5 33.5s35.5 50.5 35.5 84.5v443h147v-443
c0 -71.333 -23.167 -130.166 -69.5 -176.499s-103.166 -72.5 -170.499 -78.5z" />
    <glyph glyph-name="uogonek" unicode="&#x173;" 
d="M329 -66l36 66v64c-12 -22.667 -29.333 -40.667 -52 -54s-45.667 -20 -69 -20c-54.667 0 -99.167 17 -133.5 51s-51.5 83 -51.5 147v279h139v-249c0 -33.333 8.66699 -57.166 26 -71.499s36.333 -21.5 57 -21.5c24 0 44 7.66699 60 23s24 39.333 24 72v247h139v-467h-70
l-37 -101c-7.33301 -20.667 -2.33301 -34.667 15 -42c19.333 -4.66699 32.333 1.66602 39 18.999l1 26l77 4c0.666992 -25.333 -2 -45 -8 -59c-8.66699 -20 -21.667 -35.833 -39 -47.5s-36 -17.5 -56 -17.5c-29.333 0 -54.5 10.167 -75.5 30.5s-31.5 44.5 -31.5 72.5
c0 18.667 3.33301 35 10 49z" />
    <glyph glyph-name="Wcircumflex" unicode="&#x174;" horiz-adv-x="886" 
d="M594 255l135 434h159l-234 -689h-115l-97 362l-95 -362h-116l-232 689h158l134 -434l92 337h120zM374 933h138l110 -168h-100l-79 89l-78 -89h-100z" />
    <glyph glyph-name="wcircumflex" unicode="&#x175;" horiz-adv-x="763" 
d="M753 467l-164 -467h-116l-92 297l-88 -297h-116l-169 467h148l83 -278l82 278h119l82 -278l83 278h148zM311 711h138l110 -168h-100l-79 89l-78 -89h-100z" />
    <glyph glyph-name="Ycircumflex" unicode="&#x176;" horiz-adv-x="651" 
d="M400 0h-149v312l-266 377h174l166 -258l168 258h174l-267 -379v-310zM256 933h138l110 -168h-100l-79 89l-78 -89h-100z" />
    <glyph glyph-name="ycircumflex" unicode="&#x177;" horiz-adv-x="510" 
d="M506 467l-288 -696h-147l112 277l-180 419h148l103 -265l104 265h148zM188 711h138l110 -168h-100l-79 89l-78 -89h-100z" />
    <glyph glyph-name="Ydieresis" unicode="&#x178;" horiz-adv-x="651" 
d="M400 0h-149v312l-266 377h174l166 -258l168 258h174l-267 -379v-310zM165 860c0 18.667 7.16699 34.667 21.5 48s31.5 20 51.5 20c19.333 0 36 -6.66699 50 -20s21 -29.333 21 -48c0 -19.333 -7 -35.666 -21 -48.999s-30.667 -20 -50 -20c-20 0 -37.167 6.66699 -51.5 20
s-21.5 29.666 -21.5 48.999zM342 860c0 18.667 7.16699 34.667 21.5 48s31.5 20 51.5 20c19.333 0 36 -6.66699 50 -20s21 -29.333 21 -48c0 -19.333 -7 -35.666 -21 -48.999s-30.667 -20 -50 -20c-20 0 -37.167 6.66699 -51.5 20s-21.5 29.666 -21.5 48.999z" />
    <glyph glyph-name="Zacute" unicode="&#x179;" horiz-adv-x="595" 
d="M42 111l315 449h-302v129h492v-111l-318 -449h318v-129h-505v111zM335 929h138l-148 -168h-100z" />
    <glyph glyph-name="zacute" unicode="&#x17a;" horiz-adv-x="510" 
d="M462 467h-407v-128h206l-220 -236v-103h421v128h-224l224 235v104zM297 707h138l-148 -168h-100z" />
    <glyph glyph-name="Zdotaccent" unicode="&#x17b;" horiz-adv-x="595" 
d="M42 111l315 449h-302v129h492v-111l-318 -449h318v-129h-505v111zM217 867c0 20.667 7.5 38.167 22.5 52.5s33.167 21.5 54.5 21.5s39.5 -7.16699 54.5 -21.5s22.5 -31.833 22.5 -52.5c0 -22 -7.33301 -40 -22 -54s-33 -21 -55 -21s-40.333 7 -55 21s-22 32 -22 54z" />
    <glyph glyph-name="zdotaccent" unicode="&#x17c;" horiz-adv-x="510" 
d="M462 467h-407v-128h206l-220 -236v-103h421v128h-224l224 235v104zM174 645c0 20.667 7.5 38.167 22.5 52.5s33.167 21.5 54.5 21.5s39.5 -7.16699 54.5 -21.5s22.5 -31.833 22.5 -52.5c0 -22 -7.33301 -40 -22 -54s-33 -21 -55 -21s-40.333 7 -55 21s-22 32 -22 54z" />
    <glyph glyph-name="Zcaron" unicode="&#x17d;" horiz-adv-x="595" 
d="M42 111l315 449h-302v129h492v-111l-318 -449h318v-129h-505v111zM363 760h-138l-109 168h100l78 -89l79 89h100z" />
    <glyph glyph-name="zcaron" unicode="&#x17e;" horiz-adv-x="510" 
d="M55 467h407v-104l-224 -235h224v-128h-421v103l220 236h-206v128zM320 538h-138l-109 168h100l78 -89l79 89h100z" />
    <glyph glyph-name="longs" unicode="&#x17f;" horiz-adv-x="335" 
d="M373 721v-132.999h-51c-47.333 0 -71 -29.667 -71 -89v-499h-140v357h-88v110h88v32c0 71.333 18.333 126.166 55 164.499s88.667 57.5 156 57.5h51z" />
    <glyph glyph-name="florin" unicode="&#x192;" horiz-adv-x="627" 
d="M30 -192l27.001 133.001h51c46.667 0 76 29.667 88 89l66 327h-88l22 110h88l7 32c14 71.333 43.167 126.166 87.5 164.499s100.166 57.5 167.499 57.5h51l-26 -133h-51c-47.333 0 -77 -29.667 -89 -89l-7 -32h94l-22 -110h-94l-73 -365
c-12 -57.333 -40.833 -102.333 -86.5 -135s-99.5 -49 -161.5 -49h-51z" />
    <glyph glyph-name="Aringacute" unicode="&#x1fa;" horiz-adv-x="659" 
d="M259 290h143l-73 240zM449 163h-238l-61 -163h-156l256 689h159l255 -689h-154zM376 1113h137.999l-120 -136c38.667 -24 58 -59 58 -105c0 -33.333 -11.833 -61.666 -35.5 -84.999s-52.5 -35 -86.5 -35c-33.333 0 -61.666 11.667 -84.999 35s-35 51.666 -35 84.999
c0 27.333 8 52 24 74s36.333 36.667 61 44zM274.999 872c0 -15.333 5.33301 -28.333 16 -39s23.667 -16 39 -16c16 0 29.5 5.33301 40.5 16s16.5 23.667 16.5 39c0 16.667 -5.5 30.5 -16.5 41.5s-24.5 16.5 -40.5 16.5c-15.333 0 -28.333 -5.5 -39 -16.5
s-16 -24.833 -16 -41.5z" />
    <glyph glyph-name="aringacute" unicode="&#x1fb;" horiz-adv-x="612" 
d="M410 0v53c-13.333 -20 -33.833 -35.333 -61.5 -46s-52.5 -16 -74.5 -16c-62.667 0 -118 22.5 -166 67.5s-72 103.5 -72 175.5s24 130.5 72 175.5s103.333 67.5 166 67.5c22 0 46.167 -4.66699 72.5 -14s47.5 -25.333 63.5 -48v52h138v-467h-138zM352 900h137.999
l-120 -136c38.667 -24 58 -59 58 -105c0 -33.333 -11.833 -61.666 -35.5 -84.999s-52.5 -35 -86.5 -35c-33.333 0 -61.666 11.667 -84.999 35s-35 51.666 -35 84.999c0 27.333 8 52 24 74s36.333 36.667 61 44zM179.999 234c0 -32 11.833 -58.498 35.5 -79.498
s50.834 -31.5 81.501 -31.5c30 0 56.333 10.167 79 30.5s34 47.166 34 80.499s-11.333 60.166 -34 80.499s-49 30.5 -79 30.5c-30.667 0 -57.834 -10.5 -81.501 -31.5s-35.5 -47.5 -35.5 -79.5zM250.999 659.002c0 -15.333 5.33301 -28.333 16 -39s23.667 -16 39 -16
c16 0 29.5 5.33301 40.5 16s16.5 23.667 16.5 39c0 16.667 -5.5 30.5 -16.5 41.5s-24.5 16.5 -40.5 16.5c-15.333 0 -28.333 -5.5 -39 -16.5s-16 -24.833 -16 -41.5z" />
    <glyph glyph-name="AEacute" unicode="&#x1fc;" horiz-adv-x="934" 
d="M875 689h-461l-435 -689h175l100 158h184v-158l1 1v-1h445v129h-299v147h254v127h-254v157h290v129zM337 299l101 194v-194h-101zM556 929h138l-148 -168h-100z" />
    <glyph glyph-name="aeacute" unicode="&#x1fd;" horiz-adv-x="970" 
d="M541 707h138l-148 -168h-100zM812 154l101 -69c-42.667 -63.333 -113.667 -95 -213 -95c-57.333 0 -108 16.667 -152 50v-40h-138v53c-13.333 -20 -33.833 -35.333 -61.5 -46s-52.5 -16 -74.5 -16c-62.667 0 -118 22.5 -166 67.5s-72 103.5 -72 175.5s24 130.5 72 175.5
s103.333 67.5 166 67.5c22 0 46.167 -4.66699 72.5 -14s47.5 -25.333 63.5 -48v52h138v-39c44 32.667 94.667 49 152 49c68 0 124.833 -22.833 170.5 -68.5s68.5 -104.834 68.5 -177.501c0 -12.667 -0.666992 -27 -2 -43h-342c3.33301 -25.333 16.5 -44.666 39.5 -57.999
s48.167 -20 75.5 -20c45.333 0 79.333 14.667 102 44zM180 234c0 -32 11.833 -58.498 35.5 -79.498s50.834 -31.5 81.501 -31.5c30 0 56.333 10.167 79 30.5s34 47.166 34 80.499s-11.333 60.166 -34 80.499s-49 30.5 -79 30.5c-30.667 0 -57.834 -10.5 -81.501 -31.5
s-35.5 -47.5 -35.5 -79.5zM597 275.002h202.002c-3.33301 26 -14.833 45.833 -34.5 59.5s-40.834 20.5 -63.501 20.5s-44.334 -6.66699 -65.001 -20s-33.667 -33.333 -39 -60z" />
    <glyph glyph-name="Oslashacute" unicode="&#x1fe;" horiz-adv-x="779" 
d="M452 929h138l-148 -168h-100zM170 66l0.999023 1c63.333 -51.333 136 -77 218 -77c97.333 0 180 34.5 248 103.5s102 152.167 102 249.5c0 84.667 -27 160 -81 226l80 82l-47 46l-79 -81c-63.333 54 -137.666 81 -222.999 81c-97.333 0 -179.833 -34.5 -247.5 -103.5
s-101.5 -152.5 -101.5 -250.5c0 -87.333 27.667 -164 83 -230l-80 -82l47 -47zM185.999 343c0 58 19.667 107.332 59 147.999s87.333 61 144 61c46 0 86.333 -13.667 121 -41l-285 -293c-26 36.667 -39 78.334 -39 125.001zM388.999 134.999
c-44 0 -82.999 12.333 -116.999 37l283 291c25.333 -36 38 -76 38 -120c0 -57.333 -19.833 -106.333 -59.5 -147s-87.834 -61 -144.501 -61z" />
    <glyph glyph-name="oslashacute" unicode="&#x1ff;" horiz-adv-x="557" 
d="M314 707h138l-148 -168h-100zM278 -8c68 0 125.5 22.5 172.5 67.5s70.5 103.5 70.5 175.5c0 55.333 -15.667 104 -47 146l53 54l-47 46l-52 -54c-45.333 33.333 -95.333 50 -150 50c-68 0 -125.333 -22.333 -172 -67s-70 -103 -70 -175c0 -61.333 17.333 -113 52 -155
l-56 -58l47 -47l58 59c41.333 -28 88.333 -42 141 -42zM278 341c16.667 0 33.668 -4.66699 51.001 -14l-143 -146c-8.66699 14.667 -13 32.667 -13 54c0 30.667 10.167 56 30.5 76s45.166 30 74.499 30zM278.001 128c-16.667 0 -30.667 2.66699 -42 8l139 143
c6 -15.333 9 -30 9 -44c0 -32 -10.167 -57.833 -30.5 -77.5s-45.5 -29.5 -75.5 -29.5z" />
    <glyph glyph-name="Scommaaccent" unicode="&#x218;" horiz-adv-x="582" 
d="M44 202l147.003 -0.000976562c1.33301 -23.333 11 -43 29 -59s42.667 -24 74 -24c30 0 54.167 6.66699 72.5 20s27.833 31 28.5 53c0.666992 17.333 -4.83301 32.333 -16.5 45s-33.834 23.667 -66.501 33l-83 23c-118.667 36.667 -178 102.667 -178 198
c0 60.667 22.667 110.167 68 148.5s101.666 57.5 168.999 57.5c68 0 123.833 -19 167.5 -57s65.5 -89.333 65.5 -154h-146c0 23.333 -7.66699 42.166 -23 56.499s-37.333 21.5 -66 21.5c-26 0 -47.333 -6.5 -64 -19.5s-25 -29.5 -25 -49.5c0 -32.667 24.667 -56 74 -70
l82 -26c129.333 -37.333 192.333 -106.666 189 -207.999c-0.666992 -43.333 -13.334 -80.833 -38.001 -112.5s-55.167 -54.5 -91.5 -68.5s-75.833 -21 -118.5 -21c-74.667 0 -135 19.833 -181 59.5s-69 90.834 -69 153.501zM243.003 -287.001l-68 35
c22 30.667 37.333 60 46 88s12.667 64 12 108h117c-8 -101.333 -43.667 -178.333 -107 -231z" />
    <glyph glyph-name="scommaaccent" unicode="&#x219;" horiz-adv-x="467" 
d="M246 176l-60.999 15.999c-32.667 8.66699 -59.5 19.5 -80.5 32.5s-35.333 27.333 -43 43s-12.5 28.667 -14.5 39s-2.66699 22.833 -2 37.5c0.666992 34.667 19 65.5 55 92.5s78.333 40.5 127 40.5c52.667 0 97.667 -12.667 135 -38s56.333 -64.333 57 -117h-131
c-0.666992 27.333 -18.334 41 -53.001 41c-15.333 0 -27.5 -3.16699 -36.5 -9.5s-13.167 -14.833 -12.5 -25.5c1.33301 -16.667 15 -28.334 41 -35.001l79 -21c34.667 -9.33301 62.167 -23.666 82.5 -42.999s32.833 -36.166 37.5 -50.499s7 -28.5 7 -42.5
c0 -46.667 -20.167 -82.667 -60.5 -108s-87.5 -38 -141.5 -38c-51.333 0 -96.5 14.5 -135.5 43.5s-58.833 68.167 -59.5 117.5h130c0.666992 -14 7.66699 -26.5 21 -37.5s29.333 -16.5 48 -16.5c16 0.666992 29.5 4.5 40.5 11.5s16.5 16.167 16.5 27.5
c0 10 -3.5 18 -10.5 24s-18.833 11.333 -35.5 16zM195.001 -287.001l-68 35c22 30.667 37.333 60 46 88s12.667 64 12 108h117c-8 -101.333 -43.667 -178.333 -107 -231z" />
    <glyph glyph-name="circumflex" unicode="&#x2c6;" horiz-adv-x="567" 
d="M214 711h138l110 -168h-100l-79 89l-78 -89h-100z" />
    <glyph glyph-name="caron" unicode="&#x2c7;" horiz-adv-x="567" 
d="M352 538h-138l-109 168h100l78 -89l79 89h100z" />
    <glyph glyph-name="breve" unicode="&#x2d8;" horiz-adv-x="509" 
d="M120 689h85c0 -35.333 16.333 -53 49 -53c32 0 48 17.667 48 53h87c0 -39.333 -12.5 -71 -37.5 -95s-57.5 -36 -97.5 -36c-43.333 0 -76.5 12.833 -99.5 38.5s-34.5 56.5 -34.5 92.5z" />
    <glyph glyph-name="dotaccent" unicode="&#x2d9;" horiz-adv-x="386" 
d="M116 645c0 20.667 7.5 38.167 22.5 52.5s33.167 21.5 54.5 21.5s39.5 -7.16699 54.5 -21.5s22.5 -31.833 22.5 -52.5c0 -22 -7.33301 -40 -22 -54s-33 -21 -55 -21s-40.333 7 -55 21s-22 32 -22 54z" />
    <glyph glyph-name="ring" unicode="&#x2da;" horiz-adv-x="562" 
d="M160 659c0 34.667 11.667 63.834 35 87.501s51.666 35.5 84.999 35.5c34 0 62.833 -11.833 86.5 -35.5s35.5 -52.834 35.5 -87.501c0 -33.333 -11.833 -61.666 -35.5 -84.999s-52.5 -35 -86.5 -35c-33.333 0 -61.666 11.667 -84.999 35s-35 51.666 -35 84.999zM225 659
c0 -15.333 5.33301 -28.333 16 -39s23.667 -16 39 -16c16 0 29.5 5.33301 40.5 16s16.5 23.667 16.5 39c0 16.667 -5.5 30.5 -16.5 41.5s-24.5 16.5 -40.5 16.5c-15.333 0 -28.333 -5.5 -39 -16.5s-16 -24.833 -16 -41.5z" />
    <glyph glyph-name="ogonek" unicode="&#x2db;" horiz-adv-x="531" 
d="M292 -124l1 26.001l77 4c0.666992 -25.333 -2 -45 -8 -59c-8.66699 -20 -21.667 -35.833 -39 -47.5s-36 -17.5 -56 -17.5c-29.333 0 -54.5 10.167 -75.5 30.5s-31.5 44.5 -31.5 72.5c0 18.667 3.33301 35 10 49l50 93h65l-47 -128c-8 -20 -3 -34 15 -42
c19.333 -4.66699 32.333 1.66602 39 18.999z" />
    <glyph glyph-name="tilde" unicode="&#x2dc;" horiz-adv-x="449" 
d="M179 606c-5.33301 0 -10.832 -3.66699 -16.499 -11s-8.83398 -18 -9.50098 -32h-75c2 44.667 13.167 77.5 33.5 98.5s42.833 31.5 67.5 31.5c15.333 0 32 -6.83301 50 -20.5s30.333 -20.5 37 -20.5c5.33301 0 10.833 3.33301 16.5 10s8.83398 17 9.50098 31h75
c-2 -44 -13.167 -76.333 -33.5 -97s-42.833 -31 -67.5 -31c-14.667 0 -31.334 6.83301 -50.001 20.5s-31 20.5 -37 20.5z" />
    <glyph glyph-name="hungarumlaut" unicode="&#x2dd;" horiz-adv-x="544" 
d="M190 706h111l-121 -168h-100zM350 706h114l-132 -168h-105z" />
    <glyph glyph-name="Wgrave" unicode="&#x1e80;" horiz-adv-x="886" 
d="M594 255l135 434h159l-234 -689h-115l-97 362l-95 -362h-116l-232 689h158l134 -434l92 337h120zM259 929h138l110 -168h-100z" />
    <glyph glyph-name="wgrave" unicode="&#x1e81;" horiz-adv-x="763" 
d="M753 467l-164 -467h-116l-92 297l-88 -297h-116l-169 467h148l83 -278l82 278h119l82 -278l83 278h148zM188 707h138l110 -168h-100z" />
    <glyph glyph-name="Wacute" unicode="&#x1e82;" horiz-adv-x="886" 
d="M729 689l-135 -434l-91 337h-120l-92 -337l-134 434h-158l232 -689h116l95 362l97 -362h115l234 689h-159zM488 929h138l-148 -168h-100z" />
    <glyph glyph-name="wacute" unicode="&#x1e83;" horiz-adv-x="763" 
d="M589 0l164 467h-148l-83 -278l-82 278h-119l-82 -278l-83 278h-148l169 -467h116l88 297l92 -297h116zM429 707h138l-148 -168h-100z" />
    <glyph glyph-name="Wdieresis" unicode="&#x1e84;" horiz-adv-x="886" 
d="M729 689l-135 -434l-91 337h-120l-92 -337l-134 434h-158l232 -689h116l95 362l97 -362h115l234 689h-159zM283 860c0 18.667 7.16699 34.667 21.5 48s31.5 20 51.5 20c19.333 0 36 -6.66699 50 -20s21 -29.333 21 -48c0 -19.333 -7 -35.666 -21 -48.999
s-30.667 -20 -50 -20c-20 0 -37.167 6.66699 -51.5 20s-21.5 29.666 -21.5 48.999zM460 860c0 18.667 7.16699 34.667 21.5 48s31.5 20 51.5 20c19.333 0 36 -6.66699 50 -20s21 -29.333 21 -48c0 -19.333 -7 -35.666 -21 -48.999s-30.667 -20 -50 -20
c-20 0 -37.167 6.66699 -51.5 20s-21.5 29.666 -21.5 48.999z" />
    <glyph glyph-name="wdieresis" unicode="&#x1e85;" horiz-adv-x="763" 
d="M589 0l164 467h-148l-83 -278l-82 278h-119l-82 -278l-83 278h-148l169 -467h116l88 297l92 -297h116zM220 638c0 18.667 7.16699 34.667 21.5 48s31.5 20 51.5 20c19.333 0 36 -6.66699 50 -20s21 -29.333 21 -48c0 -19.333 -7 -35.666 -21 -48.999s-30.667 -20 -50 -20
c-20 0 -37.167 6.66699 -51.5 20s-21.5 29.666 -21.5 48.999zM397 638c0 18.667 7.16699 34.667 21.5 48s31.5 20 51.5 20c19.333 0 36 -6.66699 50 -20s21 -29.333 21 -48c0 -19.333 -7 -35.666 -21 -48.999s-30.667 -20 -50 -20c-20 0 -37.167 6.66699 -51.5 20
s-21.5 29.666 -21.5 48.999z" />
    <glyph glyph-name="Ygrave" unicode="&#x1ef2;" horiz-adv-x="651" 
d="M400 0h-149v312l-266 377h174l166 -258l168 258h174l-267 -379v-310zM152 929h138l110 -168h-100z" />
    <glyph glyph-name="ygrave" unicode="&#x1ef3;" horiz-adv-x="510" 
d="M506 467l-288 -696h-147l112 277l-180 419h148l103 -265l104 265h148zM102 707h138l110 -168h-100z" />
    <glyph glyph-name="thinspace" unicode="&#x2009;" horiz-adv-x="14" 
 />
    <glyph glyph-name="endash" unicode="&#x2013;" horiz-adv-x="634" 
d="M60 173v124h514v-124h-514z" />
    <glyph glyph-name="emdash" unicode="&#x2014;" horiz-adv-x="847" 
d="M60 173v124h727v-124h-727z" />
    <glyph glyph-name="quoteleft" unicode="&#x2018;" horiz-adv-x="281" 
d="M202 697l54 -31.001c-16.667 -23.333 -28 -39.666 -34 -48.999s-15 -26 -27 -50s-20.5 -48.833 -25.5 -74.5s-7.5 -54.5 -7.5 -86.5h-114c0 56 17.5 112 52.5 168s68.833 97 101.5 123z" />
    <glyph glyph-name="quoteright" unicode="&#x2019;" horiz-adv-x="272" 
d="M88 406l-54 31.001c16.667 23.333 28 39.666 34 48.999s15 26 27 50s20.5 48.833 25.5 74.5s7.5 54.5 7.5 86.5h114c0 -56 -17.5 -112 -52.5 -168s-68.833 -97 -101.5 -123z" />
    <glyph glyph-name="quotesinglbase" unicode="&#x201a;" horiz-adv-x="256" 
d="M42 -124l-54 31.001c16.667 23.333 28 39.666 34 48.999s15 26 27 50s20.5 48.833 25.5 74.5s7.5 54.5 7.5 86.5h114c0 -56 -17.5 -112 -52.5 -168s-68.833 -97 -101.5 -123z" />
    <glyph glyph-name="quotedblleft" unicode="&#x201c;" horiz-adv-x="452" 
d="M373 697l54 -31.001c-16.667 -23.333 -28 -39.666 -34 -48.999s-15 -26 -27 -50s-20.5 -48.833 -25.5 -74.5s-7.5 -54.5 -7.5 -86.5h-114c0 56 17.5 112 52.5 168s68.833 97 101.5 123zM202 696.999l54 -31.001c-16.667 -23.333 -28 -39.666 -34 -48.999s-15 -26 -27 -50
s-20.5 -48.833 -25.5 -74.5s-7.5 -54.5 -7.5 -86.5h-114c0 56 17.5 112 52.5 168s68.833 97 101.5 123z" />
    <glyph glyph-name="quotedblright" unicode="&#x201d;" horiz-adv-x="443" 
d="M88 406l-54 31.001c16.667 23.333 28 39.666 34 48.999s15 26 27 50s20.5 48.833 25.5 74.5s7.5 54.5 7.5 86.5h114c0 -56 -17.5 -112 -52.5 -168s-68.833 -97 -101.5 -123zM259 406.001l-54 31.001c16.667 23.333 28 39.666 34 48.999s15 26 27 50
s20.5 48.833 25.5 74.5s7.5 54.5 7.5 86.5h114c0 -56 -17.5 -112 -52.5 -168s-68.833 -97 -101.5 -123z" />
    <glyph glyph-name="quotedblbase" unicode="&#x201e;" horiz-adv-x="427" 
d="M42 -124l-54 31.001c16.667 23.333 28 39.666 34 48.999s15 26 27 50s20.5 48.833 25.5 74.5s7.5 54.5 7.5 86.5h114c0 -56 -17.5 -112 -52.5 -168s-68.833 -97 -101.5 -123zM213 -123.999l-54 31.001c16.667 23.333 28 39.666 34 48.999s15 26 27 50
s20.5 48.833 25.5 74.5s7.5 54.5 7.5 86.5h114c0 -56 -17.5 -112 -52.5 -168s-68.833 -97 -101.5 -123z" />
    <glyph glyph-name="dagger" unicode="&#x2020;" horiz-adv-x="410" 
d="M267 689v-163h105v-98h-105v-521h-124v521h-105v98h105v163h124z" />
    <glyph glyph-name="daggerdbl" unicode="&#x2021;" horiz-adv-x="442" 
d="M283 689v-163h105v-98h-105v-200h105v-97h-105v-224h-124v224h-105v97h105v200h-105v98h105v163h124z" />
    <glyph glyph-name="bullet" unicode="&#x2022;" horiz-adv-x="488" 
d="M84 238c0 44 15.667 80.667 47 110s69 44 113 44s81.667 -14.667 113 -44s47 -66 47 -110s-15.667 -80.667 -47 -110s-69 -44 -113 -44s-81.667 14.667 -113 44s-47 66 -47 110z" />
    <glyph glyph-name="ellipsis" unicode="&#x2026;" horiz-adv-x="865" 
d="M53 74c0 24 8.33301 43.833 25 59.5s37 23.5 61 23.5s44.5 -8 61.5 -24s25.5 -35.667 25.5 -59c0 -24 -8.5 -44 -25.5 -60s-37.5 -24 -61.5 -24s-44.333 8 -61 24s-25 36 -25 60zM346 74c0 24 8.33301 43.833 25 59.5s37 23.5 61 23.5s44.5 -8 61.5 -24
s25.5 -35.667 25.5 -59c0 -24 -8.5 -44 -25.5 -60s-37.5 -24 -61.5 -24s-44.333 8 -61 24s-25 36 -25 60zM639 74c0 24 8.33301 43.833 25 59.5s37 23.5 61 23.5s44.5 -8 61.5 -24s25.5 -35.667 25.5 -59c0 -24 -8.5 -44 -25.5 -60s-37.5 -24 -61.5 -24s-44.333 8 -61 24
s-25 36 -25 60z" />
    <glyph glyph-name="perthousand" unicode="&#x2030;" horiz-adv-x="1013" 
d="M540 655h-69l-322 -655h69zM37 528c0 37.333 12.833 69 38.5 95s57.167 39 94.5 39s69 -13 95 -39s39 -57.667 39 -95s-13 -68.833 -39 -94.5s-57.667 -38.5 -95 -38.5s-68.833 12.833 -94.5 38.5s-38.5 57.167 -38.5 94.5zM118 528c0 -14.667 5 -27 15 -37
s22.333 -15 37 -15s27.167 5 37.5 15s15.5 22.333 15.5 37s-5.16699 27.167 -15.5 37.5s-22.833 15.5 -37.5 15.5s-27 -5.16699 -37 -15.5s-15 -22.833 -15 -37.5zM391 123c0 37.333 12.833 69 38.5 95s57.167 39 94.5 39s69 -13.167 95 -39.5s39 -57.833 39 -94.5
c0 -37.333 -13 -68.833 -39 -94.5s-57.667 -38.5 -95 -38.5s-68.833 12.833 -94.5 38.5s-38.5 57.167 -38.5 94.5zM472 123c0 -15.333 5 -27.833 15 -37.5s22.333 -14.5 37 -14.5s27.167 5 37.5 15s15.5 22.333 15.5 37s-5.16699 27.167 -15.5 37.5s-22.833 15.5 -37.5 15.5
s-27 -5.16699 -37 -15.5s-15 -22.833 -15 -37.5zM712 123c0 37.333 12.833 69 38.5 95s57.167 39 94.5 39c36.667 0 68.167 -13.167 94.5 -39.5s39.5 -57.833 39.5 -94.5c0 -37.333 -13 -68.833 -39 -94.5s-57.667 -38.5 -95 -38.5s-68.833 12.833 -94.5 38.5
s-38.5 57.167 -38.5 94.5zM793 123c0 -15.333 4.83301 -27.833 14.5 -37.5s22.167 -14.5 37.5 -14.5c14.667 0 27.167 5 37.5 15s15.5 22.333 15.5 37s-5.16699 27.167 -15.5 37.5s-22.833 15.5 -37.5 15.5s-27 -5.16699 -37 -15.5s-15 -22.833 -15 -37.5z" />
    <glyph glyph-name="guilsinglleft" unicode="&#x2039;" horiz-adv-x="328" 
d="M39 233l138 207h108l-138 -207l138 -207h-108z" />
    <glyph glyph-name="guilsinglright" unicode="&#x203a;" horiz-adv-x="328" 
d="M289 233l-138 -207h-108l138 207l-138 207h108z" />
    <glyph glyph-name="fraction" unicode="&#x2044;" horiz-adv-x="180" 
d="M354 668l-451 -678h-83l452 678h82z" />
    <glyph glyph-name="zerosuperior" unicode="&#x2070;" horiz-adv-x="351" 
d="M34 624c0 131.333 47.333 197 142 197c94 0 141 -65.667 141 -197c0 -130.667 -47 -196 -141 -196c-94.667 0 -142 65.333 -142 196zM114 624c0 -78.667 20.667 -118 62 -118c40.667 0 61 39.333 61 118c0 79.333 -20.333 119 -61 119c-41.333 0 -62 -39.667 -62 -119z
" />
    <glyph glyph-name="foursuperior" unicode="&#x2074;" horiz-adv-x="342" 
d="M269 519v-85h-81v85h-182l179 295h84v-227h48v-68h-48zM116 587h72v119z" />
    <glyph glyph-name="fivesuperior" unicode="&#x2075;" horiz-adv-x="342" 
d="M92 548c17.333 -26.667 39.333 -40 66 -40c22 0 40.167 5.83301 54.5 17.5s21.5 25.834 21.5 42.501c0 20 -6.5 35.333 -19.5 46s-29.833 16 -50.5 16c-38 0 -66 -13.667 -84 -41l-44 23l31 202h222v-74h-158l-11 -63c15.333 13.333 38.666 20 69.999 20
c36 0 65.667 -11.333 89 -34s35 -54.334 35 -95.001c0 -41.333 -14.167 -75 -42.5 -101s-66.166 -39 -113.499 -39c-26 0 -51.167 7.16699 -75.5 21.5s-43.833 32.833 -58.5 55.5c0.666992 0 12 7 34 21z" />
    <glyph glyph-name="sixsuperior" unicode="&#x2076;" horiz-adv-x="339" 
d="M125 555c0 -14 4.83301 -25.833 14.5 -35.5s21.5 -14.5 35.5 -14.5s26 4.83301 36 14.5s15 21.5 15 35.5s-5 26 -15 36s-22 15 -36 15s-25.833 -5 -35.5 -15s-14.5 -22 -14.5 -36zM305 748l-74.999 -31.999c-9.33301 20 -24 30 -44 30c-26 0 -44.5 -10.833 -55.5 -32.5
s-15.833 -47.5 -14.5 -77.5c3.33301 9.33301 12.166 18.833 26.499 28.5s30.833 14.5 49.5 14.5c30.667 0 57.834 -11.167 81.501 -33.5s35.5 -53.833 35.5 -94.5c0 -36.667 -12.833 -66.334 -38.5 -89.001s-58.834 -34 -99.501 -34c-36.667 0 -67.5 12 -92.5 36
s-39.167 56 -42.5 96c-4.66699 52.667 -2.66699 98 6 136c19.333 86 68.333 127.667 147 125c56 -2.66699 94.667 -27 116 -73z" />
    <glyph glyph-name="sevensuperior" unicode="&#x2077;" horiz-adv-x="324" 
d="M313 814l-169 -380h-91l135 306h-161v74h286z" />
    <glyph glyph-name="eightsuperior" unicode="&#x2078;" horiz-adv-x="346" 
d="M134 713c0 -10 3.5 -18.667 10.5 -26s16.5 -11 28.5 -11s21.5 3.66699 28.5 11s10.5 16 10.5 26s-3.5 18.5 -10.5 25.5s-16.5 10.5 -28.5 10.5s-21.5 -3.5 -28.5 -10.5s-10.5 -15.5 -10.5 -25.5zM109 561c0 -16 6.33301 -29.667 19 -41s27.667 -17 45 -17
s32.333 5.66699 45 17s19 25 19 41c0 14.667 -5.83301 27.667 -17.5 39s-25.167 17 -40.5 17h-13c-16 0 -29.5 -5.66699 -40.5 -17s-16.5 -24.333 -16.5 -39zM56 715c0 29.333 11.498 54.333 34.498 75s50.5 31 82.5 31s59.5 -10.333 82.5 -31s34.5 -45.667 34.5 -75
c0 -26.667 -9.33301 -47.667 -28 -63c36.667 -22 55 -53 55 -93c0 -36 -14.167 -66.833 -42.5 -92.5s-62.166 -38.5 -101.499 -38.5s-73.166 12.833 -101.499 38.5s-42.5 56.5 -42.5 92.5c0 40 18.333 71 55 93c-18.667 17.333 -28 38.333 -28 63z" />
    <glyph glyph-name="ninesuperior" unicode="&#x2079;" horiz-adv-x="339" 
d="M214 694c0 14 -4.83301 26 -14.5 36s-21.5 15 -35.5 15s-26 -5 -36 -15s-15 -22 -15 -36s5 -25.833 15 -35.5s22 -14.5 36 -14.5s25.833 4.83301 35.5 14.5s14.5 21.5 14.5 35.5zM34 502l75.0029 32.001c9.33301 -20.667 24 -31 44 -31c26 0 44.5 11 55.5 33
s15.833 48 14.5 78c-3.33301 -9.33301 -12 -18.833 -26 -28.5s-30.667 -14.5 -50 -14.5c-30.667 0 -57.834 11.167 -81.501 33.5s-35.5 53.833 -35.5 94.5c0 36.667 12.667 66.167 38 88.5s58.666 33.5 99.999 33.5c36.667 0 67.667 -12 93 -36s39.666 -56 42.999 -96
c2.66699 -32.667 2.5 -63.334 -0.5 -92.001s-9.5 -56.5 -19.5 -83.5s-26.333 -48.333 -49 -64s-51 -22.834 -85 -21.501c-55.333 2.66699 -94 27.334 -116 74.001z" />
    <glyph glyph-name="zeroinferior" unicode="&#x2080;" horiz-adv-x="350" 
d="M34 40c0 131.333 47.333 197 142 197c94 0 141 -65.667 141 -197c0 -130.667 -47 -196 -141 -196c-94.667 0 -142 65.333 -142 196zM114 40c0 -78.667 20.667 -118 62 -118c40.667 0 61 39.333 61 118c0 79.333 -20.333 119 -61 119c-41.333 0 -62 -39.667 -62 -119z" />
    <glyph glyph-name="oneinferior" unicode="&#x2081;" horiz-adv-x="215" 
d="M86 123l-65 -27v70l145 69v-385h-80v273z" />
    <glyph glyph-name="twoinferior" unicode="&#x2082;" horiz-adv-x="320" 
d="M31 -107l156.001 185c13.333 15.333 20 30 20 44c0 10.667 -4.33301 19.667 -13 27s-20.334 11 -35.001 11c-14 0 -26 -4.83301 -36 -14.5s-16 -22.5 -18 -38.5l-74 13c6 36 20.667 64.5 44 85.5s53 31.5 89 31.5c34 0 63.167 -10.833 87.5 -32.5
s36.5 -49.167 36.5 -82.5c0 -34 -13.333 -66 -40 -96l-88 -100h118v-76h-247v43z" />
    <glyph glyph-name="threeinferior" unicode="&#x2083;" horiz-adv-x="317" 
d="M104 141l-64.0029 39.998c11.333 18 27.5 32.167 48.5 42.5s44.167 14.833 69.5 13.5c32.667 -2 59.834 -13.333 81.501 -34s31.834 -44.667 30.501 -72c0 -32 -16.333 -57 -49 -75c20.667 -7.33301 37.167 -21.166 49.5 -41.499s17.5 -40.833 15.5 -61.5
c-2.66699 -32.667 -18.667 -59.5 -48 -80.5s-63 -30.167 -101 -27.5c-26 2 -50 10.333 -72 25s-38.333 33 -49 55l70 35c12 -21.333 31 -33.666 57 -36.999c14 -0.666992 26.333 3.16602 37 11.499s16.667 17.833 18 28.5c0 14.667 -1 24.334 -3 29.001
c-7.33301 16 -23.666 23.667 -48.999 23h-40v69h40c25.333 0 38 14 38 42c0 8.66699 -3.5 17 -10.5 25s-16.5 12 -28.5 12c-17.333 0 -31 -7.33301 -41 -22z" />
    <glyph glyph-name="fourinferior" unicode="&#x2084;" horiz-adv-x="344" 
d="M271 -65v-85h-81v85h-182l179 295h84v-227h48v-68h-48zM118 3h72v119z" />
    <glyph glyph-name="fiveinferior" unicode="&#x2085;" horiz-adv-x="339" 
d="M91 -36c17.333 -26.667 39.333 -40 66 -40c22 0 40.167 5.83301 54.5 17.5s21.5 25.834 21.5 42.501c0 20 -6.5 35.333 -19.5 46s-29.833 16 -50.5 16c-38 0 -66 -13.667 -84 -41l-44 23l31 202h222v-74h-158l-11 -63c15.333 13.333 38.666 20 69.999 20
c36 0 65.667 -11.333 89 -34s35 -54.334 35 -95.001c0 -41.333 -14.167 -75 -42.5 -101s-66.166 -39 -113.499 -39c-26 0 -51.167 7.16699 -75.5 21.5s-43.833 32.833 -58.5 55.5c0.666992 0 12 7.16699 34 21.5s33.333 21.5 34 21.5z" />
    <glyph glyph-name="sixinferior" unicode="&#x2086;" horiz-adv-x="339" 
d="M125 -29c0 -14 4.83301 -25.833 14.5 -35.5s21.5 -14.5 35.5 -14.5s26 4.83301 36 14.5s15 21.5 15 35.5s-5 26 -15 36s-22 15 -36 15s-25.833 -5 -35.5 -15s-14.5 -22 -14.5 -36zM305 164l-74.999 -31.999c-9.33301 20 -24 30 -44 30c-26 0 -44.5 -10.833 -55.5 -32.5
s-15.833 -47.5 -14.5 -77.5c3.33301 9.33301 12.166 18.833 26.499 28.5s30.833 14.5 49.5 14.5c30.667 0 57.834 -11.167 81.501 -33.5s35.5 -53.833 35.5 -94.5c0 -36.667 -12.833 -66.334 -38.5 -89.001s-58.834 -34 -99.501 -34c-36.667 0 -67.5 12 -92.5 36
s-39.167 56 -42.5 96c-4.66699 52.667 -2.66699 98 6 136c19.333 86 68.333 127.667 147 125c56 -2.66699 94.667 -27 116 -73z" />
    <glyph glyph-name="seveninferior" unicode="&#x2087;" horiz-adv-x="311" 
d="M309 230l-169 -380h-91l135 306h-161v74h286z" />
    <glyph glyph-name="eightinferior" unicode="&#x2088;" horiz-adv-x="346" 
d="M134 129c0 -10 3.5 -18.667 10.5 -26s16.5 -11 28.5 -11s21.5 3.66699 28.5 11s10.5 16 10.5 26s-3.5 18.5 -10.5 25.5s-16.5 10.5 -28.5 10.5s-21.5 -3.5 -28.5 -10.5s-10.5 -15.5 -10.5 -25.5zM109 -23c0 -16 6.33301 -29.667 19 -41s27.667 -17 45 -17
s32.333 5.66699 45 17s19 25 19 41c0 14.667 -5.83301 27.667 -17.5 39s-25.167 17 -40.5 17h-13c-16 0 -29.5 -5.66699 -40.5 -17s-16.5 -24.333 -16.5 -39zM56 131c0 29.333 11.498 54.333 34.498 75s50.5 31 82.5 31s59.5 -10.333 82.5 -31s34.5 -45.667 34.5 -75
c0 -26.667 -9.33301 -47.667 -28 -63c36.667 -22 55 -53 55 -93c0 -36 -14.167 -66.833 -42.5 -92.5s-62.166 -38.5 -101.499 -38.5s-73.166 12.833 -101.499 38.5s-42.5 56.5 -42.5 92.5c0 40 18.333 71 55 93c-18.667 17.333 -28 38.333 -28 63z" />
    <glyph glyph-name="nineinferior" unicode="&#x2089;" horiz-adv-x="339" 
d="M214 110c0 14 -4.83301 26 -14.5 36s-21.5 15 -35.5 15s-26 -5 -36 -15s-15 -22 -15 -36s5 -25.833 15 -35.5s22 -14.5 36 -14.5s25.833 4.83301 35.5 14.5s14.5 21.5 14.5 35.5zM34 -82l75.0029 32.001c9.33301 -20.667 24 -31 44 -31c26 0 44.5 11 55.5 33
s15.833 48 14.5 78c-3.33301 -9.33301 -12 -18.833 -26 -28.5s-30.667 -14.5 -50 -14.5c-30.667 0 -57.834 11.167 -81.501 33.5s-35.5 53.833 -35.5 94.5c0 36.667 12.667 66.167 38 88.5s58.666 33.5 99.999 33.5c36.667 0 67.667 -12 93 -36s39.666 -56 42.999 -96
c2.66699 -32.667 2.5 -63.334 -0.5 -92.001s-9.5 -56.5 -19.5 -83.5s-26.333 -48.333 -49 -64s-51 -22.834 -85 -21.501c-55.333 2.66699 -94 27.334 -116 74.001z" />
    <glyph glyph-name="colonmonetary" unicode="&#x20a1;" horiz-adv-x="710" 
d="M333 -6l-36.999 -106.001l-58 21l35 99c-22.667 7.33301 -43.334 16.333 -62.001 27l-40 -112l-58 21l46 129c-38 32.667 -67.667 72.5 -89 119.5s-32 97.167 -32 150.5c0 64 14.833 123 44.5 177s70.834 96.833 123.501 128.5s111 47.834 175 48.501l39 108l58 -22
l-33 -91c23.333 -4 45.333 -10 66 -18l34 96l58 -22l-36 -100c42 -24.667 76.667 -57 104 -97l-119 -82c-11.333 16 -23 29 -35 39l-136 -380h3c35.333 0 68 8.66699 98 26s54.667 40.333 74 69l118 -82c-30.667 -46.667 -71.334 -83.5 -122.001 -110.5
s-106.667 -40.5 -168 -40.5c-18.667 0 -35.667 1.33301 -51 4zM398.001 557.999l-138 -385c18 -16 37.667 -27.333 59 -34l145 403c-22.667 10 -44.667 15.333 -66 16zM185.001 342.999c0 -43.333 9.66602 -81.667 28.999 -115l115 323
c-43.333 -12.667 -78.166 -38 -104.499 -76s-39.5 -82 -39.5 -132z" />
    <glyph glyph-name="lira" unicode="&#x20a4;" horiz-adv-x="683" 
d="M290 228l-0.00292969 -104h184c8.66699 0 15.834 3.5 21.501 10.5s8.5 15.5 8.5 25.5v29h137v-56c0 -38 -12.167 -69.667 -36.5 -95s-54.166 -38 -89.499 -38h-471v124h106v104h-83v63h83v47h-83v63h83v72c0 67.333 19.833 121.5 59.5 162.5s90.834 61.5 153.501 61.5
c66 0 120.333 -19.5 163 -58.5s64 -96.167 64 -171.5h-145c0 54.667 -26.333 82 -79 82c-22.667 0 -41 -6.83301 -55 -20.5s-21 -32.167 -21 -55.5v-72h115v-63h-115v-47h115v-63h-115z" />
    <glyph glyph-name="uni20A6" unicode="&#x20a6;" horiz-adv-x="782" 
d="M131 212h-76v68h76v157h-76v68h76v184h134l105 -184h131v184h147v-184h81v-68h-81v-157h81v-68h-81v-212h-131l-122 212h-118v-212h-146v212zM409 437l90 -157h2v157h-92zM277 417v-137h79z" />
    <glyph glyph-name="peseta" unicode="&#x20a7;" horiz-adv-x="755" 
d="M483 438l-213.001 -0.000976562v-72h129c22 0 40.333 6.83301 55 20.5s24.334 30.834 29.001 51.501zM269.999 496.999h210.999c-6 18 -15.667 33 -29 45s-29.666 18 -48.999 18h-133v-63zM719.998 437.999l-88.001 0.000976562
c-5.33301 -57.333 -27.166 -105 -65.499 -143s-91.833 -57 -160.5 -57h-136v-238h-147v438h-78v59h78v192h283c66.667 0 119 -18.333 157 -55s60.667 -82.334 68 -137.001h89v-59z" />
    <glyph glyph-name="rupee" unicode="&#x20a8;" horiz-adv-x="717" 
d="M376 445h-314.999v59h309c-14.667 37.333 -39.667 56 -75 56h-234l-1 129h613v-59h-210c35.333 -33.333 56.666 -75.333 63.999 -126h146v-59h-143c-3.33301 -49.333 -19.5 -92.5 -48.5 -129.5s-69.833 -60.833 -122.5 -71.5l171 -244h-176l-154 238h-139v128h230
c23.333 0 42.333 7.66699 57 23s24 34 28 56z" />
    <glyph glyph-name="uni20A9" unicode="&#x20a9;" horiz-adv-x="1007" 
d="M240 155h-178v68h155l-51 151h-104v68h81l-83 247h158l76 -247h109l41 150h120l40 -150h109l77 247h159l-84 -247h79v-68h-102l-52 -151h154v-68h-177l-52 -155h-115l-42 155h-110l-40 -155h-116zM503 362l-37 -139h74zM315 374l37 -119l32 119h-69zM623 374l32 -119
l37 119h-69z" />
    <glyph glyph-name="afii57636" unicode="&#x20aa;" horiz-adv-x="953" 
d="M658 332l0.000976562 -119h-140v93c0 26 -9.33301 47.833 -28 65.5s-43.334 26.5 -74.001 26.5h-190v-398h-140v538h361c62.667 0 113.5 -19.667 152.5 -59s58.5 -88.333 58.5 -147zM295.001 206l-0.000976562 119h140v-93c0 -26 9.33301 -47.833 28 -65.5
s43.334 -26.5 74.001 -26.5h190v398h140v-538h-361c-62.667 0 -113.5 19.667 -152.5 59s-58.5 88.333 -58.5 147z" />
    <glyph glyph-name="Euro" unicode="&#x20ac;" horiz-adv-x="829" 
d="M309 435h230.002v-63h-493v63h109c19.333 76.667 59.666 139.5 120.999 188.5s132.666 73.5 213.999 73.5c60 0 115.167 -13.167 165.5 -39.5s90.833 -61.833 121.5 -106.5l-119 -82c-41.333 60 -97.333 90 -168 90c-41.333 0 -78 -11.333 -110 -34
s-55.667 -52.667 -71 -90zM539.002 256h-231.999c14.667 -38.667 38.334 -69.667 71.001 -93s70 -35 112 -35c35.333 0 68 8.66699 98 26s54.667 40.333 74 69l118 -82c-30.667 -46.667 -71.334 -83.5 -122.001 -110.5s-106.667 -40.5 -168 -40.5
c-82 0 -153.833 24.833 -215.5 74.5s-101.834 113.5 -120.501 191.5h-108v63h493v-63z" />
    <glyph glyph-name="uni2113" unicode="&#x2113;" horiz-adv-x="401" 
d="M183 521v-239.998l27 3c15.333 0 23 12.667 23 38v200c0 38.667 -7.66699 58 -23 58c-8.66699 0 -15 -3.33301 -19 -10s-6.33301 -13.334 -7 -20.001s-1 -16.334 -1 -29.001zM234 113.002l98 -7v-106h-123c-99.333 0 -149 56.667 -149 170v357
c0 113.333 49.667 170 149 170c98 0 147 -59 147 -177v-186c0 -55.333 -12 -97.333 -36 -126s-69.667 -43 -137 -43c0 -10 0.833008 -18 2.5 -24s6.5 -12 14.5 -18s19.333 -9.33301 34 -10z" />
    <glyph glyph-name="afii61352" unicode="&#x2116;" horiz-adv-x="984" 
d="M603 0v689h-147v-412l-236 412h-134v-689h146v417l240 -417h131zM672 563c0 37.333 12.833 69 38.5 95s57.167 39 94.5 39c36.667 0 68.167 -13.167 94.5 -39.5s39.5 -57.833 39.5 -94.5c0 -37.333 -13 -68.833 -39 -94.5s-57.667 -38.5 -95 -38.5
s-68.833 12.833 -94.5 38.5s-38.5 57.167 -38.5 94.5zM747 563c0 -16.667 5.5 -30.5 16.5 -41.5s24.833 -16.5 41.5 -16.5c16 0 29.833 5.66699 41.5 17s17.5 25 17.5 41s-5.83301 29.833 -17.5 41.5s-25.5 17.5 -41.5 17.5s-29.667 -5.83301 -41 -17.5s-17 -25.5 -17 -41.5
zM678 318v67h254v-67h-254z" />
    <glyph glyph-name="trademark" unicode="&#x2122;" horiz-adv-x="851" 
d="M336 325l36 289h-108v-289h-84v289h-118v75h388l111 -226l108 226h72l44 -364h-84l-25 222l-85 -181h-60l-85 181l-27 -222h-83z" />
    <glyph glyph-name="estimated" unicode="&#x212e;" horiz-adv-x="646" 
d="M604 279l-429.001 -0.00195312v-193c44 -42 94.667 -63 152 -63c50.667 0 91.667 11 123 33s60.333 53.333 87 94l31 -19c-29.333 -45.333 -62.333 -80.166 -99 -104.499s-84 -36.5 -142 -36.5c-79.333 0 -144.333 28.167 -195 84.5s-76 124.833 -76 205.5
c0 82 25 150.833 75 206.5s116.667 83.5 200 83.5c82.667 0 148.834 -28.167 198.501 -84.5s74.5 -125.166 74.5 -206.499zM483.999 311.998v163c-45.333 41.333 -96.333 62 -153 62c-64 0 -116 -20.667 -156 -62v-163h309z" />
    <glyph glyph-name="minus" unicode="&#x2212;" horiz-adv-x="505" 
d="M437 210h-369v102h369v-102z" />
    <glyph glyph-name="notequal" unicode="&#x2260;" horiz-adv-x="602" 
d="M265 149l-51 -105h-70l51 105h-125v98h173l50 103h-223v98h271l47 96h71l-47 -96h118v-98h-166l-51 -103h217v-98h-265z" />
    <glyph glyph-name="lessequal" unicode="&#x2264;" horiz-adv-x="639" 
d="M62 331v112l502 192l1 -110l-362 -138l362 -138l-1 -110zM564 86v-86h-497v86h497z" />
    <glyph glyph-name="greaterequal" unicode="&#x2265;" horiz-adv-x="639" 
d="M577 443v-112l-502 -192l-1 110l362 138l-362 138l1 110zM75 0v86h497v-86h-497z" />
    <glyph glyph-name="commaaccent" unicode="&#xf6c3;" horiz-adv-x="315" 
d="M138 -287l-68 35c22 30.667 37.333 60 46 88s12.667 64 12 108h117c-8 -101.333 -43.667 -178.333 -107 -231z" />
    <glyph glyph-name="rupiah" unicode="&#xf6dd;" horiz-adv-x="1191" 
d="M344 560h-128.001v-194h124c26.667 0 47.834 10 63.501 30s23.5 42.333 23.5 67c0 24 -7.5 46.167 -22.5 66.5s-35.167 30.5 -60.5 30.5zM407.999 244l171 -243.999h-176l-154 238h-33v-238h-147v689h282c73.333 0 129.833 -22.167 169.5 -66.5s59.5 -97.5 59.5 -159.5
c0 -52.667 -14.667 -99.334 -44 -140.001s-72 -67 -128 -79zM796.999 232.001c0 -34 10.5 -61.001 31.5 -81.001s46.5 -30 76.5 -30s55.5 10.333 76.5 31s31.5 47.334 31.5 80.001c0 33.333 -10.5 60.5 -31.5 81.5s-46.5 31.5 -76.5 31.5s-55.5 -10.667 -76.5 -32
s-31.5 -48.333 -31.5 -81zM655.999 467h138v-58c11.333 21.333 29.5 38 54.5 50s52.5 18 82.5 18c62 0 115.167 -22.5 159.5 -67.5s66.5 -103.167 66.5 -174.5c0 -72.667 -22.167 -131.667 -66.5 -177s-97.5 -68 -159.5 -68c-30 0 -57.5 6 -82.5 18s-43.167 28.333 -54.5 49
v-286h-138v696z" />
    <glyph glyph-name="apple" unicode="&#xf8ff;" horiz-adv-x="847" 
d="M767 687v-687h-687v687h687zM164 595v-377h81l-74 75v178l255 -253l256 253v-178l-74 -75h84v377l-266 -263zM179 132h-15v-53h9v37l13 -37h10l11 37v-37h9v53h-14l-9 -36zM248 132c-16.667 0 -25 -8.99902 -25 -26.999c0 -7.33301 2.16699 -13.5 6.5 -18.5
s10.5 -7.5 18.5 -7.5c7.33301 0 13 2.66699 17 8s6 11.333 6 18c0 7.33301 -2 13.666 -6 18.999s-9.66699 8 -17 8zM248 89.001c-4.66699 0 -8.66699 1.83301 -12 5.5s-5 7.16699 -5 10.5c0 4 1.66699 7.83301 5 11.5s7.33301 5.5 12 5.5c8 0 12 -5.66699 12 -17
c0 -10.667 -4 -16 -12 -16zM284 99.001h-13c0 -13.333 7.33301 -20 22 -20s22 5.66699 22 17c0 7.33301 -5 12 -15 14c-10.667 2 -16 4 -16 6c0 4 3 6 9 6c6.66699 0 10 -2 10 -6h9c0 10.667 -6.33301 16 -19 16s-19 -5.33301 -19 -16c0 -5.33301 5.33301 -10.333 16 -15
c8.66699 0 13 -1.66699 13 -5c0 -4.66699 -3.33301 -7 -10 -7c-6 0 -9 3.33301 -9 10zM315 122.001h17v-43h8v43h15v10h-40v-10zM377 132.001h-9l-22 -53h12l4 13h22l3 -13h11zM374 119.001l7 -18h-16l6 18h3zM426 132.001h-28v-53h9v22h13c6 0 9 -3 9 -9v-13h13
c-2 2 -3 6.33301 -3 13c0 6 -2.33301 10.333 -7 13c4.66699 2 7 5.66699 7 11c0 10.667 -4.33301 16 -13 16zM420 108.001h-13v14h13c6 0 9 -2 9 -6c0 -5.33301 -3 -8 -9 -8zM466 132.001h-20v-53h20c16.667 0 25 9.66699 25 29c0 16 -8.33301 24 -25 24zM466 89.001h-8v33
h4c11.333 0 17 -5.66699 17 -17c0 -4 -1.33301 -7.66699 -4 -11s-5.66699 -5 -9 -5zM531 132.001h-37v-53h40v10h-28v12h25v9h-25v12h25v10zM543 99.001h-9c0 -13.333 7.33301 -20 22 -20s22 5.66699 22 17c0 7.33301 -5 12 -15 14c-11.333 2 -17 4 -17 6c0 4 2.33301 6 7 6
c8 0 12 -2 12 -6h10c0 10.667 -6.33301 16 -19 16c-5.33301 0 -10.333 -1.5 -15 -4.5s-7 -6.83301 -7 -11.5s6.33301 -9.66699 19 -15c8 0 12 -1.66699 12 -5c0 -4.66699 -3 -7 -9 -7c-8.66699 0 -13 3.33301 -13 10zM589 132.001h-7v-53h7v53zM633 86.001l4 -7.00098h6v29
h-22v-9h12c-2.66699 -6.66699 -6.66699 -10 -12 -10c-4.66699 0 -8.5 1.83301 -11.5 5.5s-4.5 7.16699 -4.5 10.5c0 4 1.5 7.83301 4.5 11.5s6.83301 5.5 11.5 5.5c6 0 9 -3.33301 9 -10h13c-2.66699 13.333 -10 20 -22 20c-7.33301 0 -13.333 -2.66699 -18 -8
s-7 -11.666 -7 -18.999c0 -6.66699 2.33301 -12.667 7 -18s10.667 -8 18 -8c6 0 10 2.33301 12 7zM657 132h-8v-53h8v33l22 -33h13v53h-13v-33z" />
    <glyph glyph-name=".null" horiz-adv-x="0" 
 />
    <glyph glyph-name="nonmarkingreturn" horiz-adv-x="333" 
 />
    <glyph glyph-name="published" horiz-adv-x="797" 
d="M368 428h57c10.667 0 19.167 -4.16699 25.5 -12.5s9.5 -17.5 9.5 -27.5s-3.33301 -19.333 -10 -28s-15.667 -13 -27 -13h-55v81zM284 503v-336h84v106h58c38 0 67 11.333 87 34s30 49.667 30 81c0 32 -10 59.167 -30 81.5s-49 33.5 -87 33.5h-142zM49 343
c0 98 33.833 181.5 101.5 250.5s150.167 103.5 247.5 103.5s180 -34.5 248 -103.5s102 -152.5 102 -250.5s-34 -181.333 -102 -250s-150.667 -103 -248 -103s-179.833 34.333 -247.5 103s-101.5 152 -101.5 250zM127 343c0 -76 26.333 -140.667 79 -194s116.667 -80 192 -80
s139.333 26.667 192 80s79 118 79 194s-26.333 140.833 -79 194.5s-116.667 80.5 -192 80.5s-139.333 -26.833 -192 -80.5s-79 -118.5 -79 -194.5z" />
    <glyph glyph-name="frenchfranc" horiz-adv-x="746" 
d="M367 0l0.000976562 299.001h-130v-299h-147v689h431v-129h-284v-137h262v-108c11.333 41.333 28 72.166 50 92.499s46 30.5 72 30.5c37.333 0 67.333 -5.66699 90 -17l-25 -127c-20.667 10.667 -44.334 16 -71.001 16c-77.333 0 -116 -62 -116 -186v-124h-132z" />
    <glyph glyph-name="parenleft.case" horiz-adv-x="388" 
d="M39 340c0 134.667 30.167 246.5 90.5 335.5s135.833 133.5 226.5 133.5v-109c-32.667 0 -64.5 -17 -95.5 -51s-56.167 -79 -75.5 -135s-29 -114 -29 -174c0 -90.667 20.833 -172.167 62.5 -244.5s87.5 -108.5 137.5 -108.5v-108c-90.667 0 -166.167 43.167 -226.5 129.5
s-90.5 196.833 -90.5 331.5z" />
    <glyph glyph-name="parenright.case" horiz-adv-x="388" 
d="M349 340c0 -134.667 -30.167 -245.167 -90.5 -331.5s-135.833 -129.5 -226.5 -129.5v108c50 0 95.833 36.167 137.5 108.5s62.5 153.833 62.5 244.5c0 60 -9.66699 118 -29 174s-44.5 101 -75.5 135s-62.833 51 -95.5 51v109c90.667 0 166.167 -44.5 226.5 -133.5
s90.5 -200.833 90.5 -335.5z" />
    <glyph glyph-name="hyphen.case" horiz-adv-x="475" 
d="M61 281v132h353v-132h-353z" />
    <glyph glyph-name="at.case" horiz-adv-x="964" 
d="M583 217l-0.00390625 125.997c0 32.667 -11.333 60.334 -34 83.001s-50 34 -82 34s-59.333 -11.333 -82 -34s-34 -50.334 -34 -83.001c0 -31.333 11.5 -58.333 34.5 -81s50.167 -34 81.5 -34c29.333 0 55.666 8.33301 78.999 25v-94
c-29.333 -12.667 -55.666 -19 -78.999 -19c-56.667 0 -105 19.667 -145 59s-60 87.333 -60 144c0 57.333 20 105.833 60 145.5s88.333 59.5 145 59.5c55.333 0 102.666 -18.667 141.999 -56c40.667 -36.667 62 -83 64 -139v-142c0 -21.333 5.83301 -36.666 17.5 -45.999
s25.834 -14 42.501 -14c20.667 0 38.334 6.83301 53.001 20.5s25.5 31.667 32.5 54s12 44.166 15 65.499s4.5 43 4.5 65c0 94.667 -35.333 173.834 -106 237.501s-155.667 95.5 -255 95.5c-96 0 -177.167 -34.167 -243.5 -102.5s-99.5 -151.166 -99.5 -248.499
c0 -96.667 33.167 -178.5 99.5 -245.5s147.5 -100.5 243.5 -100.5h33v-89h-33c-121.333 0 -223.666 42 -306.999 126s-125 187 -125 309s41.833 225.833 125.5 311.5s185.834 128.5 306.501 128.5c80.667 0 155.334 -18.167 224.001 -54.5s123.667 -87 165 -152
s62 -136.833 62 -215.5c0 -32 -3.5 -64.167 -10.5 -96.5s-17.667 -63.666 -32 -93.999s-34.666 -55 -60.999 -74s-56.833 -28.5 -91.5 -28.5c-42.667 0 -78.334 12.333 -107.001 37s-43 63.667 -43 117z" />
    <glyph glyph-name="bracketleft.case" horiz-adv-x="338" 
d="M73 -116v918h231v-101h-113v-714h113v-103h-231z" />
    <glyph glyph-name="bracketright.case" horiz-adv-x="338" 
d="M265 802v-918h-231v103h113v714h-113v101h231z" />
    <glyph glyph-name="braceleft.case" horiz-adv-x="412" 
d="M31 300v83.999c16 0 30.167 5.33301 42.5 16s18.5 24.667 18.5 42v159c-0.666992 59.333 18.5 107.5 57.5 144.5s87.167 55.5 144.5 55.5h85v-101h-88c-22.667 0 -42 -8.33301 -58 -25s-24 -37 -24 -61v-164c0 -28 -8.33301 -51.667 -25 -71s-34.667 -31.666 -54 -36.999
c19.333 -5.33301 37.333 -17.666 54 -36.999s25 -43 25 -71v-153c0 -24.667 8.16699 -46.334 24.5 -65.001s35.5 -28 57.5 -28h88v-105h-85c-57.333 0 -105.5 18.5 -144.5 55.5s-58.167 85.167 -57.5 144.5v159c0 17.333 -6.16699 31.333 -18.5 42s-26.5 16 -42.5 16z" />
    <glyph glyph-name="braceright.case" horiz-adv-x="412" 
d="M381 384v-83.999c-16 0 -30.167 -5.33301 -42.5 -16s-18.5 -24.667 -18.5 -42v-159c0.666992 -59.333 -18.5 -107.5 -57.5 -144.5s-87.167 -55.5 -144.5 -55.5h-85v105h88c22 0 41.167 9.33301 57.5 28s24.5 40.334 24.5 65.001v153c0 28 8.33301 51.667 25 71
s34.667 31.666 54 36.999c-19.333 5.33301 -37.333 17.666 -54 36.999s-25 43 -25 71v164c0 24 -8 44.333 -24 61s-35.333 25 -58 25h-88v101h85c57.333 0 105.5 -18.5 144.5 -55.5s58.167 -85.167 57.5 -144.5v-159c0 -17.333 6.16699 -31.333 18.5 -42s26.5 -16 42.5 -16z
" />
    <glyph glyph-name="exclamdown.case" horiz-adv-x="284" 
d="M219 -10h-154l20 487h114zM55 613c0 24 8.33301 44 25 60s37 24 61 24s44.5 -8 61.5 -24s25.5 -36 25.5 -60c0 -23.333 -8.5 -43 -25.5 -59s-37.5 -24 -61.5 -24s-44.333 7.83301 -61 23.5s-25 35.5 -25 59.5z" />
    <glyph glyph-name="guillemotleft.case" horiz-adv-x="527" 
d="M48 345l138 207h108l-138 -207l138 -207h-108zM225 345l138 207h108l-138 -207l138 -207h-108z" />
    <glyph glyph-name="periodcentered.case" horiz-adv-x="279" 
d="M53 368c0 24 8.33301 44 25 60s37 24 61 24s44.5 -8 61.5 -24s25.5 -36 25.5 -60c0 -23.333 -8.5 -43 -25.5 -59s-37.5 -24 -61.5 -24s-44.333 7.83301 -61 23.5s-25 35.5 -25 59.5z" />
    <glyph glyph-name="guillemotright.case" horiz-adv-x="527" 
d="M479 345l-138 -207h-108l138 207l-138 207h108zM302 345l-138 -207h-108l138 207l-138 207h108z" />
    <glyph glyph-name="questiondown.case" horiz-adv-x="496" 
d="M222 457l2.00293 21.999h136l2 -22c0 -26 -0.333008 -45.5 -1 -58.5s-2.83398 -27.833 -6.50098 -44.5s-9.33398 -29.667 -17.001 -39s-18.334 -19.166 -32.001 -29.499s-31.167 -20.166 -52.5 -29.499l-40 -17c-16 -8.66699 -26.167 -16.834 -30.5 -24.501
s-6.5 -17.834 -6.5 -30.501c0 -15.333 6.66699 -28.166 20 -38.499s30.333 -15.5 51 -15.5c21.333 0 38.5 6.33301 51.5 19s19.5 29.334 19.5 50.001h140c0 -63.333 -19.333 -114 -58 -152s-89.667 -57 -153 -57s-114.333 17.667 -153 53s-58 82.666 -58 141.999
c0 47.333 12.333 87.5 37 120.5s57 55.833 97 68.5c20 6 33.667 15.167 41 27.5s11 30.833 11 55.5zM376.003 612.999c0 -24 -8.33301 -43.833 -25 -59.5s-37 -23.5 -61 -23.5s-44.5 8 -61.5 24s-25.5 35.667 -25.5 59c0 24 8.5 44 25.5 60s37.5 24 61.5 24
s44.333 -8 61 -24s25 -36 25 -60z" />
    <glyph glyph-name="endash.case" horiz-adv-x="642" 
d="M64 285v124h514v-124h-514z" />
    <glyph glyph-name="emdash.case" horiz-adv-x="855" 
d="M64 285v124h727v-124h-727z" />
    <glyph glyph-name="bullet.case" horiz-adv-x="470" 
d="M75 350c0 44 15.667 80.667 47 110s69 44 113 44s81.667 -14.667 113 -44s47 -66 47 -110s-15.667 -80.667 -47 -110s-69 -44 -113 -44s-81.667 14.667 -113 44s-47 66 -47 110z" />
    <glyph glyph-name="guilsinglleft.case" horiz-adv-x="350" 
d="M48 345l138 207h108l-138 -207l138 -207h-108z" />
    <glyph glyph-name="guilsinglright.case" horiz-adv-x="350" 
d="M302 345l-138 -207h-108l138 207l-138 207h108z" />
    <glyph glyph-name="cent.case" horiz-adv-x="539" 
d="M319 697v-106.001c76.667 -7.33301 135.667 -40 177 -98l-113 -81c-20 31.333 -50 47 -90 47c-30.667 0 -57.667 -10.167 -81 -30.5s-35 -46.5 -35 -78.5c0 -32.667 11.667 -59.5 35 -80.5s50.333 -31.5 81 -31.5c40 0 70 15.667 90 47l113 -80
c-41.333 -58.667 -100.333 -91.667 -177 -99v-115h-73v118c-59.333 10.667 -108.666 37.667 -147.999 81s-59 96.666 -59 159.999c0 62.667 19.667 115.334 59 158.001s88.666 69.334 147.999 80.001v109h73z" />
    <glyph glyph-name="zero.tnum" horiz-adv-x="580" 
d="M46 328c0 226.667 81.667 340 245 340c46 0 85.333 -8.66699 118 -26s57.834 -42 75.501 -74s30.334 -67.5 38.001 -106.5s11.5 -83.5 11.5 -133.5s-3.83301 -94.167 -11.5 -132.5s-20.334 -73.5 -38.001 -105.5s-42.834 -56.667 -75.501 -74s-72 -26 -118 -26
c-163.333 0 -245 112.667 -245 338zM186 328c0 -134.667 35 -202 105 -202c68.667 0 103 67.333 103 202c0 136 -34.333 204 -103 204c-70 0 -105 -68 -105 -204z" />
    <glyph glyph-name="one.tnum" horiz-adv-x="580" 
d="M392 664v-664h-140v469l-112 -48v123z" />
    <glyph glyph-name="two.tnum" horiz-adv-x="580" 
d="M493 0l-425.999 -0.000976562v76l269 319c23.333 26.667 35 51.334 35 74.001c0 18 -7.33301 33.333 -22 46s-34.667 19 -60 19c-24.667 0 -45.334 -8.5 -62.001 -25.5s-27 -38.833 -31 -65.5l-128 22c10 62.667 35.333 112.167 76 148.5s91.667 54.5 153 54.5
c59.333 0 109.833 -18.667 151.5 -56s62.5 -85 62.5 -143c0 -58.667 -23 -114 -69 -166l-151 -171h202v-132z" />
    <glyph glyph-name="three.tnum" horiz-adv-x="580" 
d="M272 284l-68.999 -0.000976562v120h69c42.667 0 64 23.667 64 71c0 13.333 -5.5 27.166 -16.5 41.499s-27.5 21.5 -49.5 21.5c-31.333 0 -54.333 -12 -69 -36l-113 69c20 31.333 48.167 56 84.5 74s76.166 25.667 119.499 23c56 -2.66699 102.667 -22.167 140 -58.5
s55.333 -78.166 54 -125.499c0 -26 -7.66699 -50.333 -23 -73s-35.666 -41 -60.999 -55c35.333 -12.667 63.666 -36.5 84.999 -71.5s30.333 -70.5 27 -106.5c-5.33301 -56 -33.333 -102.167 -84 -138.5s-108.667 -52.166 -174 -47.499c-45.333 2.66699 -87 16.667 -125 42
s-66 57 -84 95l123 61c7.33301 -15.333 20.666 -29.5 39.999 -42.5s38.333 -19.833 57 -20.5c24 -1.33301 45.167 5.5 63.5 20.5s28.5 31.5 30.5 49.5c2 3.33301 2.16699 9.83301 0.5 19.5s-4.16699 19.667 -7.5 30s-12.166 19.333 -26.499 27s-32.833 11.167 -55.5 10.5z
" />
    <glyph glyph-name="four.tnum" horiz-adv-x="580" 
d="M199 265h122v204zM545 147h-83v-147h-141v147h-313l306 508h148v-390h83v-118z" />
    <glyph glyph-name="five.tnum" horiz-adv-x="580" 
d="M399 231c0 35.333 -11.168 62.001 -33.501 80.001s-51.5 27 -87.5 27c-25.333 0 -51.5 -5.5 -78.5 -16.5s-48.833 -29.5 -65.5 -55.5l-77 40l54 349h384v-128h-273l-17 -106c25.333 22.667 65.333 34 120 34c61.333 0 112.333 -19.667 153 -59s61 -94.333 61 -165
s-24.667 -128.5 -74 -173.5s-114.666 -67.5 -195.999 -67.5c-45.333 0 -89 12.167 -131 36.5s-75.667 56.166 -101 95.499l118 76c12.667 -20 29.667 -36.333 51 -49s42.333 -19 63 -19c37.333 0 68.333 10 93 30s37 43.667 37 71z" />
    <glyph glyph-name="six.tnum" horiz-adv-x="580" 
d="M329 422c52 0 98.5 -19.334 139.5 -58.001s61.5 -93 61.5 -163c0 -63.333 -21.833 -114.333 -65.5 -153s-101.167 -58 -172.5 -58c-62.667 0 -116 20.833 -160 62.5s-69 96.834 -75 165.501c-4 34 -5 68.667 -3 104s5.33301 70 10 104s13.834 66 27.501 96s30 56 49 78
s44.167 39.167 75.5 51.5s66.666 17.833 105.999 16.5c44.667 -2 84 -12.167 118 -30.5s62 -50.5 84 -96.5l-131 -56c-16.667 34.667 -42 52 -76 52c-30 0 -54.667 -10 -74 -30s-32.166 -43.5 -38.499 -70.5s-8.83301 -56.5 -7.5 -88.5c5.33301 16 19.666 32.333 42.999 49
s53 25 89 25zM385 208.999c0 23.333 -8.5 43.5 -25.5 60.5s-37.167 25.5 -60.5 25.5s-43.5 -8.5 -60.5 -25.5s-25.5 -37.167 -25.5 -60.5s8.5 -43.5 25.5 -60.5s37.167 -25.5 60.5 -25.5s43.5 8.5 60.5 25.5s25.5 37.167 25.5 60.5z" />
    <glyph glyph-name="seven.tnum" horiz-adv-x="580" 
d="M58 655h494l-289 -655h-159l231 526h-277v129z" />
    <glyph glyph-name="eight.tnum" horiz-adv-x="580" 
d="M88 485c0 50.667 19.8311 93.835 59.498 129.502s87.167 53.5 142.5 53.5s103 -17.833 143 -53.5s60 -78.834 60 -129.501c0 -44.667 -16 -81.334 -48 -110.001c28.667 -16.667 51.5 -39.5 68.5 -68.5s25.5 -61.167 25.5 -96.5c0 -62 -24.167 -114.167 -72.5 -156.5
s-107.166 -63.5 -176.499 -63.5s-128.166 21.167 -176.499 63.5s-72.5 94.5 -72.5 156.5c0 35.333 8.33301 67.5 25 96.5s39.667 51.833 69 68.5c-31.333 30 -47 66.667 -47 110zM180.998 217.001c0 -27.333 10.833 -50.333 32.5 -69s47.167 -28 76.5 -28
s54.833 9.33301 76.5 28s32.5 41.667 32.5 69c0 26.667 -9.66699 49.667 -29 69s-46.333 29 -81 29c-34 0 -60.5 -9.66699 -79.5 -29s-28.5 -42.333 -28.5 -69zM222.998 481.001c0 -18 5.83301 -33 17.5 -45s28.167 -18 49.5 -18s37.833 6 49.5 18s17.5 27 17.5 45
c0 16.667 -6 31 -18 43s-28.333 18 -49 18s-37 -6 -49 -18s-18 -26.333 -18 -43z" />
    <glyph glyph-name="nine.tnum" horiz-adv-x="580" 
d="M250 236c-52 0 -98.499 19.334 -139.499 58.001s-61.5 93 -61.5 163c0 63.333 21.833 114.333 65.5 153s101.167 58 172.5 58c62.667 0 116 -20.833 160 -62.5s69 -96.834 75 -165.501c4 -34 5 -68.667 3 -104s-5.33301 -70 -10 -104s-13.834 -66 -27.501 -96
s-30 -56 -49 -78s-44.167 -39.167 -75.5 -51.5s-66.666 -17.833 -105.999 -16.5c-44.667 2 -84 12.167 -118 30.5s-62 50.5 -84 96.5l131 56c16.667 -34.667 42 -52 76 -52c30 0 54.667 10 74 30s32.166 43.5 38.499 70.5s8.83301 56.5 7.5 88.5
c-17.333 -49.333 -61.333 -74 -132 -74zM194.001 449.001c0 -23.333 8.5 -43.5 25.5 -60.5s37.167 -25.5 60.5 -25.5s43.5 8.5 60.5 25.5s25.5 37.167 25.5 60.5s-8.5 43.5 -25.5 60.5s-37.167 25.5 -60.5 25.5s-43.5 -8.5 -60.5 -25.5s-25.5 -37.167 -25.5 -60.5z" />
    <glyph glyph-name="zero.taboldstyle" horiz-adv-x="580" 
d="M289 -8c-69.333 0 -129.333 24.668 -180 74.001s-76 112.666 -76 189.999c0 78 25.167 141.5 75.5 190.5s110.5 73.5 180.5 73.5c70.667 0 131.167 -24.333 181.5 -73s75.5 -112.334 75.5 -191.001c0 -77.333 -25.167 -140.666 -75.5 -189.999s-110.833 -74 -181.5 -74z
M289 122.001c33.333 0 62.666 12.5 87.999 37.5s38 57.167 38 96.5s-12.667 71.333 -38 96s-54.666 37 -87.999 37s-62.333 -12.333 -87 -37s-37 -56.667 -37 -96s12.5 -71.5 37.5 -96.5s53.833 -37.5 86.5 -37.5z" />
    <glyph glyph-name="one.taboldstyle" horiz-adv-x="580" 
d="M407 517v-517h-140v314l-130 -51v132z" />
    <glyph glyph-name="two.taboldstyle" horiz-adv-x="580" 
d="M496 0h-419.001v80l235 232c21.333 20 32 35.667 32 47c0 12 -5 22.167 -15 30.5s-23.667 12.5 -41 12.5c-43.333 0 -67.333 -19.667 -72 -59l-136 16c6.66699 52 27.834 93.5 63.501 124.5s84.167 46.5 145.5 46.5c60.667 0 110.5 -16.167 149.5 -48.5
s58.5 -70.5 58.5 -114.5c0 -46 -20.667 -86.333 -62 -121l-136 -124h197v-122z" />
    <glyph glyph-name="six.taboldstyle" horiz-adv-x="580" 
d="M329 422c52 0 98.5 -19.334 139.5 -58.001s61.5 -93 61.5 -163c0 -63.333 -21.833 -114.333 -65.5 -153s-101.167 -58 -172.5 -58c-62.667 0 -116 20.833 -160 62.5s-69 96.834 -75 165.501c-4 34 -5 68.667 -3 104s5.33301 70 10 104s13.834 66 27.501 96s30 56 49 78
s44.167 39.167 75.5 51.5s66.666 17.833 105.999 16.5c44.667 -2 84 -12.167 118 -30.5s62 -50.5 84 -96.5l-131 -56c-16.667 34.667 -42 52 -76 52c-30 0 -54.667 -10 -74 -30s-32.166 -43.5 -38.499 -70.5s-8.83301 -56.5 -7.5 -88.5c5.33301 16 19.666 32.333 42.999 49
s53 25 89 25zM385 208.999c0 23.333 -8.5 43.5 -25.5 60.5s-37.167 25.5 -60.5 25.5s-43.5 -8.5 -60.5 -25.5s-25.5 -37.167 -25.5 -60.5s8.5 -43.5 25.5 -60.5s37.167 -25.5 60.5 -25.5s43.5 8.5 60.5 25.5s25.5 37.167 25.5 60.5z" />
    <glyph glyph-name="eight.taboldstyle" horiz-adv-x="580" 
d="M88 485c0 50.667 19.8311 93.835 59.498 129.502s87.167 53.5 142.5 53.5s103 -17.833 143 -53.5s60 -78.834 60 -129.501c0 -44.667 -16 -81.334 -48 -110.001c28.667 -16.667 51.5 -39.5 68.5 -68.5s25.5 -61.167 25.5 -96.5c0 -62 -24.167 -114.167 -72.5 -156.5
s-107.166 -63.5 -176.499 -63.5s-128.166 21.167 -176.499 63.5s-72.5 94.5 -72.5 156.5c0 35.333 8.33301 67.5 25 96.5s39.667 51.833 69 68.5c-31.333 30 -47 66.667 -47 110zM180.998 217.001c0 -27.333 10.833 -50.333 32.5 -69s47.167 -28 76.5 -28
s54.833 9.33301 76.5 28s32.5 41.667 32.5 69c0 26.667 -9.66699 49.667 -29 69s-46.333 29 -81 29c-34 0 -60.5 -9.66699 -79.5 -29s-28.5 -42.333 -28.5 -69zM222.998 481.001c0 -18 5.83301 -33 17.5 -45s28.167 -18 49.5 -18s37.833 6 49.5 18s17.5 27 17.5 45
c0 16.667 -6 31 -18 43s-28.333 18 -49 18s-37 -6 -49 -18s-18 -26.333 -18 -43z" />
    <glyph glyph-name="three.taboldstyle" horiz-adv-x="580" 
d="M274 93l-68.999 -0.000976562v120h69c42.667 0 64 23.667 64 71c0 13.333 -5.5 27.166 -16.5 41.499s-27.5 21.5 -49.5 21.5c-31.333 0 -54.333 -12 -69 -36l-113 69c20 31.333 48.167 56 84.5 74s76.166 25.667 119.499 23c56 -2.66699 102.667 -22.167 140 -58.5
s55.333 -78.166 54 -125.499c0 -26 -7.66699 -50.333 -23 -73s-35.666 -41 -60.999 -55c35.333 -12.667 63.666 -36.5 84.999 -71.5s30.333 -70.5 27 -106.5c-5.33301 -56 -33.333 -102.167 -84 -138.5s-108.667 -52.166 -174 -47.499c-45.333 2.66699 -87 16.667 -125 42
s-66 57 -84 95l123 61c7.33301 -15.333 20.666 -29.5 39.999 -42.5s38.333 -19.833 57 -20.5c24 -1.33301 45.167 5.5 63.5 20.5s28.5 31.5 30.5 49.5c2 3.33301 2.16699 9.83301 0.5 19.5s-4.16699 19.667 -7.5 30s-12.166 19.333 -26.499 27s-32.833 11.167 -55.5 10.5z
" />
    <glyph glyph-name="four.taboldstyle" horiz-adv-x="580" 
d="M200 76h122v204zM546 -42h-83v-147h-141v147h-313l306 508h148v-390h83v-118z" />
    <glyph glyph-name="five.taboldstyle" horiz-adv-x="580" 
d="M399 43c0 35.333 -11.168 62.001 -33.501 80.001s-51.5 27 -87.5 27c-25.333 0 -51.5 -5.5 -78.5 -16.5s-48.833 -29.5 -65.5 -55.5l-77 40l54 349h384v-128h-273l-17 -106c25.333 22.667 65.333 34 120 34c61.333 0 112.333 -19.667 153 -59s61 -94.333 61 -165
s-24.667 -128.5 -74 -173.5s-114.666 -67.5 -195.999 -67.5c-45.333 0 -89 12.167 -131 36.5s-75.667 56.166 -101 95.499l118 76c12.667 -20 29.667 -36.333 51 -49s42.333 -19 63 -19c37.333 0 68.333 10 93 30s37 43.667 37 71z" />
    <glyph glyph-name="seven.taboldstyle" horiz-adv-x="580" 
d="M59 467h494l-289 -655h-159l231 526h-277v129z" />
    <glyph glyph-name="nine.taboldstyle" horiz-adv-x="580" 
d="M253 45c-52 0 -98.499 19.334 -139.499 58.001s-61.5 93 -61.5 163c0 63.333 21.833 114.333 65.5 153s101.167 58 172.5 58c62.667 0 116 -20.833 160 -62.5s69 -96.834 75 -165.501c4 -34 5 -68.667 3 -104s-5.33301 -70 -10 -104s-13.834 -66 -27.501 -96
s-30 -56 -49 -78s-44.167 -39.167 -75.5 -51.5s-66.666 -17.833 -105.999 -16.5c-44.667 2 -84 12.167 -118 30.5s-62 50.5 -84 96.5l131 56c16.667 -34.667 42 -52 76 -52c30 0 54.667 10 74 30s32.166 43.5 38.499 70.5s8.83301 56.5 7.5 88.5
c-17.333 -49.333 -61.333 -74 -132 -74zM197.001 258.001c0 -23.333 8.5 -43.5 25.5 -60.5s37.167 -25.5 60.5 -25.5s43.5 8.5 60.5 25.5s25.5 37.167 25.5 60.5s-8.5 43.5 -25.5 60.5s-37.167 25.5 -60.5 25.5s-43.5 -8.5 -60.5 -25.5s-25.5 -37.167 -25.5 -60.5z" />
    <glyph glyph-name="zero.oldstyle" horiz-adv-x="631" 
d="M315 -8c-69.333 0 -129.333 24.668 -180 74.001s-76 112.666 -76 189.999c0 78 25.167 141.5 75.5 190.5s110.5 73.5 180.5 73.5c70.667 0 131.167 -24.333 181.5 -73s75.5 -112.334 75.5 -191.001c0 -77.333 -25.167 -140.666 -75.5 -189.999s-110.833 -74 -181.5 -74z
M315 122.001c33.333 0 62.666 12.5 87.999 37.5s38 57.167 38 96.5s-12.667 71.333 -38 96s-54.666 37 -87.999 37s-62.333 -12.333 -87 -37s-37 -56.667 -37 -96s12.5 -71.5 37.5 -96.5s53.833 -37.5 86.5 -37.5z" />
    <glyph glyph-name="one.oldstyle" horiz-adv-x="387" 
d="M311 517v-517h-140v314l-130 -51v132z" />
    <glyph glyph-name="two.oldstyle" horiz-adv-x="542" 
d="M477 0h-419.001v80l235 232c21.333 20 32 35.667 32 47c0 12 -5 22.167 -15 30.5s-23.667 12.5 -41 12.5c-43.333 0 -67.333 -19.667 -72 -59l-136 16c6.66699 52 27.834 93.5 63.501 124.5s84.167 46.5 145.5 46.5c60.667 0 110.5 -16.167 149.5 -48.5
s58.5 -70.5 58.5 -114.5c0 -46 -20.667 -86.333 -62 -121l-136 -124h197v-122z" />
    <glyph glyph-name="three.oldstyle" horiz-adv-x="531" 
d="M250 93l-68.999 -0.000976562v120h69c42.667 0 64 23.667 64 71c0 13.333 -5.5 27.166 -16.5 41.499s-27.5 21.5 -49.5 21.5c-31.333 0 -54.333 -12 -69 -36l-113 69c20 31.333 48.167 56 84.5 74s76.166 25.667 119.499 23c56 -2.66699 102.667 -22.167 140 -58.5
s55.333 -78.166 54 -125.499c0 -26 -7.66699 -50.333 -23 -73s-35.666 -41 -60.999 -55c35.333 -12.667 63.666 -36.5 84.999 -71.5s30.333 -70.5 27 -106.5c-5.33301 -56 -33.333 -102.167 -84 -138.5s-108.667 -52.166 -174 -47.499c-45.333 2.66699 -87 16.667 -125 42
s-66 57 -84 95l123 61c7.33301 -15.333 20.666 -29.5 39.999 -42.5s38.333 -19.833 57 -20.5c24 -1.33301 45.167 5.5 63.5 20.5s28.5 31.5 30.5 49.5c2 3.33301 2.16699 9.83301 0.5 19.5s-4.16699 19.667 -7.5 30s-12.166 19.333 -26.499 27s-32.833 11.167 -55.5 10.5z
" />
    <glyph glyph-name="four.oldstyle" horiz-adv-x="587" 
d="M204 76h122v204zM550 -42h-83v-147h-141v147h-313l306 508h148v-390h83v-118z" />
    <glyph glyph-name="five.oldstyle" horiz-adv-x="577" 
d="M398 42c0 35.333 -11.168 62.001 -33.501 80.001s-51.5 27 -87.5 27c-25.333 0 -51.5 -5.5 -78.5 -16.5s-48.833 -29.5 -65.5 -55.5l-77 40l54 349h384v-128h-273l-17 -106c25.333 22.667 65.333 34 120 34c61.333 0 112.333 -19.667 153 -59s61 -94.333 61 -165
s-24.667 -128.5 -74 -173.5s-114.666 -67.5 -195.999 -67.5c-45.333 0 -89 12.167 -131 36.5s-75.667 56.166 -101 95.499l118 76c12.667 -20 29.667 -36.333 51 -49s42.333 -19 63 -19c37.333 0 68.333 10 93 30s37 43.667 37 71z" />
    <glyph glyph-name="six.oldstyle" horiz-adv-x="586" 
d="M332 422c52 0 98.5 -19.334 139.5 -58.001s61.5 -93 61.5 -163c0 -63.333 -21.833 -114.333 -65.5 -153s-101.167 -58 -172.5 -58c-62.667 0 -116 20.833 -160 62.5s-69 96.834 -75 165.501c-4 34 -5 68.667 -3 104s5.33301 70 10 104s13.834 66 27.501 96s30 56 49 78
s44.167 39.167 75.5 51.5s66.666 17.833 105.999 16.5c44.667 -2 84 -12.167 118 -30.5s62 -50.5 84 -96.5l-131 -56c-16.667 34.667 -42 52 -76 52c-30 0 -54.667 -10 -74 -30s-32.166 -43.5 -38.499 -70.5s-8.83301 -56.5 -7.5 -88.5c5.33301 16 19.666 32.333 42.999 49
s53 25 89 25zM388 208.999c0 23.333 -8.5 43.5 -25.5 60.5s-37.167 25.5 -60.5 25.5s-43.5 -8.5 -60.5 -25.5s-25.5 -37.167 -25.5 -60.5s8.5 -43.5 25.5 -60.5s37.167 -25.5 60.5 -25.5s43.5 8.5 60.5 25.5s25.5 37.167 25.5 60.5z" />
    <glyph glyph-name="seven.oldstyle" horiz-adv-x="528" 
d="M33 467h494l-289 -655h-159l231 526h-277v129z" />
    <glyph glyph-name="eight.oldstyle" horiz-adv-x="596" 
d="M96 485c0 50.667 19.8311 93.835 59.498 129.502s87.167 53.5 142.5 53.5s103 -17.833 143 -53.5s60 -78.834 60 -129.501c0 -44.667 -16 -81.334 -48 -110.001c28.667 -16.667 51.5 -39.5 68.5 -68.5s25.5 -61.167 25.5 -96.5c0 -62 -24.167 -114.167 -72.5 -156.5
s-107.166 -63.5 -176.499 -63.5s-128.166 21.167 -176.499 63.5s-72.5 94.5 -72.5 156.5c0 35.333 8.33301 67.5 25 96.5s39.667 51.833 69 68.5c-31.333 30 -47 66.667 -47 110zM188.998 217.001c0 -27.333 10.833 -50.333 32.5 -69s47.167 -28 76.5 -28
s54.833 9.33301 76.5 28s32.5 41.667 32.5 69c0 26.667 -9.66699 49.667 -29 69s-46.333 29 -81 29c-34 0 -60.5 -9.66699 -79.5 -29s-28.5 -42.333 -28.5 -69zM230.998 481.001c0 -18 5.83301 -33 17.5 -45s28.167 -18 49.5 -18s37.833 6 49.5 18s17.5 27 17.5 45
c0 16.667 -6 31 -18 43s-28.333 18 -49 18s-37 -6 -49 -18s-18 -26.333 -18 -43z" />
    <glyph glyph-name="nine.oldstyle" horiz-adv-x="566" 
d="M246 45c-52 0 -98.499 19.334 -139.499 58.001s-61.5 93 -61.5 163c0 63.333 21.833 114.333 65.5 153s101.167 58 172.5 58c62.667 0 116 -20.833 160 -62.5s69 -96.834 75 -165.501c4 -34 5 -68.667 3 -104s-5.33301 -70 -10 -104s-13.834 -66 -27.501 -96
s-30 -56 -49 -78s-44.167 -39.167 -75.5 -51.5s-66.666 -17.833 -105.999 -16.5c-44.667 2 -84 12.167 -118 30.5s-62 50.5 -84 96.5l131 56c16.667 -34.667 42 -52 76 -52c30 0 54.667 10 74 30s32.166 43.5 38.499 70.5s8.83301 56.5 7.5 88.5
c-17.333 -49.333 -61.333 -74 -132 -74zM190.001 258.001c0 -23.333 8.5 -43.5 25.5 -60.5s37.167 -25.5 60.5 -25.5s43.5 8.5 60.5 25.5s25.5 37.167 25.5 60.5s-8.5 43.5 -25.5 60.5s-37.167 25.5 -60.5 25.5s-43.5 -8.5 -60.5 -25.5s-25.5 -37.167 -25.5 -60.5z" />
    <glyph glyph-name="Lslash.sc" horiz-adv-x="435" 
d="M211 398l75 47v-78l-75 -47v-208h209v-112h-336v240l-59 -36v78l59 37v247h127v-168z" />
    <glyph glyph-name="Zcaron.sc" horiz-adv-x="516" 
d="M198 760l63 -70l64 70h88l-93 -142h-118l-92 142h88zM47 95l254 360h-243v111h406v-94l-255 -360h255v-112h-417v95z" />
    <glyph glyph-name="exclam.sc" horiz-adv-x="289" 
d="M79 566h130l-16 -399h-97zM71 61c0 20 7.16699 36.667 21.5 50s31.5 20 51.5 20s37.167 -6.66699 51.5 -20s21.5 -30 21.5 -50s-7.16699 -36.833 -21.5 -50.5s-31.5 -20.5 -51.5 -20.5s-37.167 6.83301 -51.5 20.5s-21.5 30.5 -21.5 50.5z" />
    <glyph glyph-name="ampersand.sc" horiz-adv-x="590" 
d="M355 205v42.001h-68c-64.667 0 -100 -20.333 -106 -61c-2 -22.667 5.16699 -41.334 21.5 -56.001s36.5 -22 60.5 -22c15.333 0 31.833 5.33301 49.5 16s30.167 26.667 37.5 48c3.33301 11.333 5 22.333 5 33zM266 344.001l89.001 -0.00195312v64h112v-64h65v-97h-65v-80
c0 -30 4.83301 -49.167 14.5 -57.5s30.167 -12.5 61.5 -12.5v-105c-50.667 0.666992 -88 4.83398 -112 12.501s-41 25.167 -51 52.5c-10.667 -20.667 -29.334 -37 -56.001 -49s-52.667 -18 -78 -18c-56 0 -102.5 15.833 -139.5 47.5s-55.5 71.834 -55.5 120.501
c0 72 28.667 119.667 86 143c-42.667 16.667 -64 54 -64 112c0 40.667 16.5 77.5 49.5 110.5s72.167 49.5 117.5 49.5c70 0 125 -25.333 165 -76l-101 -63c-14.667 14.667 -29.667 22 -45 22c-18.667 0 -32.5 -5.16699 -41.5 -15.5s-13.5 -22.5 -13.5 -36.5
c0 -2 0.166992 -4.33301 0.5 -7s1.5 -7.5 3.5 -14.5s5 -13 9 -18s10.167 -9.66699 18.5 -14s18.5 -6.5 30.5 -6.5z" />
    <glyph glyph-name="question.sc" horiz-adv-x="427" 
d="M154 401l-114.002 -0.000976562l-3 -3c0 52.667 16 94.667 48 126s74.333 47 127 47c52 0 94 -14.667 126 -44s48 -68.666 48 -117.999c0 -38.667 -10.167 -71.834 -30.5 -99.501s-47.166 -46.5 -80.499 -56.5c-15.333 -4.66699 -25.166 -10.667 -29.499 -18
s-7.5 -20.333 -9.5 -39l-3 -28h-117l-1 20c0 45.333 7.16699 80.833 21.5 106.5s39.833 45.834 76.5 60.501c22.667 9.33301 37 17.5 43 24.5s9 17.167 9 30.5c0 10.667 -5 20 -15 28s-22.667 12 -38 12c-16 0 -29.333 -4.66699 -40 -14s-16.667 -21 -18 -35z
M102.998 60.999c0 20.667 7.16699 37.667 21.5 51s31.5 20 51.5 20c20.667 0 38.334 -6.66699 53.001 -20s22 -30.333 22 -51c0 -20 -7.33301 -36.833 -22 -50.5s-32.334 -20.5 -53.001 -20.5c-20 0 -37.167 6.83301 -51.5 20.5s-21.5 30.5 -21.5 50.5z" />
    <glyph glyph-name="A.sc" 
d="M379 132h-189l-50 -132h-133l210 566h134l210 -566h-133zM338 242l-55 182l-52 -182h107z" />
    <glyph glyph-name="B.sc" horiz-adv-x="550" 
d="M475 407c0 -49.333 -23.667 -83.999 -71 -103.999c32.667 -10 57.5 -27.5 74.5 -52.5s25.5 -50.167 25.5 -75.5c0 -49.333 -16.667 -90.833 -50 -124.5s-77.333 -50.5 -132 -50.5h-244v566h228c51.333 0 92.333 -14.333 123 -43s46 -67.334 46 -116.001zM204 346.001
l90 -0.000976562c14.667 0 26.5 5 35.5 15s13.5 23 13.5 39c0 16.667 -4.33301 29.834 -13 39.501s-21 14.5 -37 14.5h-89v-108zM313 240h-108.999v-128h111c17.333 0 31.166 6.5 41.499 19.5s15.5 28.5 15.5 46.5c0 16 -5.33301 30.333 -16 43s-25 19 -43 19z" />
    <glyph glyph-name="C.sc" horiz-adv-x="599" 
d="M467 188l102.002 -71c-25.333 -39.333 -59 -70.333 -101 -93s-88.333 -34 -139 -34c-80.667 0 -148.334 28.167 -203.001 84.5s-82 124.5 -82 204.5c0 81.333 27.333 150.333 82 207s122.334 85 203.001 85c49.333 0 94.666 -11.167 135.999 -33.5
s75.333 -52.5 102 -90.5l-103 -70c-34 50 -79 75 -135 75c-45.333 0 -83 -16.667 -113 -50s-45 -74.333 -45 -123c0 -47.333 15.167 -87.5 45.5 -120.5s67.833 -49.5 112.5 -49.5c28 0 54.167 7 78.5 21s44.166 33.333 59.499 58z" />
    <glyph glyph-name="D.sc" horiz-adv-x="604" 
d="M300 0l-222 -0.000976562v566h222c80 0 142.833 -26.667 188.5 -80s68.5 -121.666 68.5 -204.999c0 -82.667 -22.833 -150.167 -68.5 -202.5s-108.5 -78.5 -188.5 -78.5zM204 114.999h96c41.333 0 73.5 16 96.5 48s34.5 71.333 34.5 118c0 48 -11.5 88.333 -34.5 121
s-55.167 49 -96.5 49h-96v-336z" />
    <glyph glyph-name="E.sc" horiz-adv-x="499" 
d="M78 566h361v-112h-236v-120h207v-110h-207v-112h243v-112h-368v566z" />
    <glyph glyph-name="F.sc" horiz-adv-x="466" 
d="M78 566h357v-112h-231v-120h183v-111h-183v-223h-126v566z" />
    <glyph glyph-name="G.sc" horiz-adv-x="641" 
d="M458 397h-4.00293c-32 37.333 -72 56 -120 56c-46 0 -84.833 -17 -116.5 -51s-47.5 -75 -47.5 -123c0 -46.667 16 -87.167 48 -121.5s70.667 -51.5 116 -51.5c31.333 0 60.833 8.33301 88.5 25s41.834 38 42.501 64h-150v103h295c0 -102.667 -24.667 -179.667 -74 -231
s-116.666 -77 -201.999 -77c-81.333 0 -150 28.167 -206 84.5s-84 124.5 -84 204.5c0 81.333 28 150.333 84 207s124.667 85 206 85c42.667 0 82.834 -8.5 120.501 -25.5s69.167 -40.167 94.5 -69.5z" />
    <glyph glyph-name="H.sc" horiz-adv-x="600" 
d="M522 566v-566h-127v225h-192v-225h-125v566h125v-228h192v228h127z" />
    <glyph glyph-name="I.sc" horiz-adv-x="281" 
d="M203 566v-566h-125v566h125z" />
    </font>
</defs>
</svg>
