<svg width="20" height="19" viewBox="0 0 20 19" fill="none" xmlns="http://www.w3.org/2000/svg">
<path fill-rule="evenodd" clip-rule="evenodd" d="M3.69865 5L8.09725 0.784674C9.16095 -0.234702 10.839 -0.234703 11.9027 0.784674L16.3013 5H18.847C19.4555 5 19.923 5.53899 19.8369 6.14142L18.368 16.4243C18.1568 17.9022 16.8911 19 15.3981 19H4.6019C3.10895 19 1.84318 17.9022 1.63205 16.4243L0.16307 6.14142C0.0770085 5.53899 0.544471 5 1.15302 5H3.69865ZM9.13511 1.86766C9.61861 1.4043 10.3814 1.4043 10.8649 1.86766L14.1334 5H5.86658L9.13511 1.86766ZM1.72952 6.5L3.11697 16.2121C3.22254 16.9511 3.85542 17.5 4.6019 17.5H15.3981C16.1446 17.5 16.7775 16.9511 16.883 16.2121L18.2705 6.5H1.72952Z" fill="black"/>
<path fill-rule="evenodd" clip-rule="evenodd" d="M6 9.25C6.41421 9.25 6.75 9.58579 6.75 10V14C6.75 14.4142 6.41421 14.75 6 14.75C5.58579 14.75 5.25 14.4142 5.25 14V10C5.25 9.58579 5.58579 9.25 6 9.25Z" fill="black"/>
<path fill-rule="evenodd" clip-rule="evenodd" d="M10 9.25C10.4142 9.25 10.75 9.58579 10.75 10V14C10.75 14.4142 10.4142 14.75 10 14.75C9.58579 14.75 9.25 14.4142 9.25 14V10C9.25 9.58579 9.58579 9.25 10 9.25Z" fill="black"/>
<path fill-rule="evenodd" clip-rule="evenodd" d="M14 9.25C14.4142 9.25 14.75 9.58579 14.75 10V14C14.75 14.4142 14.4142 14.75 14 14.75C13.5858 14.75 13.25 14.4142 13.25 14V10C13.25 9.58579 13.5858 9.25 14 9.25Z" fill="black"/>
</svg>
